<?xml version="1.0" standalone="no"?>
<!DOCTYPE svg PUBLIC "-//W3C//DTD SVG 1.1//EN" "http://www.w3.org/Graphics/SVG/1.1/DTD/svg11.dtd" >
<svg xmlns="http://www.w3.org/2000/svg" xmlns:xlink="http://www.w3.org/1999/xlink" version="1.1">
<metadata>
Created by FontForge 20170731 at Thu Oct 26 18:32:30 2017
 By Aleksey,,,
Copyright 2017 The Barlow Project Authors (https://github.com/jpt/barlow)
</metadata>
<defs>
<font id="Barlow-Black" horiz-adv-x="552" >
  <font-face 
    font-family="Barlow Black"
    font-weight="900"
    font-stretch="normal"
    units-per-em="1000"
    panose-1="0 0 10 0 0 0 0 0 0 0"
    ascent="800"
    descent="-200"
    x-height="520"
    cap-height="700"
    bbox="-654 -271 1185 980"
    underline-thickness="50"
    underline-position="-150"
    unicode-range="U+000D-25CA"
  />
<missing-glyph horiz-adv-x="511" 
d="M8 0h495q8 0 8 8v684q0 8 -8 8h-495q-8 0 -8 -8v-684q0 -8 8 -8zM177 272v10q0 40 21.5 63.5t59.5 47.5q25 16 37 27t12 26t-13.5 23.5t-35.5 8.5q-24 0 -38.5 -10.5t-14.5 -25.5q0 -7 -5 -10.5t-14 -2.5l-97 4q-19 2 -19 5v4q0 70 53 114t139 44q82 0 131 -40.5
t49 -107.5q0 -45 -21 -70.5t-60 -50.5q-26 -16 -38 -28t-12 -30q0 -11 -19 -11h-96q-19 0 -19 10zM198 109q-21 20 -21 48q0 29 21.5 49.5t51.5 20.5q29 0 51 -20.5t22 -48.5t-21.5 -48.5t-51.5 -20.5q-31 0 -52 20z" />
    <glyph glyph-name="I_J.liga" unicode="IJ" horiz-adv-x="863" 
d="M39 19v662q0 19 19 19h150q19 0 19 -19v-662q0 -19 -19 -19h-150q-19 0 -19 19zM407.5 22q-61.5 30 -95.5 84.5t-34 125.5v29q0 19 19 19h150q19 0 19 -19v-28q0 -36 23 -58t61 -22q39 0 63 22t24 58v448q0 19 19 19h149q19 0 19 -19v-449q0 -71 -34 -125.5t-96.5 -84.5
t-143.5 -30t-142.5 30z" />
    <glyph glyph-name="f_f_i.liga" unicode="ffi" horiz-adv-x="1002" 
d="M789 565q-30 29 -30 76t30 76t78 29q49 0 78.5 -29t29.5 -76t-29.5 -76t-78.5 -29q-48 0 -78 29zM616 528q0 -8 8 -8h81q19 0 19 -19v-112q0 -19 -19 -19h-81q-8 0 -8 -8v-343q0 -19 -19 -19h-150q-19 0 -19 19v343q0 8 -8 8h-133q-8 0 -8 -8v-343q0 -19 -19 -19h-150
q-19 0 -19 19v343q0 8 -8 8h-44q-19 0 -19 19v112q0 19 19 19h44q8 0 8 8v28q0 77 43.5 111t143.5 34q25 0 38 -1h38q19 0 19 -19v-87q0 -19 -19 -19h-38q-20 -2 -28.5 -10.5t-8.5 -25.5v-11q0 -8 8 -8h133q8 0 8 8v28q0 77 43.5 111t143.5 34q25 0 38 -1h38q19 0 19 -19
v-87q0 -19 -19 -19h-38q-20 -2 -28.5 -10.5t-8.5 -25.5v-11zM773 19v482q0 19 19 19h150q19 0 19 -19v-482q0 -19 -19 -19h-150q-19 0 -19 19z" />
    <glyph glyph-name="f_f_l.liga" unicode="ffl" horiz-adv-x="990" 
d="M616 528q0 -8 8 -8h81q19 0 19 -19v-112q0 -19 -19 -19h-81q-8 0 -8 -8v-343q0 -19 -19 -19h-150q-19 0 -19 19v343q0 8 -8 8h-133q-8 0 -8 -8v-343q0 -19 -19 -19h-150q-19 0 -19 19v343q0 8 -8 8h-44q-19 0 -19 19v112q0 19 19 19h44q8 0 8 8v28q0 77 43.5 111
t143.5 34q25 0 38 -1h38q19 0 19 -19v-87q0 -19 -19 -19h-38q-20 -2 -28.5 -10.5t-8.5 -25.5v-11q0 -8 8 -8h133q8 0 8 8v28q0 77 43.5 111t143.5 34q25 0 38 -1h38q19 0 19 -19v-87q0 -19 -19 -19h-38q-20 -2 -28.5 -10.5t-8.5 -25.5v-11zM785 700h150q19 0 19 -19v-662
q0 -19 -19 -19h-150q-19 0 -19 19v662q0 19 19 19z" />
    <glyph glyph-name="f_i.liga" unicode="fi" horiz-adv-x="667" 
d="M387 501v-112q0 -19 -19 -19h-81q-8 0 -8 -8v-343q0 -19 -19 -19h-150q-19 0 -19 19v343q0 8 -8 8h-44q-19 0 -19 19v112q0 19 19 19h44q8 0 8 8v28q0 77 43.5 111t143.5 34q25 0 38 -1h38q19 0 19 -19v-87q0 -19 -19 -19h-38q-20 -2 -28.5 -10.5t-8.5 -25.5v-11
q0 -8 8 -8h81q19 0 19 -19zM454 570q-30 29 -30 76t30 76t78 29q49 0 78.5 -29t29.5 -76t-29.5 -76t-78.5 -29q-48 0 -78 29zM438 19v482q0 19 19 19h150q19 0 19 -19v-482q0 -19 -19 -19h-150q-19 0 -19 19z" />
    <glyph glyph-name="f_l.liga" unicode="fl" horiz-adv-x="657" 
d="M387 501v-112q0 -19 -19 -19h-81q-8 0 -8 -8v-343q0 -19 -19 -19h-150q-19 0 -19 19v343q0 8 -8 8h-44q-19 0 -19 19v112q0 19 19 19h44q8 0 8 8v28q0 77 43.5 111t143.5 34q25 0 38 -1h38q19 0 19 -19v-87q0 -19 -19 -19h-38q-20 -2 -28.5 -10.5t-8.5 -25.5v-11
q0 -8 8 -8h81q19 0 19 -19zM433 19v662q0 19 19 19h150q19 0 19 -19v-662q0 -19 -19 -19h-150q-19 0 -19 19z" />
    <glyph glyph-name="g_j.liga" unicode="gj" horiz-adv-x="823" 
d="M618 566.5q-30 30.5 -30 74.5q0 43 32.5 74t75.5 31q27 0 52 -14t40.5 -38.5t15.5 -52.5q0 -44 -30.5 -74.5t-77.5 -30.5q-48 0 -78 30.5zM536 501v-433q0 -143 -82.5 -203.5t-207.5 -60.5q-44 0 -102 9q-8 1 -12.5 7t-3.5 14l6 127q1 16 14 16q5 0 8 -1q39 -9 75 -9
q45 0 75 17t39 53v2q0 4 -4.5 6t-8.5 -1q-34 -26 -90 -26q-160 0 -204 130q-17 50 -17 117q0 74 21 126q24 63 75.5 100t118.5 37t103 -38q4 -4 6.5 -4t2.5 4v11q0 19 19 19h150q19 0 19 -19zM602 501q0 19 19 19h150q19 0 19 -19v-472q0 -121 -50.5 -173t-162.5 -52
q-28 0 -61 3q-16 2 -16 14q0 6 2 9l50 111q6 15 17 13q20 -2 26.5 13t6.5 59v475zM348 266q0 40 -11 65q-17 36 -57 36q-35 0 -53 -35q-16 -28 -16 -69q0 -40 13 -65q18 -35 58 -35t56 34q10 26 10 69z" />
    <glyph glyph-name="i_j.liga" unicode="ij" horiz-adv-x="515" 
d="M57 570q-30 29 -30 76t30 76t78 29q49 0 78.5 -29t29.5 -76t-29.5 -76t-78.5 -29q-48 0 -78 29zM41 19v482q0 19 19 19h150q19 0 19 -19v-482q0 -19 -19 -19h-150q-19 0 -19 19zM310 566.5q-30 30.5 -30 74.5q0 43 32.5 74t75.5 31q27 0 52 -14t40.5 -38.5t15.5 -52.5
q0 -44 -30.5 -74.5t-77.5 -30.5q-48 0 -78 30.5zM175 -182v118q0 19 21 19q8 -1 23 -1q44 0 59.5 15.5t15.5 56.5v475q0 19 19 19h150q19 0 19 -19v-472q0 -96 -24.5 -145.5t-85 -68.5t-178.5 -17q-19 2 -19 20z" />
    <glyph glyph-name="hyphen_hyphen.liga" unicode="&#x2d;&#x2d;" horiz-adv-x="641" 
d="M22 224v122q0 19 19 19h559q19 0 19 -19v-122q0 -19 -19 -19h-559q-19 0 -19 19z" />
    <glyph glyph-name=".notdef" horiz-adv-x="511" 
d="M8 0h495q8 0 8 8v684q0 8 -8 8h-495q-8 0 -8 -8v-684q0 -8 8 -8zM177 272v10q0 40 21.5 63.5t59.5 47.5q25 16 37 27t12 26t-13.5 23.5t-35.5 8.5q-24 0 -38.5 -10.5t-14.5 -25.5q0 -7 -5 -10.5t-14 -2.5l-97 4q-19 2 -19 5v4q0 70 53 114t139 44q82 0 131 -40.5
t49 -107.5q0 -45 -21 -70.5t-60 -50.5q-26 -16 -38 -28t-12 -30q0 -11 -19 -11h-96q-19 0 -19 10zM198 109q-21 20 -21 48q0 29 21.5 49.5t51.5 20.5q29 0 51 -20.5t22 -48.5t-21.5 -48.5t-51.5 -20.5q-31 0 -52 20z" />
    <glyph glyph-name=".null" horiz-adv-x="0" 
 />
    <glyph glyph-name="nonmarkingreturn" unicode="&#xd;" horiz-adv-x="200" 
 />
    <glyph glyph-name="space" unicode=" " horiz-adv-x="200" 
 />
    <glyph glyph-name="exclam" unicode="!" horiz-adv-x="362" 
d="M110.5 253q-5.5 5 -5.5 14l-17 414v2q0 17 18 17h150q9 0 14 -5t4 -14l-18 -414q-1 -19 -20 -19h-111q-9 0 -14.5 5zM99.5 30.5q-31.5 30.5 -31.5 74.5q0 28 16 52t41.5 38t53.5 14t54 -14t42 -38t16 -52q0 -44 -32 -74.5t-80 -30.5t-79.5 30.5z" />
    <glyph glyph-name="quotedbl" unicode="&#x22;" horiz-adv-x="423" 
d="M22 478l-16 202v2q0 8 5 13t13 5h139q9 0 14 -5.5t4 -14.5l-17 -202q-1 -18 -19 -18h-103q-18 0 -20 18zM262 478l-16 202v2q0 8 5 13t13 5h139q9 0 14 -5.5t4 -14.5l-17 -202q-1 -18 -19 -18h-103q-18 0 -20 18z" />
    <glyph glyph-name="numbersign" unicode="#" horiz-adv-x="705" 
d="M656 387h-68q-7 0 -8 -7l-8 -53v-2q0 -7 8 -7h39q19 0 19 -19v-122q0 -19 -19 -19h-66q-6 0 -8 -7l-15 -100q-3 -17 -21 -17h-149q-10 0 -15 5.5t-3 14.5l15 95v2q0 7 -8 7h-55q-6 0 -8 -7l-15 -100q-3 -17 -21 -17h-149q-10 0 -15 5.5t-3 14.5l15 95v2q0 7 -8 7h-41
q-19 0 -19 19v122q0 19 19 19h68q7 0 8 7l8 53v2q0 7 -8 7h-39q-19 0 -19 19v123q0 19 19 19h66q6 0 8 7l15 100q3 17 21 17h149q10 0 15 -5.5t3 -14.5l-15 -95v-2q0 -7 8 -7h55q6 0 8 7l15 100q3 17 21 17h149q10 0 15 -5.5t3 -14.5l-15 -95v-2q0 -7 8 -7h41q19 0 19 -19
v-123q0 -19 -19 -19zM384 325l8 53v2q0 7 -8 7h-55q-7 0 -8 -7l-8 -53v-2q0 -7 8 -7h55q7 0 8 7z" />
    <glyph glyph-name="dollar" unicode="$" horiz-adv-x="556" 
d="M480.5 70.5q-48.5 -56.5 -138.5 -72.5q-7 -2 -7 -8l1 -39q0 -19 -18 -19h-82q-18 0 -18 19l1 37q0 7 -8 9q-85 13 -132 61.5t-47 121.5v46q0 19 19 19h147q19 0 19 -10v-11q0 -29 17 -50t50 -21q30 0 43.5 16.5t13.5 34.5q0 25 -27 39t-86 32q-47 14 -76 25t-51 28
q-33 25 -54 67.5t-21 97.5q0 82 49 137.5t138 71.5q7 2 7 8l-1 49q0 19 18 19h80q18 0 18 -19l-1 -46q0 -7 8 -9q87 -14 135.5 -65.5t48.5 -129.5v-38q0 -19 -19 -19h-147q-19 0 -19 8v8q0 32 -16.5 55.5t-51.5 23.5q-27 0 -44.5 -14t-17.5 -34q0 -25 25 -37.5t80 -28.5
q59 -17 84 -28q129 -56 129 -192q0 -86 -48.5 -142.5z" />
    <glyph glyph-name="percent" unicode="%" horiz-adv-x="809" 
d="M124 393.5q-39 22.5 -62 61.5t-23 85t23 84.5t62 61t85 22.5t84.5 -22.5t61.5 -61t23 -84.5t-22.5 -85t-61.5 -61.5t-85 -22.5t-85 22.5zM152 12q0 5 3 11l370 664q7 13 22 13h91q16 0 16 -12q0 -5 -3 -11l-369 -664q-6 -13 -22 -13h-92q-16 0 -16 12zM261 486.5
q21 21.5 21 53.5q0 31 -21.5 52.5t-51.5 21.5q-31 0 -52.5 -21.5t-21.5 -52.5t21.5 -53t52.5 -22t52 21.5zM525 14.5q-39 22.5 -62 61.5t-23 85t23 84.5t62 61t85 22.5t84.5 -22.5t61.5 -61t23 -84.5t-22.5 -85t-61.5 -61.5t-85 -22.5t-85 22.5zM662 107.5q21 21.5 21 53.5
q0 31 -21.5 52.5t-51.5 21.5q-31 0 -52.5 -21.5t-21.5 -52.5t21.5 -53t52.5 -22t52 21.5z" />
    <glyph glyph-name="ampersand" unicode="&#x26;" horiz-adv-x="733" 
d="M691 11q0 -5 -5 -8t-12 -3h-166q-14 0 -24 10l-24 26q-4 5 -11 2q-95 -46 -193 -46q-97 0 -163.5 46t-66.5 140q0 63 31 107t85 76q3 2 3.5 5.5t-2.5 6.5q-42 49 -55.5 76.5t-13.5 55.5q0 60 28 106t80 71.5t120 25.5t122 -25.5t85 -71.5t31 -105q0 -62 -33 -104.5
t-90 -74.5q-8 -3 -2 -11l49 -53q6 -6 12 0q39 39 59 71q6 11 16 11q6 0 10 -3l109 -63q11 -6 11 -15q0 -3 -4 -11q-38 -64 -88 -114q-6 -6 -1 -12l97 -104q6 -6 6 -12zM274 528.5q-12 -9.5 -12 -23.5q0 -8 7 -19t29 -38q5 -7 11 -2q43 26 43 55q0 18 -12.5 27.5t-33.5 9.5
q-20 0 -32 -9.5zM326 162q4 2 5 5t-2 6l-31 32l-36 38q-4 6 -11 1q-38 -28 -38 -58q0 -18 13.5 -28.5t37.5 -10.5q11 0 26 3q9 2 36 12z" />
    <glyph glyph-name="quotesingle" unicode="'" horiz-adv-x="193" 
d="M22 478l-16 202v2q0 8 5 13t13 5h149q9 0 14 -5.5t4 -14.5l-17 -202q-1 -18 -19 -18h-113q-18 0 -20 18z" />
    <glyph glyph-name="parenleft" unicode="(" horiz-adv-x="405" 
d="M142 -72q-65 77 -103 176t-38 233q0 242 141 409q9 10 23 10h145q8 0 12.5 -3t4.5 -8q0 -3 -4 -11q-50 -87 -81 -180.5t-31 -216.5q0 -124 31 -217.5t81 -180.5q4 -8 4 -11q0 -5 -4.5 -8t-12.5 -3h-145q-15 0 -23 11z" />
    <glyph glyph-name="parenright" unicode=")" horiz-adv-x="405" 
d="M240 -83h-145q-8 0 -12.5 3t-4.5 8q0 3 4 11q50 87 81 180.5t31 217.5q0 123 -31 216.5t-81 180.5q-4 8 -4 11q0 5 4.5 8t12.5 3h145q14 0 23 -10q141 -167 141 -409q0 -134 -38 -233t-103 -176q-8 -11 -23 -11z" />
    <glyph glyph-name="asterisk" unicode="*" horiz-adv-x="400" 
d="M148 412l1 59q0 5 -3 6t-7 -1l-58 -34q-5 -4 -11 -4q-9 0 -15 11l-34 62q-3 6 -3 10q0 10 11 16l59 29q5 2 5 5t-5 5l-58 28q-12 6 -12 15q0 4 3 10l34 62q6 11 16 11q6 0 10 -3l58 -33q4 -2 5 -2q5 0 5 7l-1 57q0 19 19 19h66q19 0 19 -19l-1 -57q0 -5 3 -6t7 1l58 33
q4 3 10 3q10 0 16 -11l34 -62q3 -4 3 -10q0 -10 -12 -15l-60 -28q-4 -2 -4 -5.5t4 -5.5l60 -29q12 -6 12 -15q0 -4 -3 -10l-34 -62q-6 -11 -15 -11q-6 0 -11 4l-58 34q-4 2 -5 2q-5 0 -5 -7l1 -59q0 -19 -19 -19h-66q-19 0 -19 19z" />
    <glyph glyph-name="plus" unicode="+" horiz-adv-x="476" 
d="M454 353v-122q0 -19 -19 -19h-109q-8 0 -8 -8v-109q0 -19 -19 -19h-122q-19 0 -19 19v109q0 8 -8 8h-109q-19 0 -19 19v122q0 19 19 19h109q8 0 8 8v109q0 19 19 19h122q19 0 19 -19v-109q0 -8 8 -8h109q19 0 19 -19z" />
    <glyph glyph-name="comma" unicode="," horiz-adv-x="265" 
d="M28 -105.5q-5 5.5 -4 14.5l25 233q2 18 20 18h128q10 0 14 -5.5t2 -15.5l-63 -234q-4 -16 -21 -16h-87q-9 0 -14 5.5z" />
    <glyph glyph-name="hyphen" unicode="-" horiz-adv-x="419" 
d="M22 224v122q0 19 19 19h337q19 0 19 -19v-122q0 -19 -19 -19h-337q-19 0 -19 19z" />
    <glyph glyph-name="period" unicode="." horiz-adv-x="263" 
d="M51.5 22.5q-31.5 30.5 -31.5 74.5q0 28 16 52t41.5 38t53.5 14t54 -14t42 -38t16 -52q0 -44 -32 -74.5t-80 -30.5t-79.5 30.5z" />
    <glyph glyph-name="slash" unicode="/" horiz-adv-x="503" 
d="M19 14l2 8l277 663q6 15 22 15h147q17 0 17 -14l-2 -8l-276 -663q-6 -15 -22 -15h-148q-17 0 -17 14z" />
    <glyph glyph-name="zero" unicode="0" horiz-adv-x="573" 
d="M98.5 54q-68.5 66 -68.5 182v228q0 113 68.5 178.5t187.5 65.5t188 -65.5t69 -178.5v-228q0 -115 -69 -181.5t-188 -66.5t-187.5 66zM336.5 169.5q18.5 20.5 18.5 56.5v244q0 36 -18.5 56.5t-50.5 20.5t-50 -20.5t-18 -56.5v-244q0 -36 18 -56.5t50 -20.5t50.5 20.5z" />
    <glyph glyph-name="one" unicode="1" horiz-adv-x="336" 
d="M130 700h157q19 0 19 -19v-662q0 -19 -19 -19h-150q-19 0 -19 19v503q0 8 -8 8l-79 -3q-19 0 -19 18v107q0 17 16 22l79 23q9 3 23 3z" />
    <glyph glyph-name="two" unicode="2" horiz-adv-x="576" 
d="M36 19v116q0 15 11 23q53 48 142 139l70 69q90 88 90 126q0 24 -18 39.5t-46 15.5q-29 0 -47 -15.5t-18 -41.5v-16q0 -19 -19 -19h-152q-19 0 -19 19v46q4 57 38.5 99.5t91 65.5t125.5 23q77 0 135 -28.5t88.5 -77t30.5 -106.5q0 -41 -19.5 -81t-57.5 -84
q-39 -44 -142 -138q-24 -21 -25 -22q-3 -3 -3 -5q0 -5 7 -5h228q19 0 19 -19v-123q0 -19 -19 -19h-472q-19 0 -19 19z" />
    <glyph glyph-name="three" unicode="3" horiz-adv-x="556" 
d="M529 237q0 -51 -21 -102q-27 -66 -89 -104.5t-144 -38.5q-80 0 -142.5 39t-91.5 106q-18 41 -19 84v2q0 17 18 17h153q18 0 19 -18q3 -23 13 -41q16 -28 49 -28t50 28q15 26 15 62q0 37 -14 63q-18 30 -52 30q-12 0 -25.5 -8t-33.5 -23q-7 -5 -13 -5q-8 0 -14 9l-75 105
q-4 5 -4 12q0 9 9 15l137 88q4 4 4 5q0 5 -7 5h-191q-19 0 -19 19v123q0 19 19 19h438q19 0 19 -19v-140q0 -14 -12 -23l-101 -71q-3 -3 -3 -5q0 -4 6 -6q70 -25 102 -99q20 -46 20 -100z" />
    <glyph glyph-name="four" unicode="4" horiz-adv-x="642" 
d="M604 318v-128q0 -19 -19 -19h-34q-8 0 -8 -8v-144q0 -19 -19 -19h-150q-19 0 -19 19v144q0 8 -8 8h-306q-19 0 -19 19v100q0 10 5 23l162 373q6 14 22 14h160q16 0 16 -12q0 -6 -2 -10l-142 -332l-1 -4q0 -5 7 -5h98q8 0 8 8v92q0 19 19 19h150q19 0 19 -19v-92
q0 -8 8 -8h34q19 0 19 -19z" />
    <glyph glyph-name="five" unicode="5" horiz-adv-x="555" 
d="M534 230q0 -54 -20 -99q-27 -62 -90 -99.5t-144 -37.5t-143 36.5t-91 100.5q-13 31 -17 58v4q0 7 5 11.5t13 4.5h156q15 0 21 -13q1 -5 6 -13q16 -28 50 -28q29 0 48 26q14 20 14 45q1 25 -11 47q-17 27 -51 27q-29 0 -47 -19q-10 -12 -24 -12h-161q-19 0 -19 19v393
q0 19 19 19h445q19 0 19 -19v-123q0 -19 -19 -19h-268q-8 0 -8 -8v-82q0 -5 3 -6.5t7 0.5q35 19 81 19q70 0 125 -36.5t82 -98.5q19 -46 19 -97z" />
    <glyph glyph-name="six" unicode="6" 
d="M531 230q0 -56 -19 -99q-27 -62 -90 -99.5t-144 -37.5q-79 0 -141 36.5t-90 100.5q-20 44 -20 99v294q0 54 30.5 96t86 65t128.5 23q71 0 125.5 -23t85 -65t30.5 -96v-31q0 -19 -19 -19h-150q-19 0 -19 11v11q0 21 -15 36t-39 15t-40 -15t-16 -36v-60q0 -5 3 -6.5t7 1.5
q36 22 89 22q62 0 115.5 -32t82.5 -92q19 -39 19 -99zM343 226q0 28 -15 48q-17 22 -48 22q-35 0 -51 -22q-13 -18 -13 -46q0 -29 13 -49q16 -24 49 -24q32 0 50 24q15 20 15 47z" />
    <glyph glyph-name="seven" unicode="7" horiz-adv-x="511" 
d="M95 13q0 3 2 9l203 508q1 1 1 4q0 5 -7 5h-125q-8 0 -8 -8v-38q0 -19 -19 -19h-114q-19 0 -19 19l1 188q0 19 19 19h454q19 0 19 -19v-130q0 -11 -4 -23l-204 -513q-5 -15 -22 -15h-160q-17 0 -17 13z" />
    <glyph glyph-name="eight" unicode="8" horiz-adv-x="556" 
d="M532 210q0 -51 -20 -93q-28 -57 -90 -91t-145 -34q-79 0 -140 32t-92 93q-22 44 -22 94q0 60 25 106q13 26 40 48q8 5 1 11q-22 16 -38 44q-22 38 -22 88q0 66 36 116q32 43 88 67t126 24q80 0 138.5 -28.5t87.5 -87.5q23 -46 23 -92q0 -48 -25 -87q-13 -22 -39 -42
q-6 -6 0 -11q27 -18 44 -50q24 -45 24 -107zM279 413q18 0 32.5 7.5t21.5 20.5q10 17 10 44q0 21 -7 35q-16 34 -57 34q-20 0 -34.5 -8.5t-21.5 -24.5q-7 -15 -7 -38q0 -24 9 -41q16 -29 54 -29zM343 229q0 27 -9 43q-17 33 -55 33t-54 -33q-9 -18 -9 -45q0 -32 12 -50
q17 -26 51 -26q32 0 49 23q15 20 15 55z" />
    <glyph glyph-name="nine" unicode="9" horiz-adv-x="537" 
d="M510 470v-294q0 -54 -30.5 -96t-86 -65t-128.5 -23q-71 0 -125.5 23t-85 65t-30.5 96v31q0 19 19 19h150q19 0 19 -11v-11q0 -21 15 -36t39 -15t40 15t16 36v60q0 5 -3 6.5t-7 -1.5q-36 -22 -89 -22q-62 0 -115.5 32t-82.5 92q-19 39 -19 99q0 56 19 99q27 62 90 99.5
t144 37.5q79 0 141 -36.5t90 -100.5q20 -44 20 -99zM321 472q0 30 -13 49q-16 24 -49 24q-32 0 -50 -24q-15 -20 -15 -47q0 -28 15 -48q16 -22 48 -22q35 0 51 22q13 18 13 46z" />
    <glyph glyph-name="colon" unicode=":" horiz-adv-x="381" 
d="M112.5 351.5q-31.5 30.5 -31.5 74.5q0 28 16 52t41.5 38t53.5 14t54 -14t42 -38t16 -52q0 -44 -32 -74.5t-80 -30.5t-79.5 30.5zM112.5 30.5q-31.5 30.5 -31.5 74.5q0 28 16 52t41.5 38t53.5 14t54 -14t42 -38t16 -52q0 -44 -32 -74.5t-80 -30.5t-79.5 30.5z" />
    <glyph glyph-name="semicolon" unicode=";" horiz-adv-x="319" 
d="M80.5 321.5q-31.5 30.5 -31.5 74.5q0 28 16 52t41.5 38t53.5 14t54 -14t42 -38t16 -52q0 -44 -32 -74.5t-80 -30.5t-79.5 30.5zM63 -105.5q-5 5.5 -4 14.5l20 233q2 18 20 18h128q10 0 14.5 -5.5t2.5 -15.5l-60 -234q-4 -16 -21 -16h-86q-9 0 -14 5.5z" />
    <glyph glyph-name="less" unicode="&#x3c;" horiz-adv-x="476" 
d="M441 19q-3 0 -9 2l-395 170q-15 6 -15 22v128q0 16 15 22l395 169q3 2 9 2q13 0 13 -16v-138q0 -16 -15 -22l-210 -76q-5 -1 -5 -4.5t5 -5.5l210 -76q15 -6 15 -22v-138q0 -17 -13 -17z" />
    <glyph glyph-name="equal" unicode="=" horiz-adv-x="476" 
d="M22 314v122q0 19 19 19h394q19 0 19 -19v-122q0 -19 -19 -19h-394q-19 0 -19 19zM22 133v122q0 19 19 19h394q19 0 19 -19v-122q0 -19 -19 -19h-394q-19 0 -19 19z" />
    <glyph glyph-name="greater" unicode="&#x3e;" horiz-adv-x="476" 
d="M35 19q-13 0 -13 17v138q0 16 15 22l210 76q5 2 5 5.5t-5 4.5l-210 76q-15 6 -15 22v138q0 17 13 17q3 0 9 -2l395 -170q15 -6 15 -22v-128q0 -16 -15 -22l-395 -170q-6 -2 -9 -2z" />
    <glyph glyph-name="question" unicode="?" horiz-adv-x="562" 
d="M170 250v14q0 39 16 68t38.5 47t57.5 40q36 22 52.5 38t16.5 37t-18.5 33t-49.5 12q-34 0 -54.5 -14.5t-20.5 -36.5q0 -9 -5 -14t-14 -4l-150 7q-19 2 -19 6v5q0 65 34 115.5t94.5 78.5t139.5 28q76 0 133.5 -26t88.5 -72.5t31 -108.5q0 -44 -16.5 -75.5t-38.5 -50.5
t-59 -43q-36 -24 -53 -40.5t-17 -41.5q0 -16 -19 -16h-149q-19 0 -19 14zM198.5 23q-29.5 28 -29.5 67q0 40 30.5 68.5t72.5 28.5q41 0 71.5 -28.5t30.5 -67.5q0 -40 -30.5 -68t-72.5 -28q-43 0 -72.5 28z" />
    <glyph glyph-name="at" unicode="@" horiz-adv-x="815" 
d="M637.5 649q74.5 -39 115 -110.5t40.5 -165.5q0 -26 -3 -53q-12 -102 -61.5 -159.5t-139.5 -57.5q-71 0 -110 36q-6 5 -12 0q-21 -18 -51 -27t-63 -9q-50 0 -83 27.5t-42 72.5q-4 19 -4 43t3 42q6 40 21 81q19 52 57.5 79t83.5 27q44 0 68 -26q4 -4 6.5 -4t3.5 3l1 9
q3 18 20 18h85q10 0 14.5 -5.5t2.5 -14.5l-23 -165q-2 -14 -2 -22q0 -23 9 -37t28 -14q25 0 38.5 23.5t19.5 70.5q4 27 4 55q0 103 -56 155.5t-151 52.5q-80 0 -144.5 -36t-105.5 -99.5t-54 -144.5q-4 -25 -4 -55q0 -101 59 -155.5t159 -54.5q43 0 81 10t63 25q8 4 12 4
q9 0 15 -8l44 -52q5 -5 5 -12q0 -10 -8 -15q-43 -30 -104 -49t-126 -19q-87 0 -161.5 39t-120 112t-45.5 172q0 26 5 63q16 113 77 201.5t154.5 138t205.5 49.5q99 0 173.5 -39zM424 233q18 29 18 80q0 19 -3 31t-12 18.5t-22 6.5t-23.5 -7t-17.5 -19q-9 -15 -17 -60
q-2 -16 -2 -26q0 -16 3 -24q10 -27 37 -27q22 0 39 27z" />
    <glyph glyph-name="A" unicode="A" horiz-adv-x="714" 
d="M490 16l-20 72q-2 7 -9 7h-208q-7 0 -9 -7l-20 -72q-4 -16 -21 -16h-162q-10 0 -14.5 6t-1.5 16l208 662q5 16 21 16h206q16 0 21 -16l208 -662q1 -3 1 -7q0 -15 -17 -15h-162q-17 0 -21 16zM288 246q0 -7 7 -7h124q4 0 6 2.5t1 6.5l-64 231q-1 5 -4.5 5t-5.5 -5
l-64 -231v-2z" />
    <glyph glyph-name="B" unicode="B" horiz-adv-x="615" 
d="M495 361q0 -3 4 -5q42 -25 62.5 -63.5t20.5 -92.5q0 -103 -72 -151.5t-187 -48.5h-265q-19 0 -19 19v662q0 19 19 19h256q128 0 192.5 -45.5t64.5 -152.5q0 -93 -72 -136q-4 -2 -4 -5zM227 531v-94q0 -8 8 -8h79q73 0 73 55t-73 55h-79q-8 0 -8 -8zM394 220q0 56 -70 56
h-89q-8 0 -8 -8v-99q0 -8 8 -8h88q71 0 71 59z" />
    <glyph glyph-name="C" unicode="C" horiz-adv-x="609" 
d="M161.5 24q-62.5 32 -97 90.5t-34.5 135.5v202q0 76 34.5 134t97 90t144.5 32t144.5 -30t97 -84.5t34.5 -126.5q0 -9 -18 -11l-150 -10h-5q-15 0 -15 5v6q0 41 -24 65.5t-64 24.5t-64 -24.5t-24 -65.5v-215q0 -40 24 -64.5t64 -24.5t64 24.5t24 64.5q0 5 5.5 8.5t14.5 2.5
l150 -8q18 -1 18 -5v-5q0 -72 -34.5 -127t-97 -85.5t-144.5 -30.5t-144.5 32z" />
    <glyph glyph-name="D" unicode="D" horiz-adv-x="618" 
d="M39 19v662q0 19 19 19h253q81 0 143.5 -28t96.5 -79t34 -118v-250q0 -67 -34 -118t-96.5 -79t-143.5 -28h-253q-19 0 -19 19zM235 161h83q34 0 56 26.5t23 69.5v186q0 43 -22 69.5t-58 26.5h-82q-8 0 -8 -8v-362q0 -8 8 -8z" />
    <glyph glyph-name="E" unicode="E" horiz-adv-x="570" 
d="M527 539h-292q-8 0 -8 -8v-88q0 -8 8 -8h178q19 0 19 -19v-122q0 -19 -19 -19h-178q-8 0 -8 -8v-98q0 -8 8 -8h292q19 0 19 -19v-123q0 -19 -19 -19h-469q-19 0 -19 19v662q0 19 19 19h469q19 0 19 -19v-123q0 -19 -19 -19z" />
    <glyph glyph-name="F" unicode="F" horiz-adv-x="554" 
d="M526 539h-291q-8 0 -8 -8v-88q0 -8 8 -8h178q19 0 19 -19v-122q0 -19 -19 -19h-178q-8 0 -8 -8v-248q0 -19 -19 -19h-150q-19 0 -19 19v662q0 19 19 19h468q19 0 19 -19v-123q0 -19 -19 -19z" />
    <glyph glyph-name="G" unicode="G" horiz-adv-x="608" 
d="M161.5 25q-62.5 33 -97 93t-34.5 138v189q0 78 34.5 137.5t97 92.5t144.5 33q80 0 143 -31.5t97.5 -85.5t34.5 -118q0 -16 -19 -16h-149q-19 0 -19 5v4q0 33 -23.5 57t-64.5 24q-40 0 -64 -26.5t-24 -70.5v-200q0 -43 27.5 -70t68.5 -27q37 0 60.5 20.5t23.5 56.5v10
q0 8 -8 8h-81q-19 0 -19 19v112q0 19 19 19h253q19 0 19 -19v-133q0 -74 -34.5 -132t-97 -90t-143.5 -32q-82 0 -144.5 33z" />
    <glyph glyph-name="H" unicode="H" horiz-adv-x="611" 
d="M412 700h150q19 0 19 -19v-662q0 -19 -19 -19h-150q-19 0 -19 19v247q0 8 -8 8h-150q-8 0 -8 -8v-247q0 -19 -19 -19h-150q-19 0 -19 19v662q0 19 19 19h150q19 0 19 -19v-238q0 -8 8 -8h150q8 0 8 8v238q0 19 19 19z" />
    <glyph glyph-name="I" unicode="I" horiz-adv-x="266" 
d="M39 19v662q0 19 19 19h150q19 0 19 -19v-662q0 -19 -19 -19h-150q-19 0 -19 19z" />
    <glyph glyph-name="J" unicode="J" horiz-adv-x="597" 
d="M141.5 22q-61.5 30 -95.5 84.5t-34 125.5v29q0 19 19 19h150q19 0 19 -19v-28q0 -36 23 -58t61 -22q39 0 63 22t24 58v448q0 19 19 19h149q19 0 19 -19v-449q0 -71 -34 -125.5t-96.5 -84.5t-143.5 -30t-142.5 30z" />
    <glyph glyph-name="K" unicode="K" horiz-adv-x="636" 
d="M39 19v662q0 19 19 19h150q19 0 19 -19v-229q0 -5 3.5 -6t6.5 3l169 239q8 12 23 12h170q15 0 15 -11q0 -7 -4 -12l-202 -282q-4 -6 -1 -11l212 -361q3 -6 3 -11q0 -12 -16 -12h-169q-15 0 -22 13l-135 240q-2 4 -5.5 4t-5.5 -4l-39 -59q-3 -6 -3 -10v-165q0 -19 -19 -19
h-150q-19 0 -19 19z" />
    <glyph glyph-name="L" unicode="L" horiz-adv-x="574" 
d="M39 19v662q0 19 19 19h150q19 0 19 -19v-512q0 -8 8 -8h302q19 0 19 -19v-123q0 -19 -19 -19h-479q-19 0 -19 19z" />
    <glyph glyph-name="M" unicode="M" horiz-adv-x="714" 
d="M39 19v662q0 19 19 19h149q16 0 23 -13l121 -197q2 -4 6 -4t6 4l121 197q7 13 23 13h149q19 0 19 -19v-662q0 -19 -19 -19h-150q-19 0 -19 19v353q0 6 -3.5 7t-6.5 -4l-62 -103q-7 -13 -23 -13h-70q-16 0 -23 13l-62 103q-3 4 -6 4q-4 0 -4 -7v-353q0 -19 -19 -19h-150
q-19 0 -19 19z" />
    <glyph glyph-name="N" unicode="N" horiz-adv-x="658" 
d="M39 19v662q0 19 19 19h144q16 0 23 -13l197 -331q3 -4 6 -4q4 0 4 7l-1 322q0 19 19 19h150q19 0 19 -19v-662q0 -19 -19 -19h-144q-16 0 -23 13l-198 337q-3 5 -6.5 4.5t-3.5 -6.5l2 -329q0 -19 -19 -19h-150q-19 0 -19 19z" />
    <glyph glyph-name="O" unicode="O" horiz-adv-x="621" 
d="M163.5 21.5q-63.5 33.5 -98.5 94t-35 140.5v188q0 78 35 138t98.5 93t146.5 33q84 0 147.5 -33t98.5 -93t35 -138v-188q0 -80 -35 -140.5t-98.5 -94t-147.5 -33.5q-83 0 -146.5 33.5zM377.5 176.5q25.5 27.5 25.5 73.5v196q0 46 -25.5 73.5t-67.5 27.5q-41 0 -66.5 -27.5
t-25.5 -73.5v-196q0 -46 25.5 -73.5t66.5 -27.5q42 0 67.5 27.5z" />
    <glyph glyph-name="P" unicode="P" horiz-adv-x="600" 
d="M469 671.5q54 -28.5 83.5 -81t29.5 -120.5q0 -67 -31 -118t-87 -79t-129 -28h-103q-8 0 -8 -8v-218q0 -19 -19 -19h-150q-19 0 -19 19v662q0 19 19 19h289q71 0 125 -28.5zM372.5 414.5q22.5 19.5 22.5 51.5q0 33 -22.5 53t-59.5 20h-81q-8 0 -8 -8v-128q0 -8 8 -8h81
q37 0 59.5 19.5z" />
    <glyph glyph-name="Q" unicode="Q" horiz-adv-x="605" 
d="M445 674.5q62 -33.5 96 -94t34 -140.5v-195q0 -88 -45.5 -150.5t-125.5 -87.5q-7 -1 -7 -9v-66q0 -19 -19 -19h-150q-19 0 -19 19v65q0 8 -7 9q-80 26 -126 88.5t-46 150.5v195q0 80 34 140.5t95.5 94t142.5 33.5t143 -33.5zM218 250q0 -43 23 -70t61 -27t61.5 26.5
t23.5 70.5v200q0 44 -23.5 70.5t-61.5 26.5t-61 -27t-23 -70v-200z" />
    <glyph glyph-name="R" unicode="R" horiz-adv-x="615" 
d="M389 14l-108 249q-2 6 -10 6h-36q-8 0 -8 -8v-242q0 -19 -19 -19h-150q-19 0 -19 19v662q0 19 19 19h299q68 0 119.5 -28t80 -78.5t28.5 -116.5q0 -65 -31.5 -114t-87.5 -73q-7 -3 -4 -10l122 -258q2 -4 2 -10q0 -12 -16 -12h-159q-16 0 -22 14zM227 531v-111q0 -8 8 -8
h91q32 0 52 17.5t20 45.5q0 29 -20 46.5t-52 17.5h-91q-8 0 -8 -8z" />
    <glyph glyph-name="S" unicode="S" horiz-adv-x="597" 
d="M156 19.5q-62 27.5 -96 78.5t-34 118v10q0 19 19 19h147q19 0 19 -10v-11q0 -27 29 -49t73 -22q37 0 53 15.5t16 34.5q0 22 -20 33t-73 27l-29 8q-99 30 -166 80t-67 145q0 63 34 111.5t93.5 74.5t133.5 26q78 0 141.5 -29t100 -82t36.5 -121v-5q0 -19 -19 -19h-147
q-19 0 -19 8v8q0 30 -27 54.5t-73 24.5q-32 0 -50.5 -13t-18.5 -36q0 -18 13.5 -30.5t41.5 -24t86 -29.5q8 -3 70.5 -21.5t104.5 -67t42 -117.5q0 -65 -34 -114t-95.5 -75.5t-141.5 -26.5q-81 0 -143 27.5z" />
    <glyph glyph-name="T" unicode="T" horiz-adv-x="595" 
d="M577 681v-124q0 -19 -19 -19h-161q-8 0 -8 -8v-511q0 -19 -19 -19h-150q-19 0 -19 19v511q0 8 -8 8h-156q-19 0 -19 19v124q0 19 19 19h521q19 0 19 -19z" />
    <glyph glyph-name="U" unicode="U" horiz-adv-x="617" 
d="M165.5 23q-62.5 31 -96.5 88t-34 132v438q0 19 19 19h150q19 0 19 -19v-438q0 -41 23.5 -65.5t62.5 -24.5q38 0 61.5 25t23.5 65v438q0 19 19 19h150q19 0 19 -19v-438q0 -75 -34 -132t-96 -88t-143 -31t-143.5 31z" />
    <glyph glyph-name="V" unicode="V" horiz-adv-x="645" 
d="M219 16l-195 663q-1 3 -1 7q0 14 17 14h163q17 0 21 -17l97 -410q2 -5 5.5 -5t4.5 5l94 410q3 17 21 17h159q10 0 14.5 -5.5t1.5 -15.5l-197 -663q-5 -16 -22 -16h-161q-17 0 -22 16z" />
    <glyph glyph-name="W" unicode="W" horiz-adv-x="857" 
d="M180 16l-196 663q-1 3 -1 7q0 14 17 14h162q17 0 21 -16l82 -316q2 -5 5.5 -5t4.5 5l76 315q5 17 21 17h117q17 0 21 -16l80 -316q2 -5 5.5 -5t4.5 5l74 315q4 17 21 17h162q10 0 14 -5.5t2 -15.5l-175 -663q-4 -16 -21 -16h-153q-18 0 -21 17l-69 331q-2 5 -5 5.5
t-4 -5.5l-61 -331q-3 -17 -20 -17h-142q-17 0 -22 16z" />
    <glyph glyph-name="X" unicode="X" horiz-adv-x="659" 
d="M28 12q0 5 3 11l178 322q3 5 0 10l-178 322q-3 6 -3 11q0 12 16 12h164q15 0 22 -14l95 -182q2 -4 5 -4t5 4l95 182q7 14 22 14h163q16 0 16 -12q0 -5 -3 -11l-177 -322q-3 -5 0 -10l177 -322q3 -6 3 -11q0 -12 -16 -12h-162q-15 0 -22 14l-96 182q-2 4 -5 4t-5 -4
l-96 -182q-7 -14 -22 -14h-163q-16 0 -16 12z" />
    <glyph glyph-name="Y" unicode="Y" horiz-adv-x="651" 
d="M231 21v215q0 4 -2 10l-201 432q-2 6 -2 9q0 13 17 13h163q17 0 22 -15l92 -231q2 -4 5 -4t5 4l92 231q5 15 22 15h164q17 0 17 -13q0 -3 -2 -9l-203 -432q-2 -6 -2 -10v-215q0 -19 -19 -19h-149q-19 0 -19 19z" />
    <glyph glyph-name="Z" unicode="Z" horiz-adv-x="562" 
d="M24 19v138q0 12 8 23l287 349q2 4 2 5q0 5 -7 5h-271q-19 0 -19 19v123q0 19 19 19h473q19 0 19 -19v-138q0 -12 -8 -23l-289 -349q-2 -4 -2 -5q0 -5 7 -5h273q19 0 19 -19v-123q0 -19 -19 -19h-473q-19 0 -19 19z" />
    <glyph glyph-name="bracketleft" unicode="[" horiz-adv-x="441" 
d="M36 -145v944q0 19 19 19h257q19 0 19 -19v-123q0 -19 -19 -19h-80q-8 0 -8 -8v-644q0 -8 8 -8h80q19 0 19 -19v-123q0 -19 -19 -19h-257q-19 0 -19 19z" />
    <glyph glyph-name="backslash" unicode="\" horiz-adv-x="503" 
d="M484 14q0 -14 -17 -14h-148q-16 0 -22 15l-276 663l-2 8q0 14 17 14h147q16 0 22 -15l277 -663z" />
    <glyph glyph-name="bracketright" unicode="]" horiz-adv-x="441" 
d="M386 -164h-257q-19 0 -19 19v123q0 19 19 19h80q8 0 8 8v644q0 8 -8 8h-80q-19 0 -19 19v123q0 19 19 19h257q19 0 19 -19v-944q0 -19 -19 -19z" />
    <glyph glyph-name="asciicircum" unicode="^" horiz-adv-x="488" 
d="M29 305q0 5 1 8l130 372q5 15 21 15h123q16 0 21 -15l133 -372q2 -6 2 -9q0 -13 -17 -13h-119q-17 0 -22 16l-53 189q-1 5 -4.5 5t-5.5 -5l-53 -189q-5 -16 -22 -16h-119q-16 0 -16 14z" />
    <glyph glyph-name="underscore" unicode="_" horiz-adv-x="549" 
d="M12 19v102q0 19 19 19h487q19 0 19 -19v-102q0 -19 -19 -19h-487q-19 0 -19 19z" />
    <glyph glyph-name="grave" unicode="`" horiz-adv-x="274" 
d="M253 583q0 -5 -4.5 -8.5t-12.5 -3.5h-119q-14 0 -23 12l-65 86q-4 5 -4 11q0 12 16 12h142q15 0 22 -14l45 -84q3 -6 3 -11z" />
    <glyph glyph-name="a" unicode="a" horiz-adv-x="540" 
d="M384 505q57 -23 90 -63t33 -87v-336q0 -19 -19 -19h-150q-19 0 -19 19v18q0 5 -2.5 6t-6.5 -3q-17 -25 -47 -36.5t-75 -11.5q-82 0 -129 37.5t-47 109.5q0 76 53.5 117t155.5 41h90q8 0 8 8v15q0 21 -15.5 34t-41.5 13q-17 0 -30.5 -5.5t-19.5 -14.5q-6 -8 -10 -11
t-12 -2l-154 20q-18 2 -17 15q4 45 36.5 81t85.5 57t118 21q68 0 125 -23zM298.5 139q20.5 17 20.5 46v10q0 8 -8 8h-47q-63 0 -63 -41q0 -18 11.5 -29t33.5 -11q32 0 52.5 17z" />
    <glyph glyph-name="b" unicode="b" horiz-adv-x="567" 
d="M557 262q0 -62 -15 -112q-22 -73 -75.5 -115.5t-120.5 -42.5q-74 0 -113 50q-3 5 -6 4t-3 -6v-21q0 -19 -19 -19h-150q-19 0 -19 19v662q0 19 19 19h150q19 0 19 -19v-191q0 -5 2.5 -6.5t6.5 2.5q34 42 105 42t122 -38.5t75 -99.5q22 -56 22 -128zM360 259q0 47 -15 75
q-17 33 -53 33q-34 0 -52 -31q-16 -29 -16 -77q0 -44 15 -72q18 -34 53 -34t53 33q15 29 15 73z" />
    <glyph glyph-name="c" unicode="c" horiz-adv-x="549" 
d="M134 33.5q-63 41.5 -92 115.5q-20 51 -20 114q0 62 20 113q28 71 92 111.5t148 40.5q85 0 150.5 -42.5t88.5 -106.5q8 -21 9 -34v-2q0 -16 -17 -19l-147 -23q-1 0 -2.5 -0.5t-3.5 0.5q-13 0 -15 12l-4 14q-5 17 -21.5 28.5t-38.5 11.5q-40 0 -57 -36q-12 -25 -12 -69
q0 -41 11 -69q17 -40 58 -40q42 0 58 41l1.5 4.5l0.5 1.5v0q1 5 7.5 11t14.5 5l148 -24q19 -3 16 -21q-2 -14 -6 -27q-26 -73 -90.5 -112.5t-148.5 -39.5q-85 0 -148 41.5z" />
    <glyph glyph-name="d" unicode="d" horiz-adv-x="567" 
d="M362 700h150q19 0 19 -19v-662q0 -19 -19 -19h-150q-19 0 -19 19v21q0 5 -3 6t-6 -4q-39 -50 -113 -50q-67 0 -120.5 42.5t-75.5 115.5q-15 50 -15 112q0 72 22 128q24 61 75 99.5t122 38.5t105 -42q4 -4 6.5 -2.5t2.5 6.5v191q0 19 19 19zM343 259q0 48 -16 77
q-18 31 -52 31q-36 0 -53 -33q-15 -28 -15 -75q0 -44 15 -73q18 -33 53 -33t53 34q15 29 15 72z" />
    <glyph glyph-name="e" unicode="e" horiz-adv-x="556" 
d="M363 158.5q26 7.5 43 20.5q8 6 13 6q7 0 13 -8l68 -94q5 -8 5 -12q0 -7 -7 -14q-36 -33 -87.5 -49t-110.5 -16q-75 0 -132.5 26.5t-93.5 75.5q-50 70 -50 170q0 43 11 84q23 81 90.5 130.5t156.5 49.5q103 0 167 -66.5t84 -181.5q5 -24 6 -48q0 -19 -19 -19h-297
q-8 0 -7 -9l5 -13q19 -40 86 -40q30 0 56 7.5zM221 327l-3 -8l-1 -3q0 -6 8 -6h108q8 0 8 6q0 3 -1.5 6l-2.5 5q-17 40 -59 40q-41 0 -57 -40z" />
    <glyph glyph-name="f" unicode="f" horiz-adv-x="407" 
d="M387 501v-112q0 -19 -19 -19h-81q-8 0 -8 -8v-343q0 -19 -19 -19h-150q-19 0 -19 19v343q0 8 -8 8h-44q-19 0 -19 19v112q0 19 19 19h44q8 0 8 8v28q0 77 43.5 111t143.5 34q25 0 38 -1h38q19 0 19 -19v-87q0 -19 -19 -19h-38q-20 -2 -28.5 -10.5t-8.5 -25.5v-11
q0 -8 8 -8h81q19 0 19 -19z" />
    <glyph glyph-name="g" unicode="g" horiz-adv-x="569" 
d="M367 520h150q19 0 19 -19v-433q0 -143 -82.5 -203.5t-207.5 -60.5q-44 0 -102 9q-8 1 -12.5 7t-3.5 14l6 127q1 16 14 16q5 0 8 -1q39 -9 75 -9q45 0 75 17t39 53v2q0 4 -4.5 6t-8.5 -1q-34 -26 -90 -26q-160 0 -204 130q-17 50 -17 117q0 74 21 126q24 63 75.5 100
t118.5 37t103 -38q4 -4 6.5 -3t2.5 6v8q0 19 19 19zM348 266q0 40 -11 65q-17 36 -57 36q-35 0 -53 -35q-16 -28 -16 -69q0 -40 13 -65q18 -35 58 -35t56 34q10 26 10 69z" />
    <glyph glyph-name="h" unicode="h" 
d="M435 506q40 -22 63.5 -64.5t23.5 -100.5v-322q0 -19 -19 -19h-150q-19 0 -19 19v281q0 30 -15.5 48.5t-40.5 18.5q-26 0 -41.5 -18.5t-15.5 -48.5v-281q0 -19 -19 -19h-150q-19 0 -19 19v662q0 19 19 19h150q19 0 19 -19v-206q0 -5 2.5 -6.5t5.5 2.5q38 57 116 57
q50 0 90 -22z" />
    <glyph glyph-name="i" unicode="i" horiz-adv-x="270" 
d="M57 570q-30 29 -30 76t30 76t78 29q49 0 78.5 -29t29.5 -76t-29.5 -76t-78.5 -29q-48 0 -78 29zM41 19v482q0 19 19 19h150q19 0 19 -19v-482q0 -19 -19 -19h-150q-19 0 -19 19z" />
    <glyph glyph-name="j" unicode="j" horiz-adv-x="264" 
d="M59 566.5q-30 30.5 -30 74.5q0 43 32.5 74t75.5 31q27 0 52 -14t40.5 -38.5t15.5 -52.5q0 -44 -30.5 -74.5t-77.5 -30.5q-48 0 -78 30.5zM-76 -182v118q0 19 21 19q8 -1 23 -1q44 0 59.5 15.5t15.5 56.5v475q0 19 19 19h150q19 0 19 -19v-472q0 -96 -24.5 -145.5
t-85 -68.5t-178.5 -17q-19 2 -19 20z" />
    <glyph glyph-name="k" unicode="k" horiz-adv-x="555" 
d="M33 19v662q0 19 19 19h150q19 0 19 -19v-277q0 -5 3.5 -6t6.5 3l79 107q9 12 23 12h171q16 0 16 -11q0 -7 -4 -12l-123 -167q-4 -6 -1 -11l144 -297q2 -3 2 -9q0 -13 -16 -13h-157q-16 0 -22 15l-78 185q-2 5 -5.5 5t-5.5 -4l-30 -50q-3 -6 -3 -10v-122q0 -19 -19 -19
h-150q-19 0 -19 19z" />
    <glyph glyph-name="l" unicode="l" horiz-adv-x="260" 
d="M36 19v662q0 19 19 19h150q19 0 19 -19v-662q0 -19 -19 -19h-150q-19 0 -19 19z" />
    <glyph glyph-name="m" unicode="m" horiz-adv-x="845" 
d="M771 479q44 -49 44 -138v-322q0 -19 -19 -19h-150q-19 0 -19 19v281q0 30 -14.5 48.5t-37.5 18.5q-24 0 -39 -18.5t-15 -48.5v-281q0 -19 -19 -19h-150q-19 0 -19 19v281q0 30 -15.5 48.5t-40.5 18.5q-21 0 -35.5 -13t-19.5 -35q-1 -4 -1 -10v-290q0 -19 -19 -19h-150
q-19 0 -19 19v482q0 19 19 19h150q19 0 19 -19v-39q0 -6 3 -6.5t6 4.5q38 68 125 68q50 0 88 -22.5t58 -64.5q2 -5 5 -4.5t5 5.5q39 86 137 86q79 0 123 -49z" />
    <glyph glyph-name="n" unicode="n" 
d="M435 506q40 -22 63.5 -64.5t23.5 -100.5v-322q0 -19 -19 -19h-150q-19 0 -19 19v281q0 30 -15.5 48.5t-40.5 18.5q-26 0 -41.5 -18.5t-15.5 -48.5v-281q0 -19 -19 -19h-150q-19 0 -19 19v482q0 19 19 19h150q19 0 19 -19v-26q0 -5 2.5 -6.5t5.5 2.5q38 57 116 57
q50 0 90 -22z" />
    <glyph glyph-name="o" unicode="o" horiz-adv-x="558" 
d="M118.5 43q-65.5 51 -86.5 138q-10 36 -10 80q0 49 12 89q24 83 88.5 130.5t157.5 47.5t156.5 -47.5t87.5 -128.5q12 -42 12 -89q0 -38 -8 -76q-21 -90 -86.5 -142.5t-162.5 -52.5q-95 0 -160.5 51zM321 170.5q16 17.5 22 46.5q4 19 4 45q0 23 -5 46q-15 59 -63 59
q-50 0 -63 -59q-5 -17 -5 -46q0 -26 4 -45q15 -64 64 -64q26 0 42 17.5z" />
    <glyph glyph-name="p" unicode="p" horiz-adv-x="567" 
d="M557 258q0 -72 -22 -128q-24 -61 -75 -99.5t-122 -38.5t-105 42q-4 4 -6.5 2.5t-2.5 -6.5v-191q0 -19 -19 -19h-150q-19 0 -19 19v662q0 19 19 19h150q19 0 19 -19v-21q0 -5 3 -6t6 4q39 50 113 50q67 0 120.5 -42.5t75.5 -115.5q15 -50 15 -112zM360 261q0 45 -15 73
q-18 33 -53 33t-53 -34q-15 -28 -15 -72q0 -48 16 -77q18 -31 52 -31q36 0 53 33q15 29 15 75z" />
    <glyph glyph-name="q" unicode="q" horiz-adv-x="567" 
d="M362 520h150q19 0 19 -19v-662q0 -19 -19 -19h-150q-19 0 -19 19v191q0 5 -2.5 6.5t-6.5 -2.5q-34 -42 -105 -42t-122 38.5t-75 99.5q-22 56 -22 128q0 62 15 112q22 73 75.5 115.5t120.5 42.5q74 0 113 -50q3 -5 6 -4t3 6v21q0 19 19 19zM343 261q0 44 -15 72
q-18 34 -53 34t-53 -33q-15 -28 -15 -73q0 -46 15 -75q17 -33 53 -33q34 0 52 31q16 29 16 77z" />
    <glyph glyph-name="r" unicode="r" horiz-adv-x="396" 
d="M376 516q13 -7 10 -24l-24 -147q-3 -17 -22 -13q-11 3 -27 3q-14 0 -29 -3q-26 -5 -44.5 -21.5t-18.5 -44.5v-247q0 -19 -19 -19h-150q-19 0 -19 19v482q0 19 19 19h150q19 0 19 -19v-14q0 -5 2.5 -7t5.5 2q37 45 96 45q31 0 51 -11z" />
    <glyph glyph-name="s" unicode="s" horiz-adv-x="518" 
d="M87.5 36q-65.5 44 -65.5 117v5q0 19 19 19h142q19 0 19 -5v-6q0 -16 17.5 -26t45.5 -10q22 0 35.5 6.5t13.5 18.5q0 14 -16 19.5t-57 12.5q-38 5 -68 12t-58 21q-86 42 -86 132q0 81 63 128.5t166 47.5q70 0 122.5 -22.5t81.5 -63.5t29 -95q0 -11 -19 -11h-137
q-9 0 -14 2t-5 4v5q0 17 -15 26.5t-40 9.5q-23 0 -37.5 -7.5t-14.5 -20.5q0 -16 19 -22t61 -12q5 -1 38.5 -6t64.5 -16q54 -19 82.5 -52.5t28.5 -87.5q0 -82 -64 -124.5t-173 -42.5q-113 0 -178.5 44z" />
    <glyph glyph-name="t" unicode="t" horiz-adv-x="391" 
d="M354 370h-76q-8 0 -8 -8v-148q0 -50 36 -50h33q19 0 19 -19v-121q0 -17 -18 -19q-39 -3 -72 -3q-91 0 -134 28t-44 106v226q0 8 -8 8h-47q-19 0 -19 19v112q0 19 19 19h47q8 0 8 8v113q0 19 19 19h142q19 0 19 -19v-113q0 -8 8 -8h76q19 0 19 -19v-112q0 -19 -19 -19z
" />
    <glyph glyph-name="u" unicode="u" 
d="M350 520h150q19 0 19 -19v-482q0 -19 -19 -19h-150q-19 0 -19 19v24q0 5 -3 6t-6 -3q-40 -54 -125 -54q-76 0 -121 49.5t-45 137.5v322q0 19 19 19h150q19 0 19 -19v-281q0 -30 15.5 -48.5t40.5 -18.5q21 0 35.5 13t19.5 35q1 4 1 10v290q0 19 19 19z" />
    <glyph glyph-name="v" unicode="v" horiz-adv-x="550" 
d="M169 16l-150 482q-1 3 -1 7q0 15 17 15h164q18 0 21 -17l50 -236q2 -5 5.5 -5t4.5 5l50 236q3 17 21 17l165 -2q21 0 15 -21l-149 -481q-5 -16 -22 -16h-169q-17 0 -22 16z" />
    <glyph glyph-name="w" unicode="w" horiz-adv-x="825" 
d="M160 16l-142 483q-1 3 -1 7q0 14 17 14h155q17 0 20 -17l47 -230q2 -5 5.5 -5t4.5 5l51 229q3 17 21 17h136q17 0 21 -17l55 -231q2 -5 5.5 -5t4.5 5l55 232q4 17 21 17l155 -2q10 0 14.5 -5.5t1.5 -15.5l-145 -481q-5 -16 -22 -16h-156q-16 0 -21 16l-53 188
q-1 5 -4 4.5t-5 -5.5l-42 -186q-3 -17 -21 -17h-156q-17 0 -22 16z" />
    <glyph glyph-name="x" unicode="x" horiz-adv-x="578" 
d="M24.5 3.5q-4.5 3.5 -4.5 8.5q0 6 4 11l151 231q3 6 0 12l-151 231q-4 5 -4 11q0 5 4.5 8.5t11.5 3.5h160q16 0 23 -13l58 -95q2 -4 6 -4t6 4l58 95q7 13 23 13h172q7 0 11.5 -3.5t4.5 -8.5q0 -6 -4 -11l-151 -231q-3 -6 0 -12l151 -231q4 -5 4 -11q0 -5 -4.5 -8.5
t-11.5 -3.5h-160q-16 0 -23 13l-58 95q-2 5 -6 5t-6 -5l-58 -95q-7 -13 -23 -13h-172q-7 0 -11.5 3.5z" />
    <glyph glyph-name="y" unicode="y" horiz-adv-x="534" 
d="M37 -180v116q0 9 2 14t4 5h5q65 0 92.5 7.5t31.5 32.5q1 4 -1 10l-155 493q-1 3 -1 7q0 15 17 15h160q18 0 21 -17l50 -229q1 -5 4.5 -4.5t5.5 5.5l47 228q3 17 21 17h161q10 0 14.5 -6t1.5 -16l-162 -500q-26 -77 -55 -117t-86.5 -60t-163.5 -20h-7q-7 0 -7 19z" />
    <glyph glyph-name="z" unicode="z" horiz-adv-x="470" 
d="M18 19v137q0 13 10 23l179 161q3 3 3 5q0 5 -7 5h-159q-19 0 -19 19v132q0 19 19 19h378q19 0 19 -19v-137q0 -13 -11 -23l-187 -161q-3 -3 -3 -5q0 -5 7 -5h183q19 0 19 -19v-132q0 -19 -19 -19h-393q-19 0 -19 19z" />
    <glyph glyph-name="braceleft" unicode="{" horiz-adv-x="425" 
d="M154.5 -130q-38.5 34 -38.5 96v200q0 41 -15 63t-47 26q-18 2 -18 19v110q0 18 18 19q32 4 47 25.5t15 62.5v197q0 62 38.5 96t111.5 34h104q19 0 19 -19v-123q0 -19 -16 -19h-17q-22 0 -37 -16t-15 -40v-139q0 -50 -15 -81t-47 -47q-4 -2 -4 -5t4 -5q32 -16 47 -47
t15 -82v-142q0 -24 15 -40t37 -16h14q19 0 19 -19v-123q0 -19 -19 -19h-104q-73 0 -111.5 34z" />
    <glyph glyph-name="bar" unicode="|" horiz-adv-x="228" 
d="M20 -61v802q0 19 19 19h150q19 0 19 -19v-802q0 -19 -19 -19h-150q-19 0 -19 19z" />
    <glyph glyph-name="braceright" unicode="}" horiz-adv-x="425" 
d="M55 -164q-19 0 -19 19v123q0 9 4.5 14t12.5 5h16q22 0 37 16t15 40v142q0 51 15 82t47 47q5 2 5 5t-5 4q-32 16 -47 47.5t-15 81.5v139q0 24 -15 40t-37 16h-14q-19 0 -19 19v123q0 19 19 19h104q73 0 111.5 -34t38.5 -96v-197q0 -41 15 -62.5t47 -25.5q18 -1 18 -19
v-110q0 -17 -18 -19q-32 -4 -47 -26t-15 -63v-200q0 -62 -38.5 -96t-111.5 -34h-104z" />
    <glyph glyph-name="asciitilde" unicode="~" horiz-adv-x="557" 
d="M285 203q-29 16 -47 24.5t-39 8.5q-32 0 -55 -29q-8 -8 -15 -8t-12 4l-81 56q-11 8 -11 16q0 3 2 9q19 49 65.5 81t99.5 32q24 0 43 -6.5t40 -18.5q7 -4 22.5 -13t28 -13.5t23.5 -4.5q28 0 50 28q7 10 15 10q6 0 11 -4l96 -61q10 -7 10 -17q0 -3 -2 -9q-20 -48 -67 -78
t-98 -30q-39 0 -79 23z" />
    <glyph glyph-name="uni00A0" unicode="&#xa0;" horiz-adv-x="200" 
 />
    <glyph glyph-name="exclamdown" unicode="&#xa1;" horiz-adv-x="362" 
d="M259 677.5q32 -30.5 32 -74.5q0 -28 -16 -52t-42 -38t-54 -14t-53.5 14t-41.5 38t-16 52q0 44 31.5 74.5t79.5 30.5t80 -30.5zM110.5 455q5.5 5 14.5 5h111q19 0 20 -19l18 -414v-2q0 -17 -18 -17h-150q-9 0 -14 5t-4 14l17 414q0 9 5.5 14z" />
    <glyph glyph-name="cent" unicode="&#xa2;" horiz-adv-x="549" 
d="M224 421q-12 -25 -12 -69q0 -41 11 -69q17 -40 58 -40q42 0 58 41l1.5 4.5l0.5 1.5v0q1 5 7.5 11t14.5 5l148 -24q19 -3 16 -21q-2 -14 -6 -27q-19 -55 -62 -91.5t-102 -51.5q-7 -1 -7 -9l4 -60v-2q0 -8 -5.5 -13t-13.5 -5h-117q-9 0 -14.5 5.5t-4.5 14.5l4 63q0 8 -7 9
q-53 17 -93 54t-61 91q-20 51 -20 114q0 62 20 113t60 87t94 53q7 1 7 9l-4 63v2q0 8 5.5 13t13.5 5h117q9 0 14.5 -5.5t4.5 -14.5l-4 -61q0 -8 7 -9q60 -16 103 -53t61 -86q8 -21 9 -34v-2q0 -16 -17 -19l-147 -23q-1 0 -2.5 -0.5t-3.5 0.5q-13 0 -15 12l-4 14
q-5 17 -21.5 28.5t-38.5 11.5q-40 0 -57 -36z" />
    <glyph glyph-name="sterling" unicode="&#xa3;" horiz-adv-x="617" 
d="M298.5 202q-7.5 -17 -21.5 -31l-2 -5q0 -5 7 -5h289q19 0 19 -19v-123q0 -19 -19 -19h-480q-19 0 -19 19v127q0 14 12 24q20 15 27 31.5t7 43.5v20q0 8 -8 8h-52q-19 0 -19 19v113q0 19 19 19h52q8 0 8 8v43q0 111 66 172t176 61q89 0 147 -45t86 -123q1 -3 1 -7
q0 -13 -15 -16l-139 -24h-5q-12 0 -18 14q-10 23 -23.5 31.5t-31.5 8.5q-56 0 -56 -68v-47q0 -8 8 -8h168q19 0 19 -19v-113q0 -19 -19 -19h-168q-8 0 -8 -8v-20q0 -26 -7.5 -43z" />
    <glyph glyph-name="currency" unicode="&#xa4;" horiz-adv-x="610" 
d="M518 211q-3 -6 2 -11l61 -61q7 -7 7 -13t-8 -14l-91 -80q-6 -6 -13 -6t-14 7l-56 55q-5 5 -11 2q-46 -19 -93 -19t-90 17q-6 3 -11 -2l-53 -53q-7 -7 -14 -7t-13 6l-91 80q-8 8 -8 14t7 13l57 56q5 5 2 11q-22 47 -22 99q0 49 20 94q3 6 -2 11l-61 60q-7 7 -7 13t8 14
l91 80q6 6 13 6t14 -7l54 -54q5 -5 11 -2q46 19 95 19q50 0 98 -21q6 -3 11 2l57 56q7 7 14 7t13 -6l91 -80q8 -8 8 -14t-7 -13l-65 -65q-5 -5 -2 -11q17 -42 17 -89q0 -48 -19 -94zM354.5 358.5q-22.5 22.5 -52.5 22.5q-31 0 -53.5 -22.5t-22.5 -53.5t22.5 -53.5
t53.5 -22.5t53 22.5t23 53.5q-1 31 -23.5 53.5z" />
    <glyph glyph-name="yen" unicode="&#xa5;" horiz-adv-x="684" 
d="M646 687q0 -3 -2 -9l-159 -338l-1 -4q0 -5 7 -5h64q19 0 19 -19v-63q0 -19 -19 -19h-108q-8 0 -8 -8v-24q0 -8 8 -8h108q19 0 19 -19v-63q0 -19 -19 -19h-108q-8 0 -8 -8v-60q0 -19 -19 -19h-149q-19 0 -19 19v60q0 8 -8 8h-107q-19 0 -19 19v63q0 19 19 19h107q8 0 8 8
v24q0 8 -8 8h-107q-19 0 -19 19v63q0 19 19 19h63q4 0 6 2.5t0 6.5l-157 338q-2 6 -2 9q0 13 17 13h163q17 0 22 -15l92 -231q2 -4 5 -4t5 4l92 231q5 15 22 15h164q17 0 17 -13z" />
    <glyph glyph-name="brokenbar" unicode="&#xa6;" horiz-adv-x="228" 
d="M20 424v317q0 19 19 19h150q19 0 19 -19v-317q0 -19 -19 -19h-150q-19 0 -19 19zM20 -61v317q0 19 19 19h150q19 0 19 -19v-317q0 -19 -19 -19h-150q-19 0 -19 19z" />
    <glyph glyph-name="section" unicode="&#xa7;" horiz-adv-x="523" 
d="M93 -161.5q-58 46.5 -62 125.5l-2 41v2q0 17 18 17h150q19 0 19 -14v-14q0 -20 12.5 -32t34.5 -12q19 0 31.5 9.5t12.5 25.5q0 17 -18.5 28.5t-73.5 33.5l-29 12q-53 22 -82.5 40.5t-49.5 45.5q-28 39 -28 92q0 57 31 100q16 23 49 41q4 2 4.5 5t-3.5 5q-80 50 -80 136
q0 50 30.5 91.5t84 66t120.5 24.5q65 0 117.5 -23t82 -65.5t29.5 -96.5v-22q0 -19 -19 -19h-150q-19 0 -19 10v10q0 21 -12.5 33t-32.5 12q-18 0 -30.5 -9t-12.5 -27t13.5 -30t28.5 -17.5t59 -20.5q45 -15 77.5 -30t55.5 -37q47 -44 47 -115q0 -24 -7.5 -48.5t-21.5 -44.5
q-25 -39 -55 -50q-9 -3 -1 -9q44 -29 64 -62t20 -77q0 -56 -32 -96t-86.5 -61t-122.5 -21q-103 0 -161 46.5zM299 226q9 9 9 25q0 13 -7 23q-13 16 -40 16t-39 -15q-8 -10 -8 -24q0 -16 10 -26q13 -13 37 -13q26 0 38 14z" />
    <glyph glyph-name="dieresis" unicode="&#xa8;" horiz-adv-x="404" 
d="M36.5 575q-24.5 24 -24.5 63t24.5 63t62.5 24t61.5 -24t23.5 -63t-23.5 -63t-61.5 -24t-62.5 24zM243.5 575q-23.5 24 -23.5 63t23.5 63t62.5 24t62.5 -24t23.5 -63t-23.5 -63t-62.5 -24t-62.5 24z" />
    <glyph glyph-name="copyright" unicode="&#xa9;" horiz-adv-x="782" 
d="M205.5 39q-82.5 47 -129 130t-46.5 187q0 99 47 179.5t129 126.5t184 46q103 0 185.5 -46t129.5 -126.5t47 -179.5q0 -105 -47 -187.5t-129.5 -129.5t-185.5 -47q-102 0 -184.5 47zM523.5 125.5q59.5 33.5 93 94t33.5 136.5q0 71 -33.5 128.5t-93 90.5t-133.5 33
q-73 0 -132 -33t-92.5 -90.5t-33.5 -128.5q0 -76 33.5 -136.5t92 -94t132.5 -33.5t133.5 33.5zM297.5 210.5q-36.5 33.5 -36.5 88.5v107q0 56 36 88.5t96 32.5t95.5 -30.5t35.5 -82.5q0 -4 -19 -6l-58 -2h-9q-10 0 -10 2v3q0 16 -9.5 26t-25.5 10t-25.5 -10t-9.5 -26v-118
q0 -16 9.5 -25.5t25.5 -9.5t25.5 9.5t9.5 25.5q0 3 5 5t14 1l58 -2q19 0 19 -4v-3q0 -52 -36 -82.5t-95 -30.5t-95.5 33.5z" />
    <glyph glyph-name="ordfeminine" unicode="&#xaa;" horiz-adv-x="334" 
d="M203 569q8 0 8 4v4q0 21 -15 33.5t-37 12.5q-15 0 -27 -5.5t-18 -13.5q-5 -9 -9 -12.5t-12 -2.5l-61 5q-9 1 -14 6t-4 14q7 41 47 67.5t96 26.5q42 0 76.5 -15.5t55 -41.5t20.5 -57v-214q0 -19 -19 -19h-60q-19 0 -19 11q0 4 -2.5 5t-6.5 -2q-28 -20 -75 -20
q-57 0 -88.5 26.5t-31.5 72.5q0 53 38.5 84t103.5 31h54zM193 448.5q18 16.5 18 33.5v6q0 8 -8 8h-38q-29 0 -44 -7.5t-15 -25.5q0 -31 40 -31q29 0 47 16.5zM25 310h273q19 0 19 -19v-42q0 -19 -19 -19h-273q-19 0 -19 19v42q0 19 19 19z" />
    <glyph glyph-name="guillemotleft" unicode="&#xab;" horiz-adv-x="488" 
d="M268 120q0 -13 -16 -13h-113q-17 0 -23 14l-71 147q-3 8 -3 13q0 7 3 13l71 147q6 14 23 14h113q16 0 16 -13q0 -6 -2 -9l-73 -147q-3 -5 0 -10l73 -147q2 -3 2 -9zM449 120q0 -13 -16 -13h-113q-17 0 -23 14l-71 147q-3 8 -3 13q0 7 3 13l71 147q6 14 23 14h113
q16 0 16 -13q0 -6 -2 -9l-73 -147q-3 -5 0 -10l73 -147q2 -3 2 -9z" />
    <glyph glyph-name="logicalnot" unicode="&#xac;" horiz-adv-x="476" 
d="M41 372h394q19 0 19 -19v-229q0 -19 -19 -19h-122q-19 0 -19 19v80q0 8 -8 8h-245q-19 0 -19 19v122q0 19 19 19z" />
    <glyph glyph-name="uni00AD" unicode="&#xad;" horiz-adv-x="419" 
d="M22 224v122q0 19 19 19h337q19 0 19 -19v-122q0 -19 -19 -19h-337q-19 0 -19 19z" />
    <glyph glyph-name="registered" unicode="&#xae;" horiz-adv-x="440" 
d="M326.5 682q47.5 -26 74.5 -72t27 -103q0 -61 -27 -109t-74.5 -75t-106.5 -27t-106.5 27t-74.5 75t-27 109q0 57 27 103t74.5 72t106.5 26t106.5 -26zM319.5 404q39.5 40 39.5 103q0 57 -39.5 95t-99.5 38t-99 -38t-39 -95q0 -63 39 -103t99 -40t99.5 40zM275 491
q-6 -4 -4 -11l16 -47q1 -3 1 -8q0 -14 -17 -14h-20q-17 0 -22 16l-12 44q-2 7 -3 7q-2 0 -2 -8v-40q0 -19 -19 -19h-19q-19 0 -19 19v150q0 19 19 19h59q28 0 45.5 -17.5t17.5 -44.5q0 -31 -21 -46zM220 551q-8 0 -8 -8v-15q0 -8 6 -8h6q6 0 10.5 5t4.5 11q0 7 -4 11t-11 4
h-4z" />
    <glyph glyph-name="macron" unicode="&#xaf;" horiz-adv-x="311" 
d="M0 586v87q0 19 19 19h273q19 0 19 -19v-87q0 -19 -19 -19h-273q-19 0 -19 19z" />
    <glyph glyph-name="degree" unicode="&#xb0;" horiz-adv-x="373" 
d="M98 483.5q-40 23.5 -63 63.5t-23 88t23 87.5t63 62.5t88 23q49 0 89 -23t63 -62.5t23 -87.5t-23 -88.5t-63 -63.5t-89 -23q-48 0 -88 23.5zM224.5 596.5q15.5 15.5 15.5 38.5q0 24 -15.5 39.5t-38.5 15.5q-22 0 -38 -15.5t-16 -39.5q0 -23 16 -38.5t38 -15.5
q23 0 38.5 15.5z" />
    <glyph glyph-name="plusminus" unicode="&#xb1;" horiz-adv-x="476" 
d="M454 486v-122q0 -19 -19 -19h-109q-8 0 -8 -8v-109q0 -19 -19 -19h-122q-19 0 -19 19v109q0 8 -8 8h-109q-19 0 -19 19v122q0 19 19 19h109q8 0 8 8v109q0 19 19 19h122q19 0 19 -19v-109q0 -8 8 -8h109q19 0 19 -19zM22 19v122q0 19 19 19h394q19 0 19 -19v-122
q0 -19 -19 -19h-394q-19 0 -19 19z" />
    <glyph glyph-name="uni00B2" unicode="&#xb2;" horiz-adv-x="355" 
d="M28 418v67q0 15 11 23q43 37 122 112q54 51 54 73q0 13 -9.5 21.5t-25.5 8.5t-26.5 -9t-10.5 -23v-1q0 -19 -19 -19h-81q-19 0 -19 19v20q4 52 48 83t108 31q47 0 82 -17.5t53.5 -47t18.5 -64.5q0 -24 -11.5 -47.5t-33.5 -49.5q-28 -31 -93 -88q-3 -3 -3 -5q0 -5 7 -5
h119q19 0 19 -19v-63q0 -19 -19 -19h-272q-19 0 -19 19z" />
    <glyph glyph-name="uni00B3" unicode="&#xb3;" horiz-adv-x="325" 
d="M316 541q0 -33 -12 -62q-17 -39 -54.5 -62.5t-86.5 -23.5t-87 23.5t-56 64.5q-8 16 -11 42v2q0 9 5 13.5t14 4.5h81q16 0 20 -18q4 -12 7 -17q9 -14 27 -14q17 0 26 14q9 15 9 36q0 23 -9 38t-27 15q-13 0 -26 -8q-8 -4 -12 -4q-9 0 -15 8l-37 46q-5 7 -5 13q0 8 9 14
l69 41q4 3 4 6q0 4 -7 4h-102q-19 0 -19 19v63q0 19 19 19h251q19 0 19 -19v-67q0 -14 -12 -23l-55 -39q-3 -3 -3 -5q0 -3 6 -6q39 -14 59 -58q11 -25 11 -60z" />
    <glyph glyph-name="acute" unicode="&#xb4;" horiz-adv-x="274" 
d="M25.5 574.5q-4.5 3.5 -4.5 8.5t3 11l45 84q7 14 22 14h142q16 0 16 -12q0 -6 -4 -11l-65 -86q-9 -12 -23 -12h-119q-8 0 -12.5 3.5z" />
    <glyph glyph-name="uni00B5" unicode="&#xb5;" horiz-adv-x="555" 
d="M353 520h150q19 0 19 -19v-482q0 -19 -19 -19h-150q-19 0 -19 19v24q0 5 -3 6t-6 -3q-36 -45 -96 -52q-8 -2 -8 -9v-166q0 -19 -19 -19h-150q-19 0 -19 19v682q0 19 19 19h151q19 0 19 -19v-281q0 -30 15.5 -48.5t40.5 -18.5q21 0 35.5 13t19.5 35q1 4 1 10v290
q0 19 19 19z" />
    <glyph glyph-name="paragraph" unicode="&#xb6;" horiz-adv-x="657" 
d="M608 700q19 0 19 -19v-862q0 -19 -19 -19h-98q-19 0 -19 19v742q0 8 -8 8h-72q-8 0 -8 -8v-742q0 -19 -19 -19h-98q-19 0 -19 19v424q0 7 -8 9q-110 8 -175.5 68t-65.5 155q0 67 31.5 118t92 79t144.5 28h322z" />
    <glyph glyph-name="periodcentered" unicode="&#xb7;" horiz-adv-x="223" 
d="M31.5 22.5q-31.5 30.5 -31.5 74.5q0 28 16 52t41.5 38t53.5 14t54 -14t42 -38t16 -52q0 -44 -32 -74.5t-80 -30.5t-79.5 30.5z" />
    <glyph glyph-name="cedilla" unicode="&#xb8;" horiz-adv-x="189" 
d="M2 -162l7 58q1 13 12 13q3 0 11 -2q4 -1 11 -1q11 0 18 5.5t7 16.5q0 21 -36 50q-9 7 -9 14q0 8 15 8h75q14 0 23 -9q53 -45 53 -96q0 -14 -4 -26q-10 -36 -37 -51.5t-63 -15.5q-38 0 -71 13q-14 5 -12 23z" />
    <glyph glyph-name="uni00B9" unicode="&#xb9;" horiz-adv-x="200" 
d="M73 819h87q19 0 19 -19v-382q0 -19 -19 -19h-80q-19 0 -19 19v292q0 8 -8 8l-12 1q-19 0 -19 19v49q0 16 15 22l13 5q11 5 23 5z" />
    <glyph glyph-name="ordmasculine" unicode="&#xba;" horiz-adv-x="353" 
d="M84.5 382.5q-40.5 26.5 -59.5 75.5q-14 36 -14 75q0 17 3.5 39t9.5 37q18 48 59 73.5t96 25.5q50 0 89.5 -25t58.5 -73q7 -17 11 -37.5t4 -37.5q0 -18 -4 -39.5t-11 -37.5q-21 -49 -60 -75.5t-89 -26.5q-53 0 -93.5 26.5zM213 484q9 19 9 49q0 31 -8 47q-14 28 -38 28
q-22 0 -37 -28q-8 -15 -8 -47t8 -49q12 -27 39 -27q22 0 35 27zM25 249v42q0 19 19 19h273q19 0 19 -19v-42q0 -19 -19 -19h-273q-19 0 -19 19z" />
    <glyph glyph-name="guillemotright" unicode="&#xbb;" horiz-adv-x="488" 
d="M48 120q0 6 2 9l73 147q3 5 0 10l-73 147q-2 3 -2 9q0 13 16 13h113q17 0 23 -14l71 -147q3 -6 3 -13q0 -5 -3 -13l-71 -147q-6 -14 -23 -14h-113q-16 0 -16 13zM229 120q0 6 2 9l73 147q3 5 0 10l-73 147q-2 3 -2 9q0 13 16 13h113q17 0 23 -14l71 -147q3 -6 3 -13
q0 -5 -3 -13l-71 -147q-6 -14 -23 -14h-113q-16 0 -16 13z" />
    <glyph glyph-name="onequarter" unicode="&#xbc;" horiz-adv-x="840" 
d="M73 700h87q19 0 19 -19v-382q0 -19 -19 -19h-80q-19 0 -19 19v292q0 8 -8 8l-12 1q-19 0 -19 19v49q0 16 15 22l13 5q11 5 23 5zM107 12q0 5 3 11l370 664q7 13 22 13h91q16 0 16 -12q0 -5 -3 -11l-369 -664q-7 -13 -22 -13h-92q-16 0 -16 12zM813 201q5 -5 5 -14v-69
q0 -9 -5 -14t-13 -5h-10q-8 0 -8 -8v-72q0 -19 -19 -19h-80q-19 0 -19 19v72q0 8 -8 8h-174q-19 0 -19 19v54q0 10 5 23l91 210q6 15 22 15h84q17 0 17 -14l-2 -8l-77 -183l-1 -4q0 -5 7 -5h47q8 0 8 8v42q0 19 19 19h80q19 0 19 -19v-42q0 -8 8 -8h10q8 0 13 -5z" />
    <glyph glyph-name="onehalf" unicode="&#xbd;" horiz-adv-x="806" 
d="M73 700h87q19 0 19 -19v-382q0 -19 -19 -19h-80q-19 0 -19 19v292q0 8 -8 8l-12 1q-19 0 -19 19v49q0 16 15 22l13 5q11 5 23 5zM107 12q0 5 3 11l370 664q7 13 22 13h91q16 0 16 -12q0 -5 -3 -11l-369 -664q-7 -13 -22 -13h-92q-16 0 -16 12zM479 19v67q0 15 11 23
q43 37 122 112q54 51 54 73q0 13 -9.5 21.5t-25.5 8.5t-26.5 -9t-10.5 -23v-1q0 -19 -19 -19h-81q-19 0 -19 19v20q4 52 48 83t108 31q47 0 82 -17.5t53.5 -47t18.5 -64.5q0 -24 -11.5 -47.5t-33.5 -49.5q-28 -31 -93 -88q-3 -3 -3 -5q0 -5 7 -5h119q19 0 19 -19v-63
q0 -19 -19 -19h-272q-19 0 -19 19z" />
    <glyph glyph-name="threequarters" unicode="&#xbe;" horiz-adv-x="926" 
d="M316 423q0 -33 -12 -62q-17 -39 -54.5 -62.5t-86.5 -23.5t-87 23.5t-56 64.5q-8 16 -11 42v2q0 9 5 13.5t14 4.5h81q16 0 20 -18q4 -12 7 -17q9 -14 27 -14q17 0 26 14q9 15 9 36q0 23 -9 38t-27 15q-13 0 -26 -8q-8 -4 -12 -4q-9 0 -15 8l-37 46q-5 7 -5 13q0 8 9 14
l69 41q4 3 4 6q0 4 -7 4h-102q-19 0 -19 19v63q0 19 19 19h251q19 0 19 -19v-67q0 -14 -12 -23l-55 -39q-3 -3 -3 -5q0 -3 6 -6q39 -14 59 -58q11 -25 11 -60zM193 12q0 5 3 11l370 664q7 13 22 13h91q16 0 16 -12q0 -5 -3 -11l-369 -664q-7 -13 -22 -13h-92q-16 0 -16 12z
M899 201q5 -5 5 -14v-69q0 -9 -5 -14t-13 -5h-10q-8 0 -8 -8v-72q0 -19 -19 -19h-80q-19 0 -19 19v72q0 8 -8 8h-174q-19 0 -19 19v54q0 10 5 23l91 210q6 15 22 15h84q17 0 17 -14l-2 -8l-77 -183l-1 -4q0 -5 7 -5h47q8 0 8 8v42q0 19 19 19h80q19 0 19 -19v-42q0 -8 8 -8
h10q8 0 13 -5z" />
    <glyph glyph-name="questiondown" unicode="&#xbf;" horiz-adv-x="562" 
d="M363.5 477q29.5 -28 29.5 -67q0 -40 -30.5 -68.5t-72.5 -28.5q-41 0 -71.5 28.5t-30.5 67.5q0 40 30.5 68t72.5 28q43 0 72.5 -28zM392 250v-14q0 -39 -16 -68t-38.5 -47t-57.5 -40q-36 -22 -52.5 -38t-16.5 -37t18.5 -33t49.5 -12q34 0 54.5 14.5t20.5 36.5q0 9 5 14
t14 4l150 -7q19 -2 19 -6v-5q0 -65 -34 -115.5t-94.5 -78.5t-139.5 -28q-76 0 -133.5 26t-88.5 72.5t-31 108.5q0 44 16.5 75.5t38.5 50.5t59 43q36 24 53 40.5t17 41.5q0 16 19 16h149q19 0 19 -14z" />
    <glyph glyph-name="Agrave" unicode="&#xc0;" horiz-adv-x="714" 
d="M490 16l-20 72q-2 7 -9 7h-208q-7 0 -9 -7l-20 -72q-4 -16 -21 -16h-162q-10 0 -14.5 6t-1.5 16l208 662q5 16 21 16h206q16 0 21 -16l208 -662q1 -3 1 -7q0 -15 -17 -15h-162q-17 0 -21 16zM288 246q0 -7 7 -7h124q4 0 6 2.5t1 6.5l-64 231q-1 5 -4.5 5t-5.5 -5
l-64 -231v-2zM433 763q0 -5 -4.5 -8.5t-12.5 -3.5h-119q-14 0 -23 12l-65 86q-4 5 -4 11q0 12 16 12h142q15 0 22 -14l45 -84q3 -6 3 -11z" />
    <glyph glyph-name="Aacute" unicode="&#xc1;" horiz-adv-x="714" 
d="M490 16l-20 72q-2 7 -9 7h-208q-7 0 -9 -7l-20 -72q-4 -16 -21 -16h-162q-10 0 -14.5 6t-1.5 16l208 662q5 16 21 16h206q16 0 21 -16l208 -662q1 -3 1 -7q0 -15 -17 -15h-162q-17 0 -21 16zM288 246q0 -7 7 -7h124q4 0 6 2.5t1 6.5l-64 231q-1 5 -4.5 5t-5.5 -5
l-64 -231v-2zM279.5 754.5q-4.5 3.5 -4.5 8.5t3 11l45 84q7 14 22 14h142q16 0 16 -12q0 -6 -4 -11l-65 -86q-9 -12 -23 -12h-119q-8 0 -12.5 3.5z" />
    <glyph glyph-name="Acircumflex" unicode="&#xc2;" horiz-adv-x="714" 
d="M490 16l-20 72q-2 7 -9 7h-208q-7 0 -9 -7l-20 -72q-4 -16 -21 -16h-162q-10 0 -14.5 6t-1.5 16l208 662q5 16 21 16h206q16 0 21 -16l208 -662q1 -3 1 -7q0 -15 -17 -15h-162q-17 0 -21 16zM288 246q0 -7 7 -7h124q4 0 6 2.5t1 6.5l-64 231q-1 5 -4.5 5t-5.5 -5
l-64 -231v-2zM189.5 754.5q-4.5 3.5 -4.5 8.5q0 6 4 11l67 94q8 12 23 12h149q16 0 24 -12l68 -94q4 -5 4 -11q0 -5 -4.5 -8.5t-11.5 -3.5h-103q-15 0 -22 13l-22 39q-2 4 -6 4t-6 -4l-22 -39q-7 -13 -22 -13h-104q-7 0 -11.5 3.5z" />
    <glyph glyph-name="Atilde" unicode="&#xc3;" horiz-adv-x="714" 
d="M490 16l-20 72q-2 7 -9 7h-208q-7 0 -9 -7l-20 -72q-4 -16 -21 -16h-162q-10 0 -14.5 6t-1.5 16l208 662q5 16 21 16h206q16 0 21 -16l208 -662q1 -3 1 -7q0 -15 -17 -15h-162q-17 0 -21 16zM288 246q0 -7 7 -7h124q4 0 6 2.5t1 6.5l-64 231q-1 5 -4.5 5t-5.5 -5
l-64 -231v-2zM389.5 748.5q-15.5 6.5 -33.5 18.5q-22 14 -36 14q-18 0 -30 -13q-8 -10 -15 -10q-6 0 -11 4l-49 35q-10 7 -10 17q0 3 2 9q14 37 41 57t59 20q18 0 32.5 -6t35.5 -18q26 -15 46 -15q16 0 27 12q8 10 16 10q5 0 10 -4l50 -35q8 -6 8 -16q0 -7 -6 -18
q-19 -34 -46 -51t-55 -17q-20 0 -35.5 6.5z" />
    <glyph glyph-name="Adieresis" unicode="&#xc4;" horiz-adv-x="714" 
d="M490 16l-20 72q-2 7 -9 7h-208q-7 0 -9 -7l-20 -72q-4 -16 -21 -16h-162q-10 0 -14.5 6t-1.5 16l208 662q5 16 21 16h206q16 0 21 -16l208 -662q1 -3 1 -7q0 -15 -17 -15h-162q-17 0 -21 16zM288 246q0 -7 7 -7h124q4 0 6 2.5t1 6.5l-64 231q-1 5 -4.5 5t-5.5 -5
l-64 -231v-2zM189.5 755q-24.5 24 -24.5 63t24.5 63t62.5 24t61.5 -24t23.5 -63t-23.5 -63t-61.5 -24t-62.5 24zM396.5 755q-23.5 24 -23.5 63t23.5 63t62.5 24t62.5 -24t23.5 -63t-23.5 -63t-62.5 -24t-62.5 24z" />
    <glyph glyph-name="Aring" unicode="&#xc5;" horiz-adv-x="714" 
d="M490 16l-20 72q-2 7 -9 7h-208q-7 0 -9 -7l-20 -72q-4 -16 -21 -16h-162q-10 0 -14.5 6t-1.5 16l208 662q5 16 21 16h206q16 0 21 -16l208 -662q1 -3 1 -7q0 -15 -17 -15h-162q-17 0 -21 16zM288 246q0 -7 7 -7h124q4 0 6 2.5t1 6.5l-64 231q-1 5 -4.5 5t-5.5 -5
l-64 -231v-2zM271.5 768q-33.5 34 -33.5 83t34 82.5t83 33.5t83 -33.5t34 -82.5t-34 -83t-83 -34q-50 0 -83.5 34zM380.5 825.5q10.5 10.5 10.5 25.5q0 16 -10.5 26.5t-25.5 10.5t-25.5 -10.5t-10.5 -26.5q0 -15 10.5 -25.5t25.5 -10.5t25.5 10.5z" />
    <glyph glyph-name="AE" unicode="&#xc6;" horiz-adv-x="986" 
d="M943 539h-295q-8 0 -8 -8v-88q0 -8 8 -8h181q19 0 19 -19v-122q0 -19 -19 -19h-181q-8 0 -8 -8v-98q0 -8 8 -8h295q19 0 19 -19v-123q0 -19 -19 -19h-472q-19 0 -19 19v68q0 8 -8 8h-167q-7 0 -10 -6l-35 -75q-6 -14 -23 -14h-166q-16 0 -16 13q0 6 2 9l326 664
q8 14 22 14h566q19 0 19 -19v-123q0 -19 -19 -19zM340 244q0 -5 7 -5h97q8 0 8 8v214q0 6 -3.5 6.5t-5.5 -4.5l-102 -215z" />
    <glyph glyph-name="Ccedilla" unicode="&#xc7;" horiz-adv-x="609" 
d="M564 456l-150 -10h-5q-15 0 -15 5v6q0 41 -24 65.5t-64 24.5t-64 -24.5t-24 -65.5v-215q0 -40 24 -64.5t64 -24.5t64 24.5t24 64.5q0 5 5.5 8.5t14.5 2.5l150 -8q18 -1 18 -5v-5q0 -95 -58 -159t-157 -79q-5 -1 -6 -4t2 -6q35 -40 35 -80q0 -8 -4 -26q-10 -36 -37 -51.5
t-63 -15.5q-38 0 -71 13q-14 5 -12 23l7 58q1 13 12 13q3 0 11 -2q4 -1 11 -1q11 0 18 5.5t7 16.5q0 22 -47 58q-4 3 -9 4q-89 23 -140 88.5t-51 159.5v202q0 76 34.5 134t97 90t144.5 32t144.5 -30t97 -84.5t34.5 -126.5v-5q0 -4 -18 -6z" />
    <glyph glyph-name="Egrave" unicode="&#xc8;" horiz-adv-x="570" 
d="M527 539h-292q-8 0 -8 -8v-88q0 -8 8 -8h178q19 0 19 -19v-122q0 -19 -19 -19h-178q-8 0 -8 -8v-98q0 -8 8 -8h292q19 0 19 -19v-123q0 -19 -19 -19h-469q-19 0 -19 19v662q0 19 19 19h469q19 0 19 -19v-123q0 -19 -19 -19zM369 776q0 -5 -4.5 -8.5t-12.5 -3.5h-119
q-14 0 -23 12l-65 86q-4 5 -4 11q0 12 16 12h142q15 0 22 -14l45 -84q3 -6 3 -11z" />
    <glyph glyph-name="Eacute" unicode="&#xc9;" horiz-adv-x="570" 
d="M527 539h-292q-8 0 -8 -8v-88q0 -8 8 -8h178q19 0 19 -19v-122q0 -19 -19 -19h-178q-8 0 -8 -8v-98q0 -8 8 -8h292q19 0 19 -19v-123q0 -19 -19 -19h-469q-19 0 -19 19v662q0 19 19 19h469q19 0 19 -19v-123q0 -19 -19 -19zM215.5 767.5q-4.5 3.5 -4.5 8.5t3 11l45 84
q7 14 22 14h142q16 0 16 -12q0 -6 -4 -11l-65 -86q-9 -12 -23 -12h-119q-8 0 -12.5 3.5z" />
    <glyph glyph-name="Ecircumflex" unicode="&#xca;" horiz-adv-x="570" 
d="M527 539h-292q-8 0 -8 -8v-88q0 -8 8 -8h178q19 0 19 -19v-122q0 -19 -19 -19h-178q-8 0 -8 -8v-98q0 -8 8 -8h292q19 0 19 -19v-123q0 -19 -19 -19h-469q-19 0 -19 19v662q0 19 19 19h469q19 0 19 -19v-123q0 -19 -19 -19zM125.5 767.5q-4.5 3.5 -4.5 8.5q0 6 4 11
l67 94q8 12 23 12h149q16 0 24 -12l68 -94q4 -5 4 -11q0 -5 -4.5 -8.5t-11.5 -3.5h-103q-15 0 -22 13l-22 39q-2 4 -6 4t-6 -4l-22 -39q-7 -13 -22 -13h-104q-7 0 -11.5 3.5z" />
    <glyph glyph-name="Edieresis" unicode="&#xcb;" horiz-adv-x="570" 
d="M527 539h-292q-8 0 -8 -8v-88q0 -8 8 -8h178q19 0 19 -19v-122q0 -19 -19 -19h-178q-8 0 -8 -8v-98q0 -8 8 -8h292q19 0 19 -19v-123q0 -19 -19 -19h-469q-19 0 -19 19v662q0 19 19 19h469q19 0 19 -19v-123q0 -19 -19 -19zM125.5 768q-24.5 24 -24.5 63t24.5 63t62.5 24
t61.5 -24t23.5 -63t-23.5 -63t-61.5 -24t-62.5 24zM332.5 768q-23.5 24 -23.5 63t23.5 63t62.5 24t62.5 -24t23.5 -63t-23.5 -63t-62.5 -24t-62.5 24z" />
    <glyph glyph-name="Igrave" unicode="&#xcc;" horiz-adv-x="266" 
d="M39 19v662q0 19 19 19h150q19 0 19 -19v-662q0 -19 -19 -19h-150q-19 0 -19 19zM211 776q0 -5 -4.5 -8.5t-12.5 -3.5h-119q-14 0 -23 12l-65 86q-4 5 -4 11q0 12 16 12h142q15 0 22 -14l45 -84q3 -6 3 -11z" />
    <glyph glyph-name="Iacute" unicode="&#xcd;" horiz-adv-x="266" 
d="M39 19v662q0 19 19 19h150q19 0 19 -19v-662q0 -19 -19 -19h-150q-19 0 -19 19zM57.5 767.5q-4.5 3.5 -4.5 8.5t3 11l45 84q7 14 22 14h142q16 0 16 -12q0 -6 -4 -11l-65 -86q-9 -12 -23 -12h-119q-8 0 -12.5 3.5z" />
    <glyph glyph-name="Icircumflex" unicode="&#xce;" horiz-adv-x="266" 
d="M39 19v662q0 19 19 19h150q19 0 19 -19v-662q0 -19 -19 -19h-150q-19 0 -19 19zM-32.5 767.5q-4.5 3.5 -4.5 8.5q0 6 4 11l67 94q8 12 23 12h149q16 0 24 -12l68 -94q4 -5 4 -11q0 -5 -4.5 -8.5t-11.5 -3.5h-103q-15 0 -22 13l-22 39q-2 4 -6 4t-6 -4l-22 -39
q-7 -13 -22 -13h-104q-7 0 -11.5 3.5z" />
    <glyph glyph-name="Idieresis" unicode="&#xcf;" horiz-adv-x="266" 
d="M39 19v662q0 19 19 19h150q19 0 19 -19v-662q0 -19 -19 -19h-150q-19 0 -19 19zM-32.5 768q-24.5 24 -24.5 63t24.5 63t62.5 24t61.5 -24t23.5 -63t-23.5 -63t-61.5 -24t-62.5 24zM174.5 768q-23.5 24 -23.5 63t23.5 63t62.5 24t62.5 -24t23.5 -63t-23.5 -63t-62.5 -24
t-62.5 24z" />
    <glyph glyph-name="Eth" unicode="&#xd0;" horiz-adv-x="660" 
d="M496.5 672q62.5 -28 96.5 -79t34 -118v-250q0 -67 -34 -118t-96.5 -79t-143.5 -28h-253q-19 0 -19 19v269q0 8 -8 8h-15q-19 0 -19 19v87q0 19 19 19h15q8 0 8 8v252q0 19 19 19h253q81 0 143.5 -28zM439 443q0 43 -22 69.5t-58 26.5h-82q-8 0 -8 -8v-102q0 -8 8 -8h45
q19 0 19 -19v-87q0 -19 -19 -19h-45q-8 0 -8 -8v-119q0 -8 8 -8h83q34 0 56 26.5t23 69.5v186z" />
    <glyph glyph-name="Ntilde" unicode="&#xd1;" horiz-adv-x="658" 
d="M39 19v662q0 19 19 19h144q16 0 23 -13l197 -331q3 -4 6 -4q4 0 4 7l-1 322q0 19 19 19h150q19 0 19 -19v-662q0 -19 -19 -19h-144q-16 0 -23 13l-198 337q-3 5 -6.5 4.5t-3.5 -6.5l2 -329q0 -19 -19 -19h-150q-19 0 -19 19zM352.5 761.5q-15.5 6.5 -33.5 18.5
q-22 14 -36 14q-18 0 -30 -13q-8 -10 -15 -10q-6 0 -11 4l-49 35q-10 7 -10 17q0 3 2 9q14 37 41 57t59 20q18 0 32.5 -6t35.5 -18q26 -15 46 -15q16 0 27 12q8 10 16 10q5 0 10 -4l50 -35q8 -6 8 -16q0 -7 -6 -18q-19 -34 -46 -51t-55 -17q-20 0 -35.5 6.5z" />
    <glyph glyph-name="Ograve" unicode="&#xd2;" horiz-adv-x="621" 
d="M163.5 21.5q-63.5 33.5 -98.5 94t-35 140.5v188q0 78 35 138t98.5 93t146.5 33q84 0 147.5 -33t98.5 -93t35 -138v-188q0 -80 -35 -140.5t-98.5 -94t-147.5 -33.5q-83 0 -146.5 33.5zM377.5 176.5q25.5 27.5 25.5 73.5v196q0 46 -25.5 73.5t-67.5 27.5q-41 0 -66.5 -27.5
t-25.5 -73.5v-196q0 -46 25.5 -73.5t66.5 -27.5q42 0 67.5 27.5zM388 771q0 -5 -4.5 -8.5t-12.5 -3.5h-119q-14 0 -23 12l-65 86q-4 5 -4 11q0 12 16 12h142q15 0 22 -14l45 -84q3 -6 3 -11z" />
    <glyph glyph-name="Oacute" unicode="&#xd3;" horiz-adv-x="621" 
d="M163.5 21.5q-63.5 33.5 -98.5 94t-35 140.5v188q0 78 35 138t98.5 93t146.5 33q84 0 147.5 -33t98.5 -93t35 -138v-188q0 -80 -35 -140.5t-98.5 -94t-147.5 -33.5q-83 0 -146.5 33.5zM377.5 176.5q25.5 27.5 25.5 73.5v196q0 46 -25.5 73.5t-67.5 27.5q-41 0 -66.5 -27.5
t-25.5 -73.5v-196q0 -46 25.5 -73.5t66.5 -27.5q42 0 67.5 27.5zM234.5 762.5q-4.5 3.5 -4.5 8.5t3 11l45 84q7 14 22 14h142q16 0 16 -12q0 -6 -4 -11l-65 -86q-9 -12 -23 -12h-119q-8 0 -12.5 3.5z" />
    <glyph glyph-name="Ocircumflex" unicode="&#xd4;" horiz-adv-x="621" 
d="M163.5 21.5q-63.5 33.5 -98.5 94t-35 140.5v188q0 78 35 138t98.5 93t146.5 33q84 0 147.5 -33t98.5 -93t35 -138v-188q0 -80 -35 -140.5t-98.5 -94t-147.5 -33.5q-83 0 -146.5 33.5zM377.5 176.5q25.5 27.5 25.5 73.5v196q0 46 -25.5 73.5t-67.5 27.5q-41 0 -66.5 -27.5
t-25.5 -73.5v-196q0 -46 25.5 -73.5t66.5 -27.5q42 0 67.5 27.5zM144.5 762.5q-4.5 3.5 -4.5 8.5q0 6 4 11l67 94q8 12 23 12h149q16 0 24 -12l68 -94q4 -5 4 -11q0 -5 -4.5 -8.5t-11.5 -3.5h-103q-15 0 -22 13l-22 39q-2 4 -6 4t-6 -4l-22 -39q-7 -13 -22 -13h-104
q-7 0 -11.5 3.5z" />
    <glyph glyph-name="Otilde" unicode="&#xd5;" horiz-adv-x="621" 
d="M163.5 21.5q-63.5 33.5 -98.5 94t-35 140.5v188q0 78 35 138t98.5 93t146.5 33q84 0 147.5 -33t98.5 -93t35 -138v-188q0 -80 -35 -140.5t-98.5 -94t-147.5 -33.5q-83 0 -146.5 33.5zM377.5 176.5q25.5 27.5 25.5 73.5v196q0 46 -25.5 73.5t-67.5 27.5q-41 0 -66.5 -27.5
t-25.5 -73.5v-196q0 -46 25.5 -73.5t66.5 -27.5q42 0 67.5 27.5zM344.5 756.5q-15.5 6.5 -33.5 18.5q-22 14 -36 14q-18 0 -30 -13q-8 -10 -15 -10q-6 0 -11 4l-49 35q-10 7 -10 17q0 3 2 9q14 37 41 57t59 20q18 0 32.5 -6t35.5 -18q26 -15 46 -15q16 0 27 12q8 10 16 10
q5 0 10 -4l50 -35q8 -6 8 -16q0 -7 -6 -18q-19 -34 -46 -51t-55 -17q-20 0 -35.5 6.5z" />
    <glyph glyph-name="Odieresis" unicode="&#xd6;" horiz-adv-x="621" 
d="M163.5 21.5q-63.5 33.5 -98.5 94t-35 140.5v188q0 78 35 138t98.5 93t146.5 33q84 0 147.5 -33t98.5 -93t35 -138v-188q0 -80 -35 -140.5t-98.5 -94t-147.5 -33.5q-83 0 -146.5 33.5zM377.5 176.5q25.5 27.5 25.5 73.5v196q0 46 -25.5 73.5t-67.5 27.5q-41 0 -66.5 -27.5
t-25.5 -73.5v-196q0 -46 25.5 -73.5t66.5 -27.5q42 0 67.5 27.5zM144.5 763q-24.5 24 -24.5 63t24.5 63t62.5 24t61.5 -24t23.5 -63t-23.5 -63t-61.5 -24t-62.5 24zM351.5 763q-23.5 24 -23.5 63t23.5 63t62.5 24t62.5 -24t23.5 -63t-23.5 -63t-62.5 -24t-62.5 24z" />
    <glyph glyph-name="multiply" unicode="&#xd7;" horiz-adv-x="462" 
d="M433 407q0 -7 -6 -13l-77 -77q-2 -2 -2 -6t2 -6l77 -77q6 -6 6 -13t-6 -13l-87 -87q-6 -7 -13 -7t-13 6l-77 77q-2 2 -6 2t-6 -2l-77 -77q-6 -6 -13 -6t-13 7l-87 87q-6 6 -6 13t6 13l77 77q2 2 2 6t-2 6l-77 77q-6 6 -6 13t6 13l87 87q6 6 13 6t13 -6l77 -77q2 -2 6 -2
t6 2l77 77q6 6 13 6t13 -6l87 -87q6 -6 6 -13z" />
    <glyph glyph-name="Oslash" unicode="&#xd8;" horiz-adv-x="621" 
d="M507 641q40 -36 62 -86t22 -111v-188q0 -80 -35 -140.5t-98.5 -94t-147.5 -33.5q-66 0 -123 22l-4 1q-5 0 -7 -5l-11 -22q-7 -14 -22 -14h-49q-7 0 -11.5 3.5t-4.5 8.5t3 11l29 57q2 5 -2 11q-38 36 -58 85.5t-20 109.5v188q0 78 35 138t98.5 93t146.5 33q62 0 117 -19
q7 -3 10 4l12 23q8 14 22 14h49q7 0 11.5 -3.5t4.5 -8.5t-3 -11l-28 -55q-2 -5 2 -11zM218 284q0 -6 4 -6.5t6 4.5l125 247q3 8 -3 10q-19 8 -40 8q-41 0 -66.5 -27.5t-25.5 -73.5v-162zM403 430q0 6 -4 6.5t-6 -4.5l-133 -260q-1 -1 -1 -4q0 -5 5 -7q19 -12 46 -12
q42 0 67.5 27.5t25.5 73.5v180z" />
    <glyph glyph-name="Ugrave" unicode="&#xd9;" horiz-adv-x="617" 
d="M165.5 23q-62.5 31 -96.5 88t-34 132v438q0 19 19 19h150q19 0 19 -19v-438q0 -41 23.5 -65.5t62.5 -24.5q38 0 61.5 25t23.5 65v438q0 19 19 19h150q19 0 19 -19v-438q0 -75 -34 -132t-96 -88t-143 -31t-143.5 31zM387 776q0 -5 -4.5 -8.5t-12.5 -3.5h-119q-14 0 -23 12
l-65 86q-4 5 -4 11q0 12 16 12h142q15 0 22 -14l45 -84q3 -6 3 -11z" />
    <glyph glyph-name="Uacute" unicode="&#xda;" horiz-adv-x="617" 
d="M165.5 23q-62.5 31 -96.5 88t-34 132v438q0 19 19 19h150q19 0 19 -19v-438q0 -41 23.5 -65.5t62.5 -24.5q38 0 61.5 25t23.5 65v438q0 19 19 19h150q19 0 19 -19v-438q0 -75 -34 -132t-96 -88t-143 -31t-143.5 31zM233.5 767.5q-4.5 3.5 -4.5 8.5t3 11l45 84q7 14 22 14
h142q16 0 16 -12q0 -6 -4 -11l-65 -86q-9 -12 -23 -12h-119q-8 0 -12.5 3.5z" />
    <glyph glyph-name="Ucircumflex" unicode="&#xdb;" horiz-adv-x="617" 
d="M165.5 23q-62.5 31 -96.5 88t-34 132v438q0 19 19 19h150q19 0 19 -19v-438q0 -41 23.5 -65.5t62.5 -24.5q38 0 61.5 25t23.5 65v438q0 19 19 19h150q19 0 19 -19v-438q0 -75 -34 -132t-96 -88t-143 -31t-143.5 31zM143.5 767.5q-4.5 3.5 -4.5 8.5q0 6 4 11l67 94
q8 12 23 12h149q16 0 24 -12l68 -94q4 -5 4 -11q0 -5 -4.5 -8.5t-11.5 -3.5h-103q-15 0 -22 13l-22 39q-2 4 -6 4t-6 -4l-22 -39q-7 -13 -22 -13h-104q-7 0 -11.5 3.5z" />
    <glyph glyph-name="Udieresis" unicode="&#xdc;" horiz-adv-x="617" 
d="M165.5 23q-62.5 31 -96.5 88t-34 132v438q0 19 19 19h150q19 0 19 -19v-438q0 -41 23.5 -65.5t62.5 -24.5q38 0 61.5 25t23.5 65v438q0 19 19 19h150q19 0 19 -19v-438q0 -75 -34 -132t-96 -88t-143 -31t-143.5 31zM143.5 768q-24.5 24 -24.5 63t24.5 63t62.5 24
t61.5 -24t23.5 -63t-23.5 -63t-61.5 -24t-62.5 24zM350.5 768q-23.5 24 -23.5 63t23.5 63t62.5 24t62.5 -24t23.5 -63t-23.5 -63t-62.5 -24t-62.5 24z" />
    <glyph glyph-name="Yacute" unicode="&#xdd;" horiz-adv-x="651" 
d="M231 21v215q0 4 -2 10l-201 432q-2 6 -2 9q0 13 17 13h163q17 0 22 -15l92 -231q2 -4 5 -4t5 4l92 231q5 15 22 15h164q17 0 17 -13q0 -3 -2 -9l-203 -432q-2 -6 -2 -10v-215q0 -19 -19 -19h-149q-19 0 -19 19zM249.5 754.5q-4.5 3.5 -4.5 8.5t3 11l45 84q7 14 22 14h142
q16 0 16 -12q0 -6 -4 -11l-65 -86q-9 -12 -23 -12h-119q-8 0 -12.5 3.5z" />
    <glyph glyph-name="Thorn" unicode="&#xde;" horiz-adv-x="590" 
d="M458 544.5q54 -28.5 84 -79.5t30 -117q0 -65 -33 -115.5t-89.5 -78t-124.5 -27.5h-93q-8 0 -8 -8v-100q0 -19 -19 -19h-150q-19 0 -19 19v662q0 19 19 19h150q19 0 19 -19v-100q0 -8 8 -8h102q70 0 124 -28.5zM363 294.5q22 16.5 22 49.5t-22.5 50.5t-59.5 17.5h-71
q-8 0 -8 -8v-118q0 -8 8 -8h71q38 0 60 16.5z" />
    <glyph glyph-name="germandbls" unicode="&#xdf;" horiz-adv-x="624" 
d="M36 20v447q0 114 70 177.5t198 63.5q84 0 147 -24.5t97.5 -69.5t34.5 -107q0 -76 -59 -117q-8 -6 0 -11q33 -24 53 -68t20 -98q0 -103 -76.5 -158t-228.5 -55h-8q-19 0 -19 19v122q0 19 19 19h36q41 0 65 19.5t24 53.5t-24 53.5t-65 19.5h-36q-19 0 -19 19v108
q0 19 19 19h41q30 0 50 15t20 35q0 17 -17.5 31.5t-58.5 14.5q-37 0 -66 -17t-29 -46v-466q0 -19 -19 -19l-150 1q-19 0 -19 19z" />
    <glyph glyph-name="agrave" unicode="&#xe0;" horiz-adv-x="540" 
d="M384 505q57 -23 90 -63t33 -87v-336q0 -19 -19 -19h-150q-19 0 -19 19v18q0 5 -2.5 6t-6.5 -3q-17 -25 -47 -36.5t-75 -11.5q-82 0 -129 37.5t-47 109.5q0 76 53.5 117t155.5 41h90q8 0 8 8v15q0 21 -15.5 34t-41.5 13q-17 0 -30.5 -5.5t-19.5 -14.5q-6 -8 -10 -11
t-12 -2l-154 20q-18 2 -17 15q4 45 36.5 81t85.5 57t118 21q68 0 125 -23zM298.5 139q20.5 17 20.5 46v10q0 8 -8 8h-47q-63 0 -63 -41q0 -18 11.5 -29t33.5 -11q32 0 52.5 17zM341 591q0 -5 -4.5 -8.5t-12.5 -3.5h-119q-14 0 -23 12l-65 86q-4 5 -4 11q0 12 16 12h142
q15 0 22 -14l45 -84q3 -6 3 -11z" />
    <glyph glyph-name="aacute" unicode="&#xe1;" horiz-adv-x="540" 
d="M384 505q57 -23 90 -63t33 -87v-336q0 -19 -19 -19h-150q-19 0 -19 19v18q0 5 -2.5 6t-6.5 -3q-17 -25 -47 -36.5t-75 -11.5q-82 0 -129 37.5t-47 109.5q0 76 53.5 117t155.5 41h90q8 0 8 8v15q0 21 -15.5 34t-41.5 13q-17 0 -30.5 -5.5t-19.5 -14.5q-6 -8 -10 -11
t-12 -2l-154 20q-18 2 -17 15q4 45 36.5 81t85.5 57t118 21q68 0 125 -23zM298.5 139q20.5 17 20.5 46v10q0 8 -8 8h-47q-63 0 -63 -41q0 -18 11.5 -29t33.5 -11q32 0 52.5 17zM187.5 582.5q-4.5 3.5 -4.5 8.5t3 11l45 84q7 14 22 14h142q16 0 16 -12q0 -6 -4 -11l-65 -86
q-9 -12 -23 -12h-119q-8 0 -12.5 3.5z" />
    <glyph glyph-name="acircumflex" unicode="&#xe2;" horiz-adv-x="540" 
d="M384 505q57 -23 90 -63t33 -87v-336q0 -19 -19 -19h-150q-19 0 -19 19v18q0 5 -2.5 6t-6.5 -3q-17 -25 -47 -36.5t-75 -11.5q-82 0 -129 37.5t-47 109.5q0 76 53.5 117t155.5 41h90q8 0 8 8v15q0 21 -15.5 34t-41.5 13q-17 0 -30.5 -5.5t-19.5 -14.5q-6 -8 -10 -11
t-12 -2l-154 20q-18 2 -17 15q4 45 36.5 81t85.5 57t118 21q68 0 125 -23zM298.5 139q20.5 17 20.5 46v10q0 8 -8 8h-47q-63 0 -63 -41q0 -18 11.5 -29t33.5 -11q32 0 52.5 17zM97.5 582.5q-4.5 3.5 -4.5 8.5q0 6 4 11l67 94q8 12 23 12h149q16 0 24 -12l68 -94q4 -5 4 -11
q0 -5 -4.5 -8.5t-11.5 -3.5h-103q-15 0 -22 13l-22 39q-2 4 -6 4t-6 -4l-22 -39q-7 -13 -22 -13h-104q-7 0 -11.5 3.5z" />
    <glyph glyph-name="atilde" unicode="&#xe3;" horiz-adv-x="540" 
d="M384 505q57 -23 90 -63t33 -87v-336q0 -19 -19 -19h-150q-19 0 -19 19v18q0 5 -2.5 6t-6.5 -3q-17 -25 -47 -36.5t-75 -11.5q-82 0 -129 37.5t-47 109.5q0 76 53.5 117t155.5 41h90q8 0 8 8v15q0 21 -15.5 34t-41.5 13q-17 0 -30.5 -5.5t-19.5 -14.5q-6 -8 -10 -11
t-12 -2l-154 20q-18 2 -17 15q4 45 36.5 81t85.5 57t118 21q68 0 125 -23zM298.5 139q20.5 17 20.5 46v10q0 8 -8 8h-47q-63 0 -63 -41q0 -18 11.5 -29t33.5 -11q32 0 52.5 17zM297.5 576.5q-15.5 6.5 -33.5 18.5q-22 14 -36 14q-18 0 -30 -13q-8 -10 -15 -10q-6 0 -11 4
l-49 35q-10 7 -10 17q0 3 2 9q14 37 41 57t59 20q18 0 32.5 -6t35.5 -18q26 -15 46 -15q16 0 27 12q8 10 16 10q5 0 10 -4l50 -35q8 -6 8 -16q0 -7 -6 -18q-19 -34 -46 -51t-55 -17q-20 0 -35.5 6.5z" />
    <glyph glyph-name="adieresis" unicode="&#xe4;" horiz-adv-x="540" 
d="M384 505q57 -23 90 -63t33 -87v-336q0 -19 -19 -19h-150q-19 0 -19 19v18q0 5 -2.5 6t-6.5 -3q-17 -25 -47 -36.5t-75 -11.5q-82 0 -129 37.5t-47 109.5q0 76 53.5 117t155.5 41h90q8 0 8 8v15q0 21 -15.5 34t-41.5 13q-17 0 -30.5 -5.5t-19.5 -14.5q-6 -8 -10 -11
t-12 -2l-154 20q-18 2 -17 15q4 45 36.5 81t85.5 57t118 21q68 0 125 -23zM298.5 139q20.5 17 20.5 46v10q0 8 -8 8h-47q-63 0 -63 -41q0 -18 11.5 -29t33.5 -11q32 0 52.5 17zM97.5 583q-24.5 24 -24.5 63t24.5 63t62.5 24t61.5 -24t23.5 -63t-23.5 -63t-61.5 -24t-62.5 24
zM304.5 583q-23.5 24 -23.5 63t23.5 63t62.5 24t62.5 -24t23.5 -63t-23.5 -63t-62.5 -24t-62.5 24z" />
    <glyph glyph-name="aring" unicode="&#xe5;" horiz-adv-x="540" 
d="M384 505q57 -23 90 -63t33 -87v-336q0 -19 -19 -19h-150q-19 0 -19 19v18q0 5 -2.5 6t-6.5 -3q-17 -25 -47 -36.5t-75 -11.5q-82 0 -129 37.5t-47 109.5q0 76 53.5 117t155.5 41h90q8 0 8 8v15q0 21 -15.5 34t-41.5 13q-17 0 -30.5 -5.5t-19.5 -14.5q-6 -8 -10 -11
t-12 -2l-154 20q-18 2 -17 15q4 45 36.5 81t85.5 57t118 21q68 0 125 -23zM298.5 139q20.5 17 20.5 46v10q0 8 -8 8h-47q-63 0 -63 -41q0 -18 11.5 -29t33.5 -11q32 0 52.5 17zM179.5 596q-33.5 34 -33.5 83t34 82.5t83 33.5t83 -33.5t34 -82.5t-34 -83t-83 -34
q-50 0 -83.5 34zM288.5 653.5q10.5 10.5 10.5 25.5q0 16 -10.5 26.5t-25.5 10.5t-25.5 -10.5t-10.5 -26.5q0 -15 10.5 -25.5t25.5 -10.5t25.5 10.5z" />
    <glyph glyph-name="ae" unicode="&#xe6;" horiz-adv-x="844" 
d="M67.5 34q-55.5 42 -55.5 116q0 71 53.5 113t154.5 42h90q4 0 6 2.5t2 5.5v7q0 21 -15.5 34t-41.5 13q-17 0 -30.5 -5.5t-19.5 -14.5q-6 -8 -10 -11t-12 -2l-154 20q-19 2 -17 20q6 43 39.5 78t83 55.5t103.5 20.5q55 0 102 -20t71 -51q7 -6 11 1q21 28 62 49t90 21
q46 0 92 -19t82.5 -54.5t53.5 -82.5q18 -52 19 -144q0 -20 -19 -20h-287q-4 0 -6 -2t-1 -6q0 -1 2 -7q17 -44 93 -44q61 0 93 25q8 5 13 5q7 0 13 -7l63 -77q6 -6 6 -13t-7 -14q-82 -76 -192 -76q-62 0 -110 23.5t-68 58.5q-5 8 -8 4q-22 -37 -75 -61.5t-123 -24.5
q-91 0 -146.5 42zM511 311q0 -6 8 -6h106q8 0 8 6q0 8 -5 16q-17 40 -56 40q-20 0 -34.5 -11t-21.5 -29q-1 -3 -4 -13zM297 138.5q21 18.5 21 45.5v16q0 8 -8 8h-47q-30 0 -46.5 -12t-16.5 -32q0 -17 12 -30.5t36 -13.5q28 0 49 18.5z" />
    <glyph glyph-name="ccedilla" unicode="&#xe7;" horiz-adv-x="549" 
d="M224 331q-12 -25 -12 -69q0 -41 11 -69q17 -40 58 -40q42 0 58 41l1.5 4.5l0.5 1.5v0q1 5 7.5 11t14.5 5l148 -24q19 -3 16 -21q-2 -14 -6 -27q-20 -56 -63.5 -92.5t-103.5 -51.5q-4 -1 -5 -3.5t2 -6.5q39 -41 39 -83q0 -14 -4 -26q-10 -36 -37 -51.5t-63 -15.5
q-38 0 -71 13q-14 5 -12 23l7 58q1 13 12 13q3 0 11 -2q4 -1 11 -1q9 0 15.5 4t8.5 11q9 25 -42 62q-4 3 -9 4q-61 13 -106.5 52.5t-68.5 97.5q-20 51 -20 114q0 62 20 113q28 71 92 111.5t148 40.5q85 0 150.5 -42.5t88.5 -106.5q8 -21 9 -34v-2q0 -16 -17 -19l-147 -23
q-1 0 -2.5 -0.5t-3.5 0.5q-13 0 -15 12l-4 14q-5 17 -21.5 28.5t-38.5 11.5q-40 0 -57 -36z" />
    <glyph glyph-name="egrave" unicode="&#xe8;" horiz-adv-x="556" 
d="M363 158.5q26 7.5 43 20.5q8 6 13 6q7 0 13 -8l68 -94q5 -8 5 -12q0 -7 -7 -14q-36 -33 -87.5 -49t-110.5 -16q-75 0 -132.5 26.5t-93.5 75.5q-50 70 -50 170q0 43 11 84q23 81 90.5 130.5t156.5 49.5q103 0 167 -66.5t84 -181.5q5 -24 6 -48q0 -19 -19 -19h-297
q-8 0 -7 -9l5 -13q19 -40 86 -40q30 0 56 7.5zM221 327l-3 -8l-1 -3q0 -6 8 -6h108q8 0 8 6q0 3 -1.5 6l-2.5 5q-17 40 -59 40q-41 0 -57 -40zM354 591q0 -5 -4.5 -8.5t-12.5 -3.5h-119q-14 0 -23 12l-65 86q-4 5 -4 11q0 12 16 12h142q15 0 22 -14l45 -84q3 -6 3 -11z" />
    <glyph glyph-name="eacute" unicode="&#xe9;" horiz-adv-x="556" 
d="M363 158.5q26 7.5 43 20.5q8 6 13 6q7 0 13 -8l68 -94q5 -8 5 -12q0 -7 -7 -14q-36 -33 -87.5 -49t-110.5 -16q-75 0 -132.5 26.5t-93.5 75.5q-50 70 -50 170q0 43 11 84q23 81 90.5 130.5t156.5 49.5q103 0 167 -66.5t84 -181.5q5 -24 6 -48q0 -19 -19 -19h-297
q-8 0 -7 -9l5 -13q19 -40 86 -40q30 0 56 7.5zM221 327l-3 -8l-1 -3q0 -6 8 -6h108q8 0 8 6q0 3 -1.5 6l-2.5 5q-17 40 -59 40q-41 0 -57 -40zM200.5 582.5q-4.5 3.5 -4.5 8.5t3 11l45 84q7 14 22 14h142q16 0 16 -12q0 -6 -4 -11l-65 -86q-9 -12 -23 -12h-119
q-8 0 -12.5 3.5z" />
    <glyph glyph-name="ecircumflex" unicode="&#xea;" horiz-adv-x="556" 
d="M363 158.5q26 7.5 43 20.5q8 6 13 6q7 0 13 -8l68 -94q5 -8 5 -12q0 -7 -7 -14q-36 -33 -87.5 -49t-110.5 -16q-75 0 -132.5 26.5t-93.5 75.5q-50 70 -50 170q0 43 11 84q23 81 90.5 130.5t156.5 49.5q103 0 167 -66.5t84 -181.5q5 -24 6 -48q0 -19 -19 -19h-297
q-8 0 -7 -9l5 -13q19 -40 86 -40q30 0 56 7.5zM221 327l-3 -8l-1 -3q0 -6 8 -6h108q8 0 8 6q0 3 -1.5 6l-2.5 5q-17 40 -59 40q-41 0 -57 -40zM110.5 582.5q-4.5 3.5 -4.5 8.5q0 6 4 11l67 94q8 12 23 12h149q16 0 24 -12l68 -94q4 -5 4 -11q0 -5 -4.5 -8.5t-11.5 -3.5h-103
q-15 0 -22 13l-22 39q-2 4 -6 4t-6 -4l-22 -39q-7 -13 -22 -13h-104q-7 0 -11.5 3.5z" />
    <glyph glyph-name="edieresis" unicode="&#xeb;" horiz-adv-x="556" 
d="M363 158.5q26 7.5 43 20.5q8 6 13 6q7 0 13 -8l68 -94q5 -8 5 -12q0 -7 -7 -14q-36 -33 -87.5 -49t-110.5 -16q-75 0 -132.5 26.5t-93.5 75.5q-50 70 -50 170q0 43 11 84q23 81 90.5 130.5t156.5 49.5q103 0 167 -66.5t84 -181.5q5 -24 6 -48q0 -19 -19 -19h-297
q-8 0 -7 -9l5 -13q19 -40 86 -40q30 0 56 7.5zM221 327l-3 -8l-1 -3q0 -6 8 -6h108q8 0 8 6q0 3 -1.5 6l-2.5 5q-17 40 -59 40q-41 0 -57 -40zM110.5 583q-24.5 24 -24.5 63t24.5 63t62.5 24t61.5 -24t23.5 -63t-23.5 -63t-61.5 -24t-62.5 24zM317.5 583q-23.5 24 -23.5 63
t23.5 63t62.5 24t62.5 -24t23.5 -63t-23.5 -63t-62.5 -24t-62.5 24z" />
    <glyph glyph-name="igrave" unicode="&#xec;" horiz-adv-x="255" 
d="M32 19v482q0 19 19 19h150q19 0 19 -19v-482q0 -19 -19 -19h-150q-19 0 -19 19zM200 595q0 -5 -4.5 -8.5t-12.5 -3.5h-119q-14 0 -23 12l-65 86q-4 5 -4 11q0 12 16 12h142q15 0 22 -14l45 -84q3 -6 3 -11z" />
    <glyph glyph-name="iacute" unicode="&#xed;" horiz-adv-x="255" 
d="M32 19v482q0 19 19 19h150q19 0 19 -19v-482q0 -19 -19 -19h-150q-19 0 -19 19zM46.5 586.5q-4.5 3.5 -4.5 8.5t3 11l45 84q7 14 22 14h142q16 0 16 -12q0 -6 -4 -11l-65 -86q-9 -12 -23 -12h-119q-8 0 -12.5 3.5z" />
    <glyph glyph-name="icircumflex" unicode="&#xee;" horiz-adv-x="255" 
d="M32 19v482q0 19 19 19h150q19 0 19 -19v-482q0 -19 -19 -19h-150q-19 0 -19 19zM-43.5 586.5q-4.5 3.5 -4.5 8.5q0 6 4 11l67 94q8 12 23 12h149q16 0 24 -12l68 -94q4 -5 4 -11q0 -5 -4.5 -8.5t-11.5 -3.5h-103q-15 0 -22 13l-22 39q-2 4 -6 4t-6 -4l-22 -39
q-7 -13 -22 -13h-104q-7 0 -11.5 3.5z" />
    <glyph glyph-name="idieresis" unicode="&#xef;" horiz-adv-x="255" 
d="M32 19v482q0 19 19 19h150q19 0 19 -19v-482q0 -19 -19 -19h-150q-19 0 -19 19zM-43.5 587q-24.5 24 -24.5 63t24.5 63t62.5 24t61.5 -24t23.5 -63t-23.5 -63t-61.5 -24t-62.5 24zM163.5 587q-23.5 24 -23.5 63t23.5 63t62.5 24t62.5 -24t23.5 -63t-23.5 -63t-62.5 -24
t-62.5 24z" />
    <glyph glyph-name="eth" unicode="&#xf0;" horiz-adv-x="551" 
d="M518 228q0 -56 -20 -99q-28 -62 -90.5 -99.5t-143.5 -37.5t-143 37t-91 100q-20 44 -20 98q0 53 20 98q26 57 79 90q21 13 61 22t76 9q24 0 39 -4h2q4 0 5 2t-1 6q-12 26 -26 49q-3 6 -10 4l-97 -23q-3 -1 -7 -1q-13 0 -16 14l-15 61q-1 2 -1 6q0 13 15 16l58 14
q9 3 4 11q-23 28 -66 76q-6 6 -6 12q0 5 5 8t12 3h155q15 0 23 -12l37 -51q3 -5 11 -3l79 19q3 1 7 1q13 0 16 -14l15 -61q1 -2 1 -6q0 -14 -15 -17l-41 -10q-4 -1 -4.5 -4.5t2.5 -8.5q53 -84 73 -160q18 -67 18 -145zM328 222q0 28 -13 52q-18 33 -51 33q-35 0 -52 -33
q-12 -24 -12 -52q0 -29 13 -55q18 -35 51 -35q32 0 51 35q13 24 13 55z" />
    <glyph glyph-name="ntilde" unicode="&#xf1;" 
d="M435 506q40 -22 63.5 -64.5t23.5 -100.5v-322q0 -19 -19 -19h-150q-19 0 -19 19v281q0 30 -15.5 48.5t-40.5 18.5q-26 0 -41.5 -18.5t-15.5 -48.5v-281q0 -19 -19 -19h-150q-19 0 -19 19v482q0 19 19 19h150q19 0 19 -19v-26q0 -5 2.5 -6.5t5.5 2.5q38 57 116 57
q50 0 90 -22zM318.5 568.5q-15.5 6.5 -33.5 18.5q-22 14 -36 14q-18 0 -30 -13q-8 -10 -15 -10q-6 0 -11 4l-49 35q-10 7 -10 17q0 3 2 9q14 37 41 57t59 20q18 0 32.5 -6t35.5 -18q26 -15 46 -15q16 0 27 12q8 10 16 10q5 0 10 -4l50 -35q8 -6 8 -16q0 -7 -6 -18
q-19 -34 -46 -51t-55 -17q-20 0 -35.5 6.5z" />
    <glyph glyph-name="ograve" unicode="&#xf2;" horiz-adv-x="558" 
d="M118.5 43q-65.5 51 -86.5 138q-10 36 -10 80q0 49 12 89q24 83 88.5 130.5t157.5 47.5t156.5 -47.5t87.5 -128.5q12 -42 12 -89q0 -38 -8 -76q-21 -90 -86.5 -142.5t-162.5 -52.5q-95 0 -160.5 51zM321 170.5q16 17.5 22 46.5q4 19 4 45q0 23 -5 46q-15 59 -63 59
q-50 0 -63 -59q-5 -17 -5 -46q0 -26 4 -45q15 -64 64 -64q26 0 42 17.5zM357 591q0 -5 -4.5 -8.5t-12.5 -3.5h-119q-14 0 -23 12l-65 86q-4 5 -4 11q0 12 16 12h142q15 0 22 -14l45 -84q3 -6 3 -11z" />
    <glyph glyph-name="oacute" unicode="&#xf3;" horiz-adv-x="558" 
d="M118.5 43q-65.5 51 -86.5 138q-10 36 -10 80q0 49 12 89q24 83 88.5 130.5t157.5 47.5t156.5 -47.5t87.5 -128.5q12 -42 12 -89q0 -38 -8 -76q-21 -90 -86.5 -142.5t-162.5 -52.5q-95 0 -160.5 51zM321 170.5q16 17.5 22 46.5q4 19 4 45q0 23 -5 46q-15 59 -63 59
q-50 0 -63 -59q-5 -17 -5 -46q0 -26 4 -45q15 -64 64 -64q26 0 42 17.5zM203.5 582.5q-4.5 3.5 -4.5 8.5t3 11l45 84q7 14 22 14h142q16 0 16 -12q0 -6 -4 -11l-65 -86q-9 -12 -23 -12h-119q-8 0 -12.5 3.5z" />
    <glyph glyph-name="ocircumflex" unicode="&#xf4;" horiz-adv-x="558" 
d="M118.5 43q-65.5 51 -86.5 138q-10 36 -10 80q0 49 12 89q24 83 88.5 130.5t157.5 47.5t156.5 -47.5t87.5 -128.5q12 -42 12 -89q0 -38 -8 -76q-21 -90 -86.5 -142.5t-162.5 -52.5q-95 0 -160.5 51zM321 170.5q16 17.5 22 46.5q4 19 4 45q0 23 -5 46q-15 59 -63 59
q-50 0 -63 -59q-5 -17 -5 -46q0 -26 4 -45q15 -64 64 -64q26 0 42 17.5zM113.5 582.5q-4.5 3.5 -4.5 8.5q0 6 4 11l67 94q8 12 23 12h149q16 0 24 -12l68 -94q4 -5 4 -11q0 -5 -4.5 -8.5t-11.5 -3.5h-103q-15 0 -22 13l-22 39q-2 4 -6 4t-6 -4l-22 -39q-7 -13 -22 -13h-104
q-7 0 -11.5 3.5z" />
    <glyph glyph-name="otilde" unicode="&#xf5;" horiz-adv-x="558" 
d="M118.5 43q-65.5 51 -86.5 138q-10 36 -10 80q0 49 12 89q24 83 88.5 130.5t157.5 47.5t156.5 -47.5t87.5 -128.5q12 -42 12 -89q0 -38 -8 -76q-21 -90 -86.5 -142.5t-162.5 -52.5q-95 0 -160.5 51zM321 170.5q16 17.5 22 46.5q4 19 4 45q0 23 -5 46q-15 59 -63 59
q-50 0 -63 -59q-5 -17 -5 -46q0 -26 4 -45q15 -64 64 -64q26 0 42 17.5zM313.5 576.5q-15.5 6.5 -33.5 18.5q-22 14 -36 14q-18 0 -30 -13q-8 -10 -15 -10q-6 0 -11 4l-49 35q-10 7 -10 17q0 3 2 9q14 37 41 57t59 20q18 0 32.5 -6t35.5 -18q26 -15 46 -15q16 0 27 12
q8 10 16 10q5 0 10 -4l50 -35q8 -6 8 -16q0 -7 -6 -18q-19 -34 -46 -51t-55 -17q-20 0 -35.5 6.5z" />
    <glyph glyph-name="odieresis" unicode="&#xf6;" horiz-adv-x="558" 
d="M118.5 43q-65.5 51 -86.5 138q-10 36 -10 80q0 49 12 89q24 83 88.5 130.5t157.5 47.5t156.5 -47.5t87.5 -128.5q12 -42 12 -89q0 -38 -8 -76q-21 -90 -86.5 -142.5t-162.5 -52.5q-95 0 -160.5 51zM321 170.5q16 17.5 22 46.5q4 19 4 45q0 23 -5 46q-15 59 -63 59
q-50 0 -63 -59q-5 -17 -5 -46q0 -26 4 -45q15 -64 64 -64q26 0 42 17.5zM113.5 583q-24.5 24 -24.5 63t24.5 63t62.5 24t61.5 -24t23.5 -63t-23.5 -63t-61.5 -24t-62.5 24zM320.5 583q-23.5 24 -23.5 63t23.5 63t62.5 24t62.5 -24t23.5 -63t-23.5 -63t-62.5 -24t-62.5 24z
" />
    <glyph glyph-name="divide" unicode="&#xf7;" horiz-adv-x="476" 
d="M181.5 425.5q-23.5 23.5 -23.5 56.5q0 32 23.5 55.5t56.5 23.5q32 0 55.5 -23.5t23.5 -55.5q0 -33 -23.5 -56.5t-55.5 -23.5q-33 0 -56.5 23.5zM22 241v122q0 19 19 19h394q19 0 19 -19v-122q0 -19 -19 -19h-394q-19 0 -19 19zM181.5 71.5q-23.5 23.5 -23.5 56.5
q0 32 23.5 55.5t56.5 23.5q32 0 55.5 -23.5t23.5 -55.5q0 -33 -23.5 -56.5t-55.5 -23.5q-33 0 -56.5 23.5z" />
    <glyph glyph-name="oslash" unicode="&#xf8;" horiz-adv-x="558" 
d="M536 263q0 -38 -8 -76q-21 -90 -86.5 -142.5t-162.5 -52.5q-62 0 -113 23q-7 3 -11 -3l-28 -39q-6 -9 -14 -9q-5 0 -12 5l-26 19q-9 6 -9 14q0 5 5 12l27 38q4 6 -1 11q-48 46 -65 118q-10 36 -10 80q0 49 12 89q24 83 88.5 130.5t157.5 47.5q70 0 124 -28q7 -3 11 3
l31 43q6 9 14 9q5 0 12 -5l26 -19q9 -6 9 -14q0 -5 -5 -12l-31 -45q-4 -7 0 -11q37 -42 53 -97q12 -42 12 -89zM213 232q1 -5 4 -5.5t6 3.5l85 120q5 8 -2 11q-12 6 -27 6q-50 0 -63 -59q-5 -17 -5 -46q0 -20 2 -30zM347 262v5q0 6 -3.5 7t-6.5 -4l-74 -105q-6 -10 3 -11
q4 -1 13 -1q26 0 42 17.5t22 46.5q4 19 4 45z" />
    <glyph glyph-name="ugrave" unicode="&#xf9;" 
d="M350 520h150q19 0 19 -19v-482q0 -19 -19 -19h-150q-19 0 -19 19v24q0 5 -3 6t-6 -3q-40 -54 -125 -54q-76 0 -121 49.5t-45 137.5v322q0 19 19 19h150q19 0 19 -19v-281q0 -30 15.5 -48.5t40.5 -18.5q21 0 35.5 13t19.5 35q1 4 1 10v290q0 19 19 19zM352 583
q0 -5 -4.5 -8.5t-12.5 -3.5h-119q-14 0 -23 12l-65 86q-4 5 -4 11q0 12 16 12h142q15 0 22 -14l45 -84q3 -6 3 -11z" />
    <glyph glyph-name="uacute" unicode="&#xfa;" 
d="M350 520h150q19 0 19 -19v-482q0 -19 -19 -19h-150q-19 0 -19 19v24q0 5 -3 6t-6 -3q-40 -54 -125 -54q-76 0 -121 49.5t-45 137.5v322q0 19 19 19h150q19 0 19 -19v-281q0 -30 15.5 -48.5t40.5 -18.5q21 0 35.5 13t19.5 35q1 4 1 10v290q0 19 19 19zM198.5 574.5
q-4.5 3.5 -4.5 8.5t3 11l45 84q7 14 22 14h142q16 0 16 -12q0 -6 -4 -11l-65 -86q-9 -12 -23 -12h-119q-8 0 -12.5 3.5z" />
    <glyph glyph-name="ucircumflex" unicode="&#xfb;" 
d="M350 520h150q19 0 19 -19v-482q0 -19 -19 -19h-150q-19 0 -19 19v24q0 5 -3 6t-6 -3q-40 -54 -125 -54q-76 0 -121 49.5t-45 137.5v322q0 19 19 19h150q19 0 19 -19v-281q0 -30 15.5 -48.5t40.5 -18.5q21 0 35.5 13t19.5 35q1 4 1 10v290q0 19 19 19zM108.5 574.5
q-4.5 3.5 -4.5 8.5q0 6 4 11l67 94q8 12 23 12h149q16 0 24 -12l68 -94q4 -5 4 -11q0 -5 -4.5 -8.5t-11.5 -3.5h-103q-15 0 -22 13l-22 39q-2 4 -6 4t-6 -4l-22 -39q-7 -13 -22 -13h-104q-7 0 -11.5 3.5z" />
    <glyph glyph-name="udieresis" unicode="&#xfc;" 
d="M350 520h150q19 0 19 -19v-482q0 -19 -19 -19h-150q-19 0 -19 19v24q0 5 -3 6t-6 -3q-40 -54 -125 -54q-76 0 -121 49.5t-45 137.5v322q0 19 19 19h150q19 0 19 -19v-281q0 -30 15.5 -48.5t40.5 -18.5q21 0 35.5 13t19.5 35q1 4 1 10v290q0 19 19 19zM108.5 575
q-24.5 24 -24.5 63t24.5 63t62.5 24t61.5 -24t23.5 -63t-23.5 -63t-61.5 -24t-62.5 24zM315.5 575q-23.5 24 -23.5 63t23.5 63t62.5 24t62.5 -24t23.5 -63t-23.5 -63t-62.5 -24t-62.5 24z" />
    <glyph glyph-name="yacute" unicode="&#xfd;" horiz-adv-x="534" 
d="M37 -180v116q0 9 2 14t4 5h5q65 0 92.5 7.5t31.5 32.5q1 4 -1 10l-155 493q-1 3 -1 7q0 15 17 15h160q18 0 21 -17l50 -229q1 -5 4.5 -4.5t5.5 5.5l47 228q3 17 21 17h161q10 0 14.5 -6t1.5 -16l-162 -500q-26 -77 -55 -117t-86.5 -60t-163.5 -20h-7q-7 0 -7 19z
M190.5 587.5q-4.5 3.5 -4.5 8.5t3 11l45 84q7 14 22 14h142q16 0 16 -12q0 -6 -4 -11l-65 -86q-9 -12 -23 -12h-119q-8 0 -12.5 3.5z" />
    <glyph glyph-name="thorn" unicode="&#xfe;" horiz-adv-x="549" 
d="M539 262q0 -62 -15 -112q-22 -73 -75.5 -115.5t-120.5 -42.5q-59 0 -95 31q-4 3 -6.5 2t-2.5 -6v-200q0 -19 -19 -19h-150q-19 0 -19 19v862q0 19 19 19h150q19 0 19 -19v-173q0 -5 2.5 -6t6.5 2q35 24 87 24q71 0 122 -38.5t75 -99.5q22 -56 22 -128zM342 259
q0 47 -15 75q-17 33 -53 33q-29 0 -47 -24q-3 -4 -3 -9v-147q0 -4 3 -10q18 -24 47 -24q35 0 53 33q15 29 15 73z" />
    <glyph glyph-name="ydieresis" unicode="&#xff;" horiz-adv-x="534" 
d="M37 -180v116q0 9 2 14t4 5h5q65 0 92.5 7.5t31.5 32.5q1 4 -1 10l-155 493q-1 3 -1 7q0 15 17 15h160q18 0 21 -17l50 -229q1 -5 4.5 -4.5t5.5 5.5l47 228q3 17 21 17h161q10 0 14.5 -6t1.5 -16l-162 -500q-26 -77 -55 -117t-86.5 -60t-163.5 -20h-7q-7 0 -7 19z
M100.5 588q-24.5 24 -24.5 63t24.5 63t62.5 24t61.5 -24t23.5 -63t-23.5 -63t-61.5 -24t-62.5 24zM307.5 588q-23.5 24 -23.5 63t23.5 63t62.5 24t62.5 -24t23.5 -63t-23.5 -63t-62.5 -24t-62.5 24z" />
    <glyph glyph-name="Amacron" unicode="&#x100;" horiz-adv-x="714" 
d="M490 16l-20 72q-2 7 -9 7h-208q-7 0 -9 -7l-20 -72q-4 -16 -21 -16h-162q-10 0 -14.5 6t-1.5 16l208 662q5 16 21 16h206q16 0 21 -16l208 -662q1 -3 1 -7q0 -15 -17 -15h-162q-17 0 -21 16zM288 246q0 -7 7 -7h124q4 0 6 2.5t1 6.5l-64 231q-1 5 -4.5 5t-5.5 -5
l-64 -231v-2zM200 766v87q0 19 19 19h273q19 0 19 -19v-87q0 -19 -19 -19h-273q-19 0 -19 19z" />
    <glyph glyph-name="amacron" unicode="&#x101;" horiz-adv-x="540" 
d="M384 505q57 -23 90 -63t33 -87v-336q0 -19 -19 -19h-150q-19 0 -19 19v18q0 5 -2.5 6t-6.5 -3q-17 -25 -47 -36.5t-75 -11.5q-82 0 -129 37.5t-47 109.5q0 76 53.5 117t155.5 41h90q8 0 8 8v15q0 21 -15.5 34t-41.5 13q-17 0 -30.5 -5.5t-19.5 -14.5q-6 -8 -10 -11
t-12 -2l-154 20q-18 2 -17 15q4 45 36.5 81t85.5 57t118 21q68 0 125 -23zM298.5 139q20.5 17 20.5 46v10q0 8 -8 8h-47q-63 0 -63 -41q0 -18 11.5 -29t33.5 -11q32 0 52.5 17zM108 594v87q0 19 19 19h273q19 0 19 -19v-87q0 -19 -19 -19h-273q-19 0 -19 19z" />
    <glyph glyph-name="Abreve" unicode="&#x102;" horiz-adv-x="714" 
d="M490 16l-20 72q-2 7 -9 7h-208q-7 0 -9 -7l-20 -72q-4 -16 -21 -16h-162q-10 0 -14.5 6t-1.5 16l208 662q5 16 21 16h206q16 0 21 -16l208 -662q1 -3 1 -7q0 -15 -17 -15h-162q-17 0 -21 16zM288 246q0 -7 7 -7h124q4 0 6 2.5t1 6.5l-64 231q-1 5 -4.5 5t-5.5 -5
l-64 -231v-2zM265.5 753.5q-37.5 30.5 -44.5 77.5v4q0 7 5 11.5t13 4.5h57q15 0 21 -17q4 -14 14 -22.5t24 -8.5t24 8.5t14 22.5q6 17 21 17h57q9 0 14.5 -5t4.5 -14q-8 -47 -46 -78t-89 -31q-52 0 -89.5 30.5z" />
    <glyph glyph-name="abreve" unicode="&#x103;" horiz-adv-x="540" 
d="M384 505q57 -23 90 -63t33 -87v-336q0 -19 -19 -19h-150q-19 0 -19 19v18q0 5 -2.5 6t-6.5 -3q-17 -25 -47 -36.5t-75 -11.5q-82 0 -129 37.5t-47 109.5q0 76 53.5 117t155.5 41h90q8 0 8 8v15q0 21 -15.5 34t-41.5 13q-17 0 -30.5 -5.5t-19.5 -14.5q-6 -8 -10 -11
t-12 -2l-154 20q-18 2 -17 15q4 45 36.5 81t85.5 57t118 21q68 0 125 -23zM298.5 139q20.5 17 20.5 46v10q0 8 -8 8h-47q-63 0 -63 -41q0 -18 11.5 -29t33.5 -11q32 0 52.5 17zM173.5 581.5q-37.5 30.5 -44.5 77.5v4q0 7 5 11.5t13 4.5h57q15 0 21 -17q4 -14 14 -22.5
t24 -8.5t24 8.5t14 22.5q6 17 21 17h57q9 0 14.5 -5t4.5 -14q-8 -47 -46 -78t-89 -31q-52 0 -89.5 30.5z" />
    <glyph glyph-name="Aogonek" unicode="&#x104;" horiz-adv-x="714" 
d="M490 16l-20 72q-2 7 -9 7h-208q-7 0 -9 -7l-20 -72q-4 -16 -21 -16h-162q-10 0 -14.5 6t-1.5 16l208 662q5 16 21 16h206q16 0 21 -16l208 -662q1 -3 1 -7q0 -15 -17 -15h-162q-17 0 -21 16zM288 246q0 -7 7 -7h124q4 0 6 2.5t1 6.5l-64 231q-1 5 -4.5 5t-5.5 -5
l-64 -231v-2zM646 -166q0 -14 -12 -19q-33 -13 -71 -13q-36 0 -63 15.5t-37 51.5q-4 12 -4 26q0 51 53 96q9 9 23 9h75q15 0 15 -8q0 -7 -9 -14q-36 -29 -36 -50q0 -10 7 -16t18 -6q7 0 11 1q8 2 11 2q11 0 12 -13l7 -58v-4z" />
    <glyph glyph-name="aogonek" unicode="&#x105;" horiz-adv-x="600" 
d="M460.5 -90q6.5 -4 15.5 -4q7 0 11 1q8 2 11 2q11 0 12 -13l7 -58v-4q0 -14 -12 -19q-33 -13 -71 -13q-36 0 -63 15.5t-37 51.5q-4 12 -4 27q0 49 51 94q4 4 3 7t-6 3h-40q-19 0 -19 19v18q0 5 -2.5 6t-6.5 -3q-17 -25 -47 -36.5t-75 -11.5q-82 0 -129 37.5t-47 109.5
q0 76 53.5 117t155.5 41h90q8 0 8 8v15q0 21 -15.5 34t-41.5 13q-17 0 -30.5 -5.5t-19.5 -14.5q-6 -8 -10 -11t-12 -2l-154 20q-19 2 -17 20q6 43 39 78.5t85 55.5t116 20q68 0 125 -23t90 -63t33 -87v-350v-4q0 -2 -17 -19q-7 -6 -25 -24q-19 -22 -13 -37q2 -7 8.5 -11z
M298.5 139q20.5 17 20.5 46v10q0 8 -8 8h-47q-63 0 -63 -41q0 -18 11.5 -29t33.5 -11q32 0 52.5 17z" />
    <glyph glyph-name="Cacute" unicode="&#x106;" horiz-adv-x="609" 
d="M161.5 24q-62.5 32 -97 90.5t-34.5 135.5v202q0 76 34.5 134t97 90t144.5 32t144.5 -30t97 -84.5t34.5 -126.5q0 -9 -18 -11l-150 -10h-5q-15 0 -15 5v6q0 41 -24 65.5t-64 24.5t-64 -24.5t-24 -65.5v-215q0 -40 24 -64.5t64 -24.5t64 24.5t24 64.5q0 5 5.5 8.5t14.5 2.5
l150 -8q18 -1 18 -5v-5q0 -72 -34.5 -127t-97 -85.5t-144.5 -30.5t-144.5 32zM230.5 762.5q-4.5 3.5 -4.5 8.5t3 11l45 84q7 14 22 14h142q16 0 16 -12q0 -6 -4 -11l-65 -86q-9 -12 -23 -12h-119q-8 0 -12.5 3.5z" />
    <glyph glyph-name="cacute" unicode="&#x107;" horiz-adv-x="549" 
d="M134 33.5q-63 41.5 -92 115.5q-20 51 -20 114q0 62 20 113q28 71 92 111.5t148 40.5q85 0 150.5 -42.5t88.5 -106.5q8 -21 9 -34v-2q0 -16 -17 -19l-147 -23q-1 0 -2.5 -0.5t-3.5 0.5q-13 0 -15 12l-4 14q-5 17 -21.5 28.5t-38.5 11.5q-40 0 -57 -36q-12 -25 -12 -69
q0 -41 11 -69q17 -40 58 -40q42 0 58 41l1.5 4.5l0.5 1.5v0q1 5 7.5 11t14.5 5l148 -24q19 -3 16 -21q-2 -14 -6 -27q-26 -73 -90.5 -112.5t-148.5 -39.5q-85 0 -148 41.5zM202.5 582.5q-4.5 3.5 -4.5 8.5t3 11l45 84q7 14 22 14h142q16 0 16 -12q0 -6 -4 -11l-65 -86
q-9 -12 -23 -12h-119q-8 0 -12.5 3.5z" />
    <glyph glyph-name="Cdotaccent" unicode="&#x10a;" horiz-adv-x="609" 
d="M161.5 24q-62.5 32 -97 90.5t-34.5 135.5v202q0 76 34.5 134t97 90t144.5 32t144.5 -30t97 -84.5t34.5 -126.5q0 -9 -18 -11l-150 -10h-5q-15 0 -15 5v6q0 41 -24 65.5t-64 24.5t-64 -24.5t-24 -65.5v-215q0 -40 24 -64.5t64 -24.5t64 24.5t24 64.5q0 5 5.5 8.5t14.5 2.5
l150 -8q18 -1 18 -5v-5q0 -72 -34.5 -127t-97 -85.5t-144.5 -30.5t-144.5 32zM249.5 761q-21.5 22 -21.5 57q0 36 21.5 57.5t56.5 21.5t56 -21.5t21 -57.5q0 -35 -21 -57t-56 -22t-56.5 22z" />
    <glyph glyph-name="cdotaccent" unicode="&#x10b;" horiz-adv-x="549" 
d="M134 33.5q-63 41.5 -92 115.5q-20 51 -20 114q0 62 20 113q28 71 92 111.5t148 40.5q85 0 150.5 -42.5t88.5 -106.5q8 -21 9 -34v-2q0 -16 -17 -19l-147 -23q-1 0 -2.5 -0.5t-3.5 0.5q-13 0 -15 12l-4 14q-5 17 -21.5 28.5t-38.5 11.5q-40 0 -57 -36q-12 -25 -12 -69
q0 -41 11 -69q17 -40 58 -40q42 0 58 41l1.5 4.5l0.5 1.5v0q1 5 7.5 11t14.5 5l148 -24q19 -3 16 -21q-2 -14 -6 -27q-26 -73 -90.5 -112.5t-148.5 -39.5q-85 0 -148 41.5zM221.5 581q-21.5 22 -21.5 57q0 36 21.5 57.5t56.5 21.5t56 -21.5t21 -57.5q0 -35 -21 -57t-56 -22
t-56.5 22z" />
    <glyph glyph-name="Ccaron" unicode="&#x10c;" horiz-adv-x="609" 
d="M161.5 24q-62.5 32 -97 90.5t-34.5 135.5v202q0 76 34.5 134t97 90t144.5 32t144.5 -30t97 -84.5t34.5 -126.5q0 -9 -18 -11l-150 -10h-5q-15 0 -15 5v6q0 41 -24 65.5t-64 24.5t-64 -24.5t-24 -65.5v-215q0 -40 24 -64.5t64 -24.5t64 24.5t24 64.5q0 5 5.5 8.5t14.5 2.5
l150 -8q18 -1 18 -5v-5q0 -72 -34.5 -127t-97 -85.5t-144.5 -30.5t-144.5 32zM199 766l-57 93q-4 8 -4 11q0 5 5 8.5t12 3.5h101q15 0 22 -13l22 -39q2 -4 6 -4t6 4l22 39q7 13 22 13h100q7 0 11.5 -3.5t4.5 -8.5q0 -6 -4 -11l-59 -93q-8 -13 -23 -13h-164q-16 0 -23 13z
" />
    <glyph glyph-name="ccaron" unicode="&#x10d;" horiz-adv-x="549" 
d="M134 33.5q-63 41.5 -92 115.5q-20 51 -20 114q0 62 20 113q28 71 92 111.5t148 40.5q85 0 150.5 -42.5t88.5 -106.5q8 -21 9 -34v-2q0 -16 -17 -19l-147 -23q-1 0 -2.5 -0.5t-3.5 0.5q-13 0 -15 12l-4 14q-5 17 -21.5 28.5t-38.5 11.5q-40 0 -57 -36q-12 -25 -12 -69
q0 -41 11 -69q17 -40 58 -40q42 0 58 41l1.5 4.5l0.5 1.5v0q1 5 7.5 11t14.5 5l148 -24q19 -3 16 -21q-2 -14 -6 -27q-26 -73 -90.5 -112.5t-148.5 -39.5q-85 0 -148 41.5zM171 586l-57 93q-4 8 -4 11q0 5 5 8.5t12 3.5h101q15 0 22 -13l22 -39q2 -4 6 -4t6 4l22 39
q7 13 22 13h100q7 0 11.5 -3.5t4.5 -8.5q0 -6 -4 -11l-59 -93q-8 -13 -23 -13h-164q-16 0 -23 13z" />
    <glyph glyph-name="Dcaron" unicode="&#x10e;" horiz-adv-x="618" 
d="M39 19v662q0 19 19 19h253q81 0 143.5 -28t96.5 -79t34 -118v-250q0 -67 -34 -118t-96.5 -79t-143.5 -28h-253q-19 0 -19 19zM235 161h83q34 0 56 26.5t23 69.5v186q0 43 -22 69.5t-58 26.5h-82q-8 0 -8 -8v-362q0 -8 8 -8zM186 763l-57 93q-4 8 -4 11q0 5 5 8.5t12 3.5
h101q15 0 22 -13l22 -39q2 -4 6 -4t6 4l22 39q7 13 22 13h100q7 0 11.5 -3.5t4.5 -8.5q0 -6 -4 -11l-59 -93q-8 -13 -23 -13h-164q-16 0 -23 13z" />
    <glyph glyph-name="dcaron" unicode="&#x10f;" horiz-adv-x="760" 
d="M767 680q0 -6 -4 -11l-65 -86q-9 -12 -23 -12h-136q-8 0 -8 -8v-544q0 -19 -19 -19h-150q-19 0 -19 19v21q0 5 -3 6t-6 -4q-39 -50 -113 -50q-67 0 -120.5 42.5t-75.5 115.5q-15 50 -15 112q0 72 22 128q24 61 75 99.5t122 38.5t105 -42q4 -4 6.5 -2.5t2.5 6.5v191
q0 19 19 19h150q19 0 19 -19v-88q0 -6 3.5 -6.5t6.5 4.5l46 87q7 14 22 14h142q16 0 16 -12zM343 259q0 48 -16 77q-18 31 -52 31q-36 0 -53 -33q-15 -28 -15 -75q0 -44 15 -73q18 -33 53 -33t53 34q15 29 15 72z" />
    <glyph glyph-name="Dcroat" unicode="&#x110;" horiz-adv-x="660" 
d="M496.5 672q62.5 -28 96.5 -79t34 -118v-250q0 -67 -34 -118t-96.5 -79t-143.5 -28h-253q-19 0 -19 19v269q0 8 -8 8h-15q-19 0 -19 19v87q0 19 19 19h15q8 0 8 8v252q0 19 19 19h253q81 0 143.5 -28zM439 443q0 43 -22 69.5t-58 26.5h-82q-8 0 -8 -8v-102q0 -8 8 -8h45
q19 0 19 -19v-87q0 -19 -19 -19h-45q-8 0 -8 -8v-119q0 -8 8 -8h83q34 0 56 26.5t23 69.5v186z" />
    <glyph glyph-name="dcroat" unicode="&#x111;" horiz-adv-x="600" 
d="M578 639v-72q0 -19 -19 -19h-20q-8 0 -8 -8v-521q0 -19 -19 -19h-150q-19 0 -19 19v21q0 5 -3 6t-6 -4q-39 -50 -113 -50q-67 0 -120.5 42.5t-75.5 115.5q-15 50 -15 112q0 72 22 128q24 61 75 99.5t122 38.5t105 -42q4 -4 6.5 -2.5t2.5 6.5v50q0 8 -8 8h-116
q-19 0 -19 19v72q0 19 19 19h116q8 0 8 8v15q0 19 19 19h150q19 0 19 -19v-15q0 -8 8 -8h20q19 0 19 -19zM343 259q0 48 -16 77q-18 31 -52 31q-36 0 -53 -33q-15 -28 -15 -75q0 -44 15 -73q18 -33 53 -33t53 34q15 29 15 72z" />
    <glyph glyph-name="Emacron" unicode="&#x112;" horiz-adv-x="570" 
d="M527 539h-292q-8 0 -8 -8v-88q0 -8 8 -8h178q19 0 19 -19v-122q0 -19 -19 -19h-178q-8 0 -8 -8v-98q0 -8 8 -8h292q19 0 19 -19v-123q0 -19 -19 -19h-469q-19 0 -19 19v662q0 19 19 19h469q19 0 19 -19v-123q0 -19 -19 -19zM136 779v87q0 19 19 19h273q19 0 19 -19v-87
q0 -19 -19 -19h-273q-19 0 -19 19z" />
    <glyph glyph-name="emacron" unicode="&#x113;" horiz-adv-x="556" 
d="M363 158.5q26 7.5 43 20.5q8 6 13 6q7 0 13 -8l68 -94q5 -8 5 -12q0 -7 -7 -14q-36 -33 -87.5 -49t-110.5 -16q-75 0 -132.5 26.5t-93.5 75.5q-50 70 -50 170q0 43 11 84q23 81 90.5 130.5t156.5 49.5q103 0 167 -66.5t84 -181.5q5 -24 6 -48q0 -19 -19 -19h-297
q-8 0 -7 -9l5 -13q19 -40 86 -40q30 0 56 7.5zM221 327l-3 -8l-1 -3q0 -6 8 -6h108q8 0 8 6q0 3 -1.5 6l-2.5 5q-17 40 -59 40q-41 0 -57 -40zM121 594v87q0 19 19 19h273q19 0 19 -19v-87q0 -19 -19 -19h-273q-19 0 -19 19z" />
    <glyph glyph-name="Edotaccent" unicode="&#x116;" horiz-adv-x="570" 
d="M527 539h-292q-8 0 -8 -8v-88q0 -8 8 -8h178q19 0 19 -19v-122q0 -19 -19 -19h-178q-8 0 -8 -8v-98q0 -8 8 -8h292q19 0 19 -19v-123q0 -19 -19 -19h-469q-19 0 -19 19v662q0 19 19 19h469q19 0 19 -19v-123q0 -19 -19 -19zM234.5 766q-21.5 22 -21.5 57q0 36 21.5 57.5
t56.5 21.5t56 -21.5t21 -57.5q0 -35 -21 -57t-56 -22t-56.5 22z" />
    <glyph glyph-name="edotaccent" unicode="&#x117;" horiz-adv-x="556" 
d="M363 158.5q26 7.5 43 20.5q8 6 13 6q7 0 13 -8l68 -94q5 -8 5 -12q0 -7 -7 -14q-36 -33 -87.5 -49t-110.5 -16q-75 0 -132.5 26.5t-93.5 75.5q-50 70 -50 170q0 43 11 84q23 81 90.5 130.5t156.5 49.5q103 0 167 -66.5t84 -181.5q5 -24 6 -48q0 -19 -19 -19h-297
q-8 0 -7 -9l5 -13q19 -40 86 -40q30 0 56 7.5zM221 327l-3 -8l-1 -3q0 -6 8 -6h108q8 0 8 6q0 3 -1.5 6l-2.5 5q-17 40 -59 40q-41 0 -57 -40zM219.5 581q-21.5 22 -21.5 57q0 36 21.5 57.5t56.5 21.5t56 -21.5t21 -57.5q0 -35 -21 -57t-56 -22t-56.5 22z" />
    <glyph glyph-name="Eogonek" unicode="&#x118;" horiz-adv-x="570" 
d="M527 539h-292q-8 0 -8 -8v-88q0 -8 8 -8h178q19 0 19 -19v-122q0 -19 -19 -19h-178q-8 0 -8 -8v-98q0 -8 8 -8h292q19 0 19 -19v-123q0 -19 -19 -19h-169q-6 0 -11 -4q-44 -36 -35 -57q2 -7 8.5 -11t15.5 -4q7 0 11 1q8 2 11 2q11 0 12 -13l7 -58v-4q0 -14 -12 -19
q-33 -13 -71 -13q-36 0 -63 15.5t-37 51.5q-4 18 -4 26q0 38 34 77q7 10 -4 10h-162q-19 0 -19 19v662q0 19 19 19h469q19 0 19 -19v-123q0 -19 -19 -19z" />
    <glyph glyph-name="eogonek" unicode="&#x119;" horiz-adv-x="556" 
d="M363 158.5q26 7.5 43 20.5q8 6 13 6q7 0 13 -8l68 -94q5 -8 5 -12q0 -7 -7 -14q-51 -47 -135 -60q-5 -1 -9 -4q-26 -19 -38 -35.5t-7 -28.5q2 -7 8.5 -11t15.5 -4q7 0 11 1q8 2 11 2q11 0 12 -13l7 -58v-4q0 -14 -12 -19q-33 -13 -71 -13q-36 0 -63 15.5t-37 51.5
q-4 12 -4 26q0 44 42 86q3 4 2 6.5t-5 3.5q-98 22 -152 95q-50 70 -50 170q0 43 11 84q23 81 90.5 130.5t156.5 49.5q103 0 167 -66.5t84 -181.5q5 -24 6 -48q0 -19 -19 -19h-297q-8 0 -7 -9l5 -13q19 -40 86 -40q30 0 56 7.5zM221 327l-3 -8l-1 -3q0 -6 8 -6h108q8 0 8 6
q0 3 -1.5 6l-2.5 5q-17 40 -59 40q-41 0 -57 -40z" />
    <glyph glyph-name="Ecaron" unicode="&#x11a;" horiz-adv-x="570" 
d="M527 539h-292q-8 0 -8 -8v-88q0 -8 8 -8h178q19 0 19 -19v-122q0 -19 -19 -19h-178q-8 0 -8 -8v-98q0 -8 8 -8h292q19 0 19 -19v-123q0 -19 -19 -19h-469q-19 0 -19 19v662q0 19 19 19h469q19 0 19 -19v-123q0 -19 -19 -19zM184 771l-57 93q-4 8 -4 11q0 5 5 8.5t12 3.5
h101q15 0 22 -13l22 -39q2 -4 6 -4t6 4l22 39q7 13 22 13h100q7 0 11.5 -3.5t4.5 -8.5q0 -6 -4 -11l-59 -93q-8 -13 -23 -13h-164q-16 0 -23 13z" />
    <glyph glyph-name="ecaron" unicode="&#x11b;" horiz-adv-x="556" 
d="M363 158.5q26 7.5 43 20.5q8 6 13 6q7 0 13 -8l68 -94q5 -8 5 -12q0 -7 -7 -14q-36 -33 -87.5 -49t-110.5 -16q-75 0 -132.5 26.5t-93.5 75.5q-50 70 -50 170q0 43 11 84q23 81 90.5 130.5t156.5 49.5q103 0 167 -66.5t84 -181.5q5 -24 6 -48q0 -19 -19 -19h-297
q-8 0 -7 -9l5 -13q19 -40 86 -40q30 0 56 7.5zM221 327l-3 -8l-1 -3q0 -6 8 -6h108q8 0 8 6q0 3 -1.5 6l-2.5 5q-17 40 -59 40q-41 0 -57 -40zM169 586l-57 93q-4 8 -4 11q0 5 5 8.5t12 3.5h101q15 0 22 -13l22 -39q2 -4 6 -4t6 4l22 39q7 13 22 13h100q7 0 11.5 -3.5
t4.5 -8.5q0 -6 -4 -11l-59 -93q-8 -13 -23 -13h-164q-16 0 -23 13z" />
    <glyph glyph-name="Gbreve" unicode="&#x11e;" horiz-adv-x="608" 
d="M161.5 25q-62.5 33 -97 93t-34.5 138v189q0 78 34.5 137.5t97 92.5t144.5 33q80 0 143 -31.5t97.5 -85.5t34.5 -118q0 -16 -19 -16h-149q-19 0 -19 5v4q0 33 -23.5 57t-64.5 24q-40 0 -64 -26.5t-24 -70.5v-200q0 -43 27.5 -70t68.5 -27q37 0 60.5 20.5t23.5 56.5v10
q0 8 -8 8h-81q-19 0 -19 19v112q0 19 19 19h253q19 0 19 -19v-133q0 -74 -34.5 -132t-97 -90t-143.5 -32q-82 0 -144.5 33zM216.5 761.5q-37.5 30.5 -44.5 77.5v4q0 7 5 11.5t13 4.5h57q15 0 21 -17q4 -14 14 -22.5t24 -8.5t24 8.5t14 22.5q6 17 21 17h57q9 0 14.5 -5
t4.5 -14q-8 -47 -46 -78t-89 -31q-52 0 -89.5 30.5z" />
    <glyph glyph-name="gbreve" unicode="&#x11f;" horiz-adv-x="569" 
d="M367 520h150q19 0 19 -19v-433q0 -143 -82.5 -203.5t-207.5 -60.5q-44 0 -102 9q-8 1 -12.5 7t-3.5 14l6 127q1 16 14 16q5 0 8 -1q39 -9 75 -9q45 0 75 17t39 53v2q0 4 -4.5 6t-8.5 -1q-34 -26 -90 -26q-160 0 -204 130q-17 50 -17 117q0 74 21 126q24 63 75.5 100
t118.5 37t103 -38q4 -4 6.5 -3t2.5 6v8q0 19 19 19zM348 266q0 40 -11 65q-17 36 -57 36q-35 0 -53 -35q-16 -28 -16 -69q0 -40 13 -65q18 -35 58 -35t56 34q10 26 10 69zM209.5 582.5q-37.5 30.5 -44.5 77.5v4q0 7 5 11.5t13 4.5h57q15 0 21 -17q4 -14 14 -22.5t24 -8.5
t24 8.5t14 22.5q6 17 21 17h57q9 0 14.5 -5t4.5 -14q-8 -47 -46 -78t-89 -31q-52 0 -89.5 30.5z" />
    <glyph glyph-name="Gdotaccent" unicode="&#x120;" horiz-adv-x="608" 
d="M161.5 25q-62.5 33 -97 93t-34.5 138v189q0 78 34.5 137.5t97 92.5t144.5 33q80 0 143 -31.5t97.5 -85.5t34.5 -118q0 -16 -19 -16h-149q-19 0 -19 5v4q0 33 -23.5 57t-64.5 24q-40 0 -64 -26.5t-24 -70.5v-200q0 -43 27.5 -70t68.5 -27q37 0 60.5 20.5t23.5 56.5v10
q0 8 -8 8h-81q-19 0 -19 19v112q0 19 19 19h253q19 0 19 -19v-133q0 -74 -34.5 -132t-97 -90t-143.5 -32q-82 0 -144.5 33zM249.5 761q-21.5 22 -21.5 57q0 36 21.5 57.5t56.5 21.5t56 -21.5t21 -57.5q0 -35 -21 -57t-56 -22t-56.5 22z" />
    <glyph glyph-name="gdotaccent" unicode="&#x121;" horiz-adv-x="569" 
d="M367 520h150q19 0 19 -19v-433q0 -143 -82.5 -203.5t-207.5 -60.5q-44 0 -102 9q-8 1 -12.5 7t-3.5 14l6 127q1 16 14 16q5 0 8 -1q39 -9 75 -9q45 0 75 17t39 53v2q0 4 -4.5 6t-8.5 -1q-34 -26 -90 -26q-160 0 -204 130q-17 50 -17 117q0 74 21 126q24 63 75.5 100
t118.5 37t103 -38q4 -4 6.5 -3t2.5 6v8q0 19 19 19zM348 266q0 40 -11 65q-17 36 -57 36q-35 0 -53 -35q-16 -28 -16 -69q0 -40 13 -65q18 -35 58 -35t56 34q10 26 10 69zM242.5 582q-21.5 22 -21.5 57q0 36 21.5 57.5t56.5 21.5t56 -21.5t21 -57.5q0 -35 -21 -57t-56 -22
t-56.5 22z" />
    <glyph glyph-name="uni0122" unicode="&#x122;" horiz-adv-x="608" 
d="M161.5 25q-62.5 33 -97 93t-34.5 138v189q0 78 34.5 137.5t97 92.5t144.5 33q80 0 143 -31.5t97.5 -85.5t34.5 -118q0 -16 -19 -16h-149q-19 0 -19 5v4q0 33 -23.5 57t-64.5 24q-40 0 -64 -26.5t-24 -70.5v-200q0 -43 27.5 -70t68.5 -27q37 0 60.5 20.5t23.5 56.5v10
q0 8 -8 8h-81q-19 0 -19 19v112q0 19 19 19h253q19 0 19 -19v-133q0 -74 -34.5 -132t-97 -90t-143.5 -32q-82 0 -144.5 33zM180.5 -175.5q-4.5 3.5 -4.5 8.5t3 11l45 84q7 14 22 14h142q16 0 16 -12q0 -6 -4 -11l-65 -86q-9 -12 -23 -12h-119q-8 0 -12.5 3.5z" />
    <glyph glyph-name="uni0123" unicode="&#x123;" horiz-adv-x="569" 
d="M424.5 696.5q4.5 -3.5 4.5 -8.5t-3 -11l-45 -84q-7 -14 -22 -14h-142q-16 0 -16 12q0 6 4 11l65 86q9 12 23 12h119q8 0 12.5 -3.5zM367 520h150q19 0 19 -19v-433q0 -143 -82.5 -203.5t-207.5 -60.5q-44 0 -102 9q-8 1 -12.5 7t-3.5 14l6 127q1 16 14 16q5 0 8 -1
q39 -9 75 -9q45 0 75 17t39 53v2q0 4 -4.5 6t-8.5 -1q-34 -26 -90 -26q-160 0 -204 130q-17 50 -17 117q0 74 21 126q24 63 75.5 100t118.5 37t103 -38q4 -4 6.5 -3t2.5 6v8q0 19 19 19zM348 266q0 40 -11 65q-17 36 -57 36q-35 0 -53 -35q-16 -28 -16 -69q0 -40 13 -65
q18 -35 58 -35t56 34q10 26 10 69z" />
    <glyph glyph-name="Hbar" unicode="&#x126;" horiz-adv-x="611" 
d="M637 612v-87q0 -19 -19 -19h-29q-8 0 -8 -8v-479q0 -19 -19 -19h-150q-19 0 -19 19v247q0 8 -8 8h-150q-8 0 -8 -8v-247q0 -19 -19 -19h-150q-19 0 -19 19v479q0 8 -8 8h-29q-19 0 -19 19v87q0 19 19 19h29q8 0 8 8v42q0 19 19 19h150q19 0 19 -19v-42q0 -8 8 -8h150
q8 0 8 8v42q0 19 19 19h150q19 0 19 -19v-42q0 -8 8 -8h29q19 0 19 -19zM393 443v55q0 8 -8 8h-150q-8 0 -8 -8v-55q0 -8 8 -8h150q8 0 8 8z" />
    <glyph glyph-name="hbar" unicode="&#x127;" 
d="M435 506q40 -22 63.5 -64.5t23.5 -100.5v-322q0 -19 -19 -19h-150q-19 0 -19 19v281q0 30 -15.5 48.5t-40.5 18.5q-26 0 -41.5 -18.5t-15.5 -48.5v-281q0 -19 -19 -19h-150q-19 0 -19 19v516q0 8 -8 8h-29q-19 0 -19 19v72q0 19 19 19h29q8 0 8 8v20q0 19 19 19h150
q19 0 19 -19v-20q0 -8 8 -8h107q19 0 19 -19v-72q0 -19 -19 -19h-107q-8 0 -8 -8v-60q0 -5 2.5 -6.5t5.5 2.5q38 57 116 57q50 0 90 -22z" />
    <glyph glyph-name="Imacron" unicode="&#x12a;" horiz-adv-x="266" 
d="M39 19v662q0 19 19 19h150q19 0 19 -19v-662q0 -19 -19 -19h-150q-19 0 -19 19zM-22 779v87q0 19 19 19h273q19 0 19 -19v-87q0 -19 -19 -19h-273q-19 0 -19 19z" />
    <glyph glyph-name="imacron" unicode="&#x12b;" horiz-adv-x="255" 
d="M32 19v482q0 19 19 19h150q19 0 19 -19v-482q0 -19 -19 -19h-150q-19 0 -19 19zM-33 598v87q0 19 19 19h273q19 0 19 -19v-87q0 -19 -19 -19h-273q-19 0 -19 19z" />
    <glyph glyph-name="Iogonek" unicode="&#x12e;" horiz-adv-x="267" 
d="M39 19v662q0 19 19 19h150q19 0 19 -19v-662q0 -19 -19 -19h-150q-19 0 -19 19zM226 -166q0 -14 -12 -19q-33 -13 -71 -13q-36 0 -63 15.5t-37 51.5q-4 12 -4 26q0 51 53 96q9 9 23 9h75q15 0 15 -8q0 -7 -9 -14q-36 -29 -36 -50q0 -10 7 -16t18 -6q7 0 11 1q8 2 11 2
q11 0 12 -13l7 -58v-4z" />
    <glyph glyph-name="iogonek" unicode="&#x12f;" horiz-adv-x="245" 
d="M30 19v482q0 19 19 19h150q19 0 19 -19v-482q0 -19 -19 -19h-150q-19 0 -19 19zM63.5 585q-21.5 22 -21.5 57q0 36 21.5 57.5t56.5 21.5t56 -21.5t21 -57.5q0 -35 -21 -57t-56 -22t-56.5 22zM214 -166q0 -14 -12 -19q-33 -13 -71 -13q-36 0 -63 15.5t-37 51.5
q-4 12 -4 26q0 51 53 96q9 9 23 9h75q15 0 15 -8q0 -7 -9 -14q-36 -29 -36 -50q0 -10 7 -16t18 -6q7 0 11 1q8 2 11 2q11 0 12 -13l7 -58v-4z" />
    <glyph glyph-name="Idotaccent" unicode="&#x130;" horiz-adv-x="266" 
d="M39 19v662q0 19 19 19h150q19 0 19 -19v-662q0 -19 -19 -19h-150q-19 0 -19 19zM76.5 766q-21.5 22 -21.5 57q0 36 21.5 57.5t56.5 21.5t56 -21.5t21 -57.5q0 -35 -21 -57t-56 -22t-56.5 22z" />
    <glyph glyph-name="dotlessi" unicode="&#x131;" horiz-adv-x="255" 
d="M32 19v482q0 19 19 19h150q19 0 19 -19v-482q0 -19 -19 -19h-150q-19 0 -19 19z" />
    <glyph glyph-name="ij" unicode="&#x133;" horiz-adv-x="515" 
d="M57 570q-30 29 -30 76t30 76t78 29q49 0 78.5 -29t29.5 -76t-29.5 -76t-78.5 -29q-48 0 -78 29zM41 19v482q0 19 19 19h150q19 0 19 -19v-482q0 -19 -19 -19h-150q-19 0 -19 19zM310 566.5q-30 30.5 -30 74.5q0 43 32.5 74t75.5 31q27 0 52 -14t40.5 -38.5t15.5 -52.5
q0 -44 -30.5 -74.5t-77.5 -30.5q-48 0 -78 30.5zM175 -182v118q0 19 21 19q8 -1 23 -1q44 0 59.5 15.5t15.5 56.5v475q0 19 19 19h150q19 0 19 -19v-472q0 -96 -24.5 -145.5t-85 -68.5t-178.5 -17q-19 2 -19 20z" />
    <glyph glyph-name="uni0136" unicode="&#x136;" horiz-adv-x="636" 
d="M39 19v662q0 19 19 19h150q19 0 19 -19v-229q0 -5 3.5 -6t6.5 3l169 239q8 12 23 12h170q15 0 15 -11q0 -7 -4 -12l-202 -282q-4 -6 -1 -11l212 -361q3 -6 3 -11q0 -12 -16 -12h-169q-15 0 -22 13l-135 240q-2 4 -5.5 4t-5.5 -4l-39 -59q-3 -6 -3 -10v-165q0 -19 -19 -19
h-150q-19 0 -19 19zM180.5 -167.5q-4.5 3.5 -4.5 8.5t3 11l45 84q7 14 22 14h142q16 0 16 -12q0 -6 -4 -11l-65 -86q-9 -12 -23 -12h-119q-8 0 -12.5 3.5z" />
    <glyph glyph-name="uni0137" unicode="&#x137;" horiz-adv-x="555" 
d="M33 19v662q0 19 19 19h150q19 0 19 -19v-277q0 -5 3.5 -6t6.5 3l79 107q9 12 23 12h171q16 0 16 -11q0 -7 -4 -12l-123 -167q-4 -6 -1 -11l144 -297q2 -3 2 -9q0 -13 -16 -13h-157q-16 0 -22 15l-78 185q-2 5 -5.5 5t-5.5 -4l-30 -50q-3 -6 -3 -10v-122q0 -19 -19 -19
h-150q-19 0 -19 19zM156.5 -167.5q-4.5 3.5 -4.5 8.5t3 11l45 84q7 14 22 14h142q16 0 16 -12q0 -6 -4 -11l-65 -86q-9 -12 -23 -12h-119q-8 0 -12.5 3.5z" />
    <glyph glyph-name="Lacute" unicode="&#x139;" horiz-adv-x="574" 
d="M39 19v662q0 19 19 19h150q19 0 19 -19v-512q0 -8 8 -8h302q19 0 19 -19v-123q0 -19 -19 -19h-479q-19 0 -19 19zM56.5 754.5q-4.5 3.5 -4.5 8.5t3 11l45 84q7 14 22 14h142q16 0 16 -12q0 -6 -4 -11l-65 -86q-9 -12 -23 -12h-119q-8 0 -12.5 3.5z" />
    <glyph glyph-name="lacute" unicode="&#x13a;" horiz-adv-x="260" 
d="M36 19v662q0 19 19 19h150q19 0 19 -19v-662q0 -19 -19 -19h-150q-19 0 -19 19zM55.5 754.5q-4.5 3.5 -4.5 8.5t3 11l45 84q7 14 22 14h142q16 0 16 -12q0 -6 -4 -11l-65 -86q-9 -12 -23 -12h-119q-8 0 -12.5 3.5z" />
    <glyph glyph-name="uni013B" unicode="&#x13b;" horiz-adv-x="574" 
d="M39 19v662q0 19 19 19h150q19 0 19 -19v-512q0 -8 8 -8h302q19 0 19 -19v-123q0 -19 -19 -19h-479q-19 0 -19 19zM148.5 -167.5q-4.5 3.5 -4.5 8.5t3 11l45 84q7 14 22 14h142q16 0 16 -12q0 -6 -4 -11l-65 -86q-9 -12 -23 -12h-119q-8 0 -12.5 3.5z" />
    <glyph glyph-name="uni013C" unicode="&#x13c;" horiz-adv-x="263" 
d="M36 19v662q0 19 19 19h150q19 0 19 -19v-662q0 -19 -19 -19h-150q-19 0 -19 19zM-9.5 -167.5q-4.5 3.5 -4.5 8.5t3 11l45 84q7 14 22 14h142q16 0 16 -12q0 -6 -4 -11l-65 -86q-9 -12 -23 -12h-119q-8 0 -12.5 3.5z" />
    <glyph glyph-name="Lcaron" unicode="&#x13d;" horiz-adv-x="574" 
d="M39 19v662q0 19 19 19h150q19 0 19 -19v-512q0 -8 8 -8h302q19 0 19 -19v-123q0 -19 -19 -19h-479q-19 0 -19 19zM25 758l-57 93q-4 8 -4 11q0 5 5 8.5t12 3.5h101q15 0 22 -13l22 -39q2 -4 6 -4t6 4l22 39q7 13 22 13h100q7 0 11.5 -3.5t4.5 -8.5q0 -6 -4 -11l-59 -93
q-8 -13 -23 -13h-164q-16 0 -23 13z" />
    <glyph glyph-name="lcaron" unicode="&#x13e;" horiz-adv-x="260" 
d="M36 19v662q0 19 19 19h150q19 0 19 -19v-662q0 -19 -19 -19h-150q-19 0 -19 19zM24 758l-57 93q-4 8 -4 11q0 5 5 8.5t12 3.5h101q15 0 22 -13l22 -39q2 -4 6 -4t6 4l22 39q7 13 22 13h100q7 0 11.5 -3.5t4.5 -8.5q0 -6 -4 -11l-59 -93q-8 -13 -23 -13h-164q-16 0 -23 13
z" />
    <glyph glyph-name="Lslash" unicode="&#x141;" horiz-adv-x="574" 
d="M235 161h302q19 0 19 -19v-123q0 -19 -19 -19h-479q-19 0 -19 19v132q0 5 -3 7t-7 -2l-49 -43q-8 -6 -13 -6q-7 0 -13 7l-68 78q-5 6 -5 13q0 8 7 14l147 129q4 3 4 10v323q0 19 19 19h150q19 0 19 -19v-151q0 -5 3 -6.5t7 2.5l148 130q8 6 14 6q7 0 13 -7l67 -78
q5 -6 5 -13t-7 -13l-246 -217q-4 -4 -4 -10v-155q0 -8 8 -8z" />
    <glyph glyph-name="lslash" unicode="&#x142;" horiz-adv-x="260" 
d="M382 408q0 -10 -11 -16l-141 -75q-6 -3 -6 -9v-289q0 -19 -19 -19h-150q-19 0 -19 19v184q0 5 -3 6.5t-7 -0.5l-38 -21q-6 -3 -10 -3q-10 0 -16 11l-44 85q-2 4 -2 10q0 10 10 16l104 57q6 3 6 9v308q0 19 19 19h150q19 0 19 -19v-202q0 -4 3 -6t7 0l71 39q5 3 9 3
q11 0 17 -11l48 -86q3 -6 3 -10z" />
    <glyph glyph-name="Nacute" unicode="&#x143;" horiz-adv-x="658" 
d="M39 19v662q0 19 19 19h144q16 0 23 -13l197 -331q3 -4 6 -4q4 0 4 7l-1 322q0 19 19 19h150q19 0 19 -19v-662q0 -19 -19 -19h-144q-16 0 -23 13l-198 337q-3 5 -6.5 4.5t-3.5 -6.5l2 -329q0 -19 -19 -19h-150q-19 0 -19 19zM242.5 767.5q-4.5 3.5 -4.5 8.5t3 11l45 84
q7 14 22 14h142q16 0 16 -12q0 -6 -4 -11l-65 -86q-9 -12 -23 -12h-119q-8 0 -12.5 3.5z" />
    <glyph glyph-name="nacute" unicode="&#x144;" 
d="M435 506q40 -22 63.5 -64.5t23.5 -100.5v-322q0 -19 -19 -19h-150q-19 0 -19 19v281q0 30 -15.5 48.5t-40.5 18.5q-26 0 -41.5 -18.5t-15.5 -48.5v-281q0 -19 -19 -19h-150q-19 0 -19 19v482q0 19 19 19h150q19 0 19 -19v-26q0 -5 2.5 -6.5t5.5 2.5q38 57 116 57
q50 0 90 -22zM208.5 574.5q-4.5 3.5 -4.5 8.5t3 11l45 84q7 14 22 14h142q16 0 16 -12q0 -6 -4 -11l-65 -86q-9 -12 -23 -12h-119q-8 0 -12.5 3.5z" />
    <glyph glyph-name="uni0145" unicode="&#x145;" horiz-adv-x="658" 
d="M39 19v662q0 19 19 19h144q16 0 23 -13l197 -331q3 -4 6 -4q4 0 4 7l-1 322q0 19 19 19h150q19 0 19 -19v-662q0 -19 -19 -19h-144q-16 0 -23 13l-198 337q-3 5 -6.5 4.5t-3.5 -6.5l2 -329q0 -19 -19 -19h-150q-19 0 -19 19zM202.5 -167.5q-4.5 3.5 -4.5 8.5t3 11l45 84
q7 14 22 14h142q16 0 16 -12q0 -6 -4 -11l-65 -86q-9 -12 -23 -12h-119q-8 0 -12.5 3.5z" />
    <glyph glyph-name="uni0146" unicode="&#x146;" 
d="M435 506q40 -22 63.5 -64.5t23.5 -100.5v-322q0 -19 -19 -19h-150q-19 0 -19 19v281q0 30 -15.5 48.5t-40.5 18.5q-26 0 -41.5 -18.5t-15.5 -48.5v-281q0 -19 -19 -19h-150q-19 0 -19 19v482q0 19 19 19h150q19 0 19 -19v-26q0 -5 2.5 -6.5t5.5 2.5q38 57 116 57
q50 0 90 -22zM153.5 -167.5q-4.5 3.5 -4.5 8.5t3 11l45 84q7 14 22 14h142q16 0 16 -12q0 -6 -4 -11l-65 -86q-9 -12 -23 -12h-119q-8 0 -12.5 3.5z" />
    <glyph glyph-name="Ncaron" unicode="&#x147;" horiz-adv-x="658" 
d="M39 19v662q0 19 19 19h144q16 0 23 -13l197 -331q3 -4 6 -4q4 0 4 7l-1 322q0 19 19 19h150q19 0 19 -19v-662q0 -19 -19 -19h-144q-16 0 -23 13l-198 337q-3 5 -6.5 4.5t-3.5 -6.5l2 -329q0 -19 -19 -19h-150q-19 0 -19 19zM211 771l-57 93q-4 8 -4 11q0 5 5 8.5t12 3.5
h101q15 0 22 -13l22 -39q2 -4 6 -4t6 4l22 39q7 13 22 13h100q7 0 11.5 -3.5t4.5 -8.5q0 -6 -4 -11l-59 -93q-8 -13 -23 -13h-164q-16 0 -23 13z" />
    <glyph glyph-name="ncaron" unicode="&#x148;" 
d="M435 506q40 -22 63.5 -64.5t23.5 -100.5v-322q0 -19 -19 -19h-150q-19 0 -19 19v281q0 30 -15.5 48.5t-40.5 18.5q-26 0 -41.5 -18.5t-15.5 -48.5v-281q0 -19 -19 -19h-150q-19 0 -19 19v482q0 19 19 19h150q19 0 19 -19v-26q0 -5 2.5 -6.5t5.5 2.5q38 57 116 57
q50 0 90 -22zM177 578l-57 93q-4 8 -4 11q0 5 5 8.5t12 3.5h101q15 0 22 -13l22 -39q2 -4 6 -4t6 4l22 39q7 13 22 13h100q7 0 11.5 -3.5t4.5 -8.5q0 -6 -4 -11l-59 -93q-8 -13 -23 -13h-164q-16 0 -23 13z" />
    <glyph glyph-name="Eng" unicode="&#x14a;" horiz-adv-x="658" 
d="M450 700h150q19 0 19 -19v-669v-12h-1q-3 -79 -26.5 -122t-77.5 -61.5t-152 -18.5h-31q-19 2 -19 20v118q0 19 21 18l21 -1q41 0 57.5 13t19.5 46q0 4 -3 10l-193 328q-3 5 -6.5 4.5t-3.5 -6.5l2 -329q0 -19 -19 -19h-150q-19 0 -19 19v662q0 19 19 19h144q16 0 23 -13
l196 -329q3 -4 6 -4q4 0 4 7v159h1l-1 161q0 19 19 19z" />
    <glyph glyph-name="eng" unicode="&#x14b;" horiz-adv-x="553" 
d="M522.5 221.5l0.5 -1.5v0v-191q0 -90 -18.5 -137.5t-74 -70t-168.5 -22.5q-20 0 -20 19v111q0 18 19 20q39 2 54.5 13.5t18.5 39.5v298q0 30 -15.5 48.5t-40.5 18.5q-26 0 -41.5 -18.5t-15.5 -48.5v-281q0 -19 -19 -19h-150q-19 0 -19 19v482q0 19 19 19h150q19 0 19 -19
v-26q0 -5 3 -6t6 3q38 56 115 56q50 0 90 -22t63.5 -64.5t23.5 -100.5v-116q0 -2 0.5 -3.5z" />
    <glyph glyph-name="Omacron" unicode="&#x14c;" horiz-adv-x="621" 
d="M163.5 21.5q-63.5 33.5 -98.5 94t-35 140.5v188q0 78 35 138t98.5 93t146.5 33q84 0 147.5 -33t98.5 -93t35 -138v-188q0 -80 -35 -140.5t-98.5 -94t-147.5 -33.5q-83 0 -146.5 33.5zM377.5 176.5q25.5 27.5 25.5 73.5v196q0 46 -25.5 73.5t-67.5 27.5q-41 0 -66.5 -27.5
t-25.5 -73.5v-196q0 -46 25.5 -73.5t66.5 -27.5q42 0 67.5 27.5zM155 774v87q0 19 19 19h273q19 0 19 -19v-87q0 -19 -19 -19h-273q-19 0 -19 19z" />
    <glyph glyph-name="omacron" unicode="&#x14d;" horiz-adv-x="558" 
d="M118.5 43q-65.5 51 -86.5 138q-10 36 -10 80q0 49 12 89q24 83 88.5 130.5t157.5 47.5t156.5 -47.5t87.5 -128.5q12 -42 12 -89q0 -38 -8 -76q-21 -90 -86.5 -142.5t-162.5 -52.5q-95 0 -160.5 51zM321 170.5q16 17.5 22 46.5q4 19 4 45q0 23 -5 46q-15 59 -63 59
q-50 0 -63 -59q-5 -17 -5 -46q0 -26 4 -45q15 -64 64 -64q26 0 42 17.5zM124 594v87q0 19 19 19h273q19 0 19 -19v-87q0 -19 -19 -19h-273q-19 0 -19 19z" />
    <glyph glyph-name="Ohungarumlaut" unicode="&#x150;" horiz-adv-x="621" 
d="M163.5 21.5q-63.5 33.5 -98.5 94t-35 140.5v188q0 78 35 138t98.5 93t146.5 33q84 0 147.5 -33t98.5 -93t35 -138v-188q0 -80 -35 -140.5t-98.5 -94t-147.5 -33.5q-83 0 -146.5 33.5zM377.5 176.5q25.5 27.5 25.5 73.5v196q0 46 -25.5 73.5t-67.5 27.5q-41 0 -66.5 -27.5
t-25.5 -73.5v-196q0 -46 25.5 -73.5t66.5 -27.5q42 0 67.5 27.5zM149 771l2 8l36 84q6 15 22 15h129q16 0 16 -13q0 -6 -2 -9l-43 -85q-8 -14 -22 -14h-121q-17 0 -17 14zM343.5 760.5q-4.5 3.5 -4.5 8.5t3 11l43 84q7 14 22 14h121q7 0 11.5 -3.5t4.5 -8.5t-3 -11l-44 -84
q-7 -14 -22 -14h-120q-7 0 -11.5 3.5z" />
    <glyph glyph-name="ohungarumlaut" unicode="&#x151;" horiz-adv-x="558" 
d="M118.5 43q-65.5 51 -86.5 138q-10 36 -10 80q0 49 12 89q24 83 88.5 130.5t157.5 47.5t156.5 -47.5t87.5 -128.5q12 -42 12 -89q0 -38 -8 -76q-21 -90 -86.5 -142.5t-162.5 -52.5q-95 0 -160.5 51zM321 170.5q16 17.5 22 46.5q4 19 4 45q0 23 -5 46q-15 59 -63 59
q-50 0 -63 -59q-5 -17 -5 -46q0 -26 4 -45q15 -64 64 -64q26 0 42 17.5zM118 591l2 8l36 84q6 15 22 15h129q16 0 16 -13q0 -6 -2 -9l-43 -85q-8 -14 -22 -14h-121q-17 0 -17 14zM312.5 580.5q-4.5 3.5 -4.5 8.5t3 11l43 84q7 14 22 14h121q7 0 11.5 -3.5t4.5 -8.5t-3 -11
l-44 -84q-7 -14 -22 -14h-120q-7 0 -11.5 3.5z" />
    <glyph glyph-name="OE" unicode="&#x152;" horiz-adv-x="937" 
d="M894 539h-295q-8 0 -8 -8v-88q0 -8 8 -8h181q19 0 19 -19v-122q0 -19 -19 -19h-181q-8 0 -8 -8v-98q0 -8 8 -8h295q19 0 19 -19v-123q0 -19 -19 -19h-472q-9 0 -14 4t-5 11v4q0 5 -2.5 6t-7.5 -1q-63 -36 -133 -36q-61 0 -114 34t-84.5 95t-31.5 139v188q0 77 31.5 137
t84.5 93.5t114 33.5q71 0 133 -34q4 -3 7 -2.5t3 3.5v6q0 19 19 19h472q19 0 19 -19v-123q0 -19 -19 -19zM377.5 176.5q25.5 27.5 25.5 73.5v196q0 46 -25.5 73.5t-67.5 27.5q-41 0 -66.5 -27.5t-25.5 -73.5v-196q0 -46 25.5 -73.5t66.5 -27.5q42 0 67.5 27.5z" />
    <glyph glyph-name="oe" unicode="&#x153;" horiz-adv-x="880" 
d="M738 174q8 5 13 5q7 0 13 -7l63 -77q6 -6 6 -13t-7 -14q-81 -76 -205 -76q-102 0 -175 66q-6 5 -12 0q-33 -31 -73.5 -48.5t-85.5 -17.5q-82 0 -143.5 42t-89.5 115q-20 52 -20 112q0 64 20 115q27 71 89 111.5t145 40.5q44 0 85 -17t74 -48q6 -4 12 0q33 31 74 48t85 17
q84 0 148.5 -43.5t89.5 -111.5q18 -50 19 -140q0 -20 -19 -20h-289q-7 0 -7 -6q0 -7 5 -14q10 -23 32 -33.5t61 -10.5q60 0 92 25zM339 262q0 50 -15 75q-15 30 -49 30q-33 0 -50 -30q-14 -26 -14 -75q0 -50 14 -78q16 -31 50 -31t49 31q15 27 15 78zM553 327l-5 -13v-2
q0 -7 7 -7h106q8 0 8 6q0 8 -5 16q-17 40 -56 40q-38 0 -55 -40z" />
    <glyph glyph-name="Racute" unicode="&#x154;" horiz-adv-x="615" 
d="M389 14l-108 249q-2 6 -10 6h-36q-8 0 -8 -8v-242q0 -19 -19 -19h-150q-19 0 -19 19v662q0 19 19 19h299q68 0 119.5 -28t80 -78.5t28.5 -116.5q0 -65 -31.5 -114t-87.5 -73q-7 -3 -4 -10l122 -258q2 -4 2 -10q0 -12 -16 -12h-159q-16 0 -22 14zM227 531v-111q0 -8 8 -8
h91q32 0 52 17.5t20 45.5q0 29 -20 46.5t-52 17.5h-91q-8 0 -8 -8zM202.5 754.5q-4.5 3.5 -4.5 8.5t3 11l45 84q7 14 22 14h142q16 0 16 -12q0 -6 -4 -11l-65 -86q-9 -12 -23 -12h-119q-8 0 -12.5 3.5z" />
    <glyph glyph-name="racute" unicode="&#x155;" horiz-adv-x="396" 
d="M376 516q13 -7 10 -24l-24 -147q-3 -17 -22 -13q-11 3 -27 3q-14 0 -29 -3q-26 -5 -44.5 -21.5t-18.5 -44.5v-247q0 -19 -19 -19h-150q-19 0 -19 19v482q0 19 19 19h150q19 0 19 -19v-14q0 -5 2.5 -7t5.5 2q37 45 96 45q31 0 51 -11zM137.5 575.5q-4.5 3.5 -4.5 8.5t3 11
l45 84q7 14 22 14h142q16 0 16 -12q0 -6 -4 -11l-65 -86q-9 -12 -23 -12h-119q-8 0 -12.5 3.5z" />
    <glyph glyph-name="uni0156" unicode="&#x156;" horiz-adv-x="615" 
d="M389 14l-108 249q-2 6 -10 6h-36q-8 0 -8 -8v-242q0 -19 -19 -19h-150q-19 0 -19 19v662q0 19 19 19h299q68 0 119.5 -28t80 -78.5t28.5 -116.5q0 -65 -31.5 -114t-87.5 -73q-7 -3 -4 -10l122 -258q2 -4 2 -10q0 -12 -16 -12h-159q-16 0 -22 14zM227 531v-111q0 -8 8 -8
h91q32 0 52 17.5t20 45.5q0 29 -20 46.5t-52 17.5h-91q-8 0 -8 -8zM166.5 -167.5q-4.5 3.5 -4.5 8.5t3 11l45 84q7 14 22 14h142q16 0 16 -12q0 -6 -4 -11l-65 -86q-9 -12 -23 -12h-119q-8 0 -12.5 3.5z" />
    <glyph glyph-name="uni0157" unicode="&#x157;" horiz-adv-x="400" 
d="M376 516q13 -7 10 -24l-24 -147q-3 -17 -22 -13q-11 3 -27 3q-14 0 -29 -3q-26 -5 -44.5 -21.5t-18.5 -44.5v-247q0 -19 -19 -19h-150q-19 0 -19 19v482q0 19 19 19h150q19 0 19 -19v-14q0 -5 2.5 -7t5.5 2q37 45 96 45q31 0 51 -11zM-18.5 -167.5q-4.5 3.5 -4.5 8.5
t3 11l45 84q7 14 22 14h142q16 0 16 -12q0 -6 -4 -11l-65 -86q-9 -12 -23 -12h-119q-8 0 -12.5 3.5z" />
    <glyph glyph-name="Rcaron" unicode="&#x158;" horiz-adv-x="615" 
d="M389 14l-108 249q-2 6 -10 6h-36q-8 0 -8 -8v-242q0 -19 -19 -19h-150q-19 0 -19 19v662q0 19 19 19h299q68 0 119.5 -28t80 -78.5t28.5 -116.5q0 -65 -31.5 -114t-87.5 -73q-7 -3 -4 -10l122 -258q2 -4 2 -10q0 -12 -16 -12h-159q-16 0 -22 14zM227 531v-111q0 -8 8 -8
h91q32 0 52 17.5t20 45.5q0 29 -20 46.5t-52 17.5h-91q-8 0 -8 -8zM171 758l-57 93q-4 8 -4 11q0 5 5 8.5t12 3.5h101q15 0 22 -13l22 -39q2 -4 6 -4t6 4l22 39q7 13 22 13h100q7 0 11.5 -3.5t4.5 -8.5q0 -6 -4 -11l-59 -93q-8 -13 -23 -13h-164q-16 0 -23 13z" />
    <glyph glyph-name="rcaron" unicode="&#x159;" horiz-adv-x="396" 
d="M376 516q13 -7 10 -24l-24 -147q-3 -17 -22 -13q-11 3 -27 3q-14 0 -29 -3q-26 -5 -44.5 -21.5t-18.5 -44.5v-247q0 -19 -19 -19h-150q-19 0 -19 19v482q0 19 19 19h150q19 0 19 -19v-14q0 -5 2.5 -7t5.5 2q37 45 96 45q31 0 51 -11zM106 579l-57 93q-4 8 -4 11
q0 5 5 8.5t12 3.5h101q15 0 22 -13l22 -39q2 -4 6 -4t6 4l22 39q7 13 22 13h100q7 0 11.5 -3.5t4.5 -8.5q0 -6 -4 -11l-59 -93q-8 -13 -23 -13h-164q-16 0 -23 13z" />
    <glyph glyph-name="Sacute" unicode="&#x15a;" horiz-adv-x="597" 
d="M156 19.5q-62 27.5 -96 78.5t-34 118v10q0 19 19 19h147q19 0 19 -10v-11q0 -27 29 -49t73 -22q37 0 53 15.5t16 34.5q0 22 -20 33t-73 27l-29 8q-99 30 -166 80t-67 145q0 63 34 111.5t93.5 74.5t133.5 26q78 0 141.5 -29t100 -82t36.5 -121v-5q0 -19 -19 -19h-147
q-19 0 -19 8v8q0 30 -27 54.5t-73 24.5q-32 0 -50.5 -13t-18.5 -36q0 -18 13.5 -30.5t41.5 -24t86 -29.5q8 -3 70.5 -21.5t104.5 -67t42 -117.5q0 -65 -34 -114t-95.5 -75.5t-141.5 -26.5q-81 0 -143 27.5zM219.5 762.5q-4.5 3.5 -4.5 8.5t3 11l45 84q7 14 22 14h142
q16 0 16 -12q0 -6 -4 -11l-65 -86q-9 -12 -23 -12h-119q-8 0 -12.5 3.5z" />
    <glyph glyph-name="sacute" unicode="&#x15b;" horiz-adv-x="518" 
d="M87.5 36q-65.5 44 -65.5 117v5q0 19 19 19h142q19 0 19 -5v-6q0 -16 17.5 -26t45.5 -10q22 0 35.5 6.5t13.5 18.5q0 14 -16 19.5t-57 12.5q-38 5 -68 12t-58 21q-86 42 -86 132q0 81 63 128.5t166 47.5q70 0 122.5 -22.5t81.5 -63.5t29 -95q0 -11 -19 -11h-137
q-9 0 -14 2t-5 4v5q0 17 -15 26.5t-40 9.5q-23 0 -37.5 -7.5t-14.5 -20.5q0 -16 19 -22t61 -12q5 -1 38.5 -6t64.5 -16q54 -19 82.5 -52.5t28.5 -87.5q0 -82 -64 -124.5t-173 -42.5q-113 0 -178.5 44zM181.5 582.5q-4.5 3.5 -4.5 8.5t3 11l45 84q7 14 22 14h142q16 0 16 -12
q0 -6 -4 -11l-65 -86q-9 -12 -23 -12h-119q-8 0 -12.5 3.5z" />
    <glyph glyph-name="Scedilla" unicode="&#x15e;" horiz-adv-x="597" 
d="M517.5 71.5q-52.5 -55.5 -142.5 -72.5q-4 -1 -5 -3.5t2 -6.5q38 -41 38 -82q0 -8 -4 -26q-10 -36 -37 -51.5t-63 -15.5q-38 0 -71 13q-14 5 -12 23l7 58q1 13 12 13q3 0 11 -2q4 -1 11 -1q9 0 15.5 4t8.5 11q9 23 -38 59q-4 3 -9 4q-99 14 -157 72.5t-58 147.5v10
q0 19 19 19h147q19 0 19 -10v-11q0 -27 29 -49t73 -22q37 0 53 15.5t16 34.5q0 22 -20 33t-73 27l-29 8q-99 30 -166 80t-67 145q0 63 34 111.5t93.5 74.5t133.5 26q78 0 141.5 -29t100 -82t36.5 -121v-5q0 -19 -19 -19h-147q-19 0 -19 8v8q0 30 -27 54.5t-73 24.5
q-32 0 -50.5 -13t-18.5 -36q0 -18 13.5 -30.5t41.5 -24t86 -29.5q8 -3 70.5 -21.5t104.5 -67t42 -117.5q0 -81 -52.5 -136.5z" />
    <glyph glyph-name="scedilla" unicode="&#x15f;" horiz-adv-x="518" 
d="M461 52.5q-42 -40.5 -118 -53.5q-4 -1 -5 -3.5t2 -6.5q37 -42 37 -82q0 -8 -4 -26q-10 -36 -37 -51.5t-63 -15.5q-38 0 -71 13q-14 5 -12 23l7 58q1 13 12 13q3 0 11 -2q4 -1 11 -1q9 0 15.5 4t8.5 11q9 23 -37 59q-4 3 -9 4q-88 10 -137.5 52t-49.5 105v5q0 19 19 19
h142q19 0 19 -5v-6q0 -16 17.5 -26t45.5 -10q22 0 35.5 6.5t13.5 18.5q0 14 -16 19.5t-57 12.5q-38 5 -68 12t-58 21q-86 42 -86 132q0 81 63 128.5t166 47.5q70 0 122.5 -22.5t81.5 -63.5t29 -95q0 -11 -19 -11h-137q-9 0 -14 2t-5 4v5q0 17 -15 26.5t-40 9.5
q-23 0 -37.5 -7.5t-14.5 -20.5q0 -16 19 -22t61 -12q5 -1 38.5 -6t64.5 -16q54 -19 82.5 -52.5t28.5 -87.5q0 -66 -42 -106.5z" />
    <glyph glyph-name="Scaron" unicode="&#x160;" horiz-adv-x="597" 
d="M156 19.5q-62 27.5 -96 78.5t-34 118v10q0 19 19 19h147q19 0 19 -10v-11q0 -27 29 -49t73 -22q37 0 53 15.5t16 34.5q0 22 -20 33t-73 27l-29 8q-99 30 -166 80t-67 145q0 63 34 111.5t93.5 74.5t133.5 26q78 0 141.5 -29t100 -82t36.5 -121v-5q0 -19 -19 -19h-147
q-19 0 -19 8v8q0 30 -27 54.5t-73 24.5q-32 0 -50.5 -13t-18.5 -36q0 -18 13.5 -30.5t41.5 -24t86 -29.5q8 -3 70.5 -21.5t104.5 -67t42 -117.5q0 -65 -34 -114t-95.5 -75.5t-141.5 -26.5q-81 0 -143 27.5zM188 766l-57 93q-4 8 -4 11q0 5 5 8.5t12 3.5h101q15 0 22 -13
l22 -39q2 -4 6 -4t6 4l22 39q7 13 22 13h100q7 0 11.5 -3.5t4.5 -8.5q0 -6 -4 -11l-59 -93q-8 -13 -23 -13h-164q-16 0 -23 13z" />
    <glyph glyph-name="scaron" unicode="&#x161;" horiz-adv-x="518" 
d="M87.5 36q-65.5 44 -65.5 117v5q0 19 19 19h142q19 0 19 -5v-6q0 -16 17.5 -26t45.5 -10q22 0 35.5 6.5t13.5 18.5q0 14 -16 19.5t-57 12.5q-38 5 -68 12t-58 21q-86 42 -86 132q0 81 63 128.5t166 47.5q70 0 122.5 -22.5t81.5 -63.5t29 -95q0 -11 -19 -11h-137
q-9 0 -14 2t-5 4v5q0 17 -15 26.5t-40 9.5q-23 0 -37.5 -7.5t-14.5 -20.5q0 -16 19 -22t61 -12q5 -1 38.5 -6t64.5 -16q54 -19 82.5 -52.5t28.5 -87.5q0 -82 -64 -124.5t-173 -42.5q-113 0 -178.5 44zM150 586l-57 93q-4 8 -4 11q0 5 5 8.5t12 3.5h101q15 0 22 -13l22 -39
q2 -4 6 -4t6 4l22 39q7 13 22 13h100q7 0 11.5 -3.5t4.5 -8.5q0 -6 -4 -11l-59 -93q-8 -13 -23 -13h-164q-16 0 -23 13z" />
    <glyph glyph-name="uni0162" unicode="&#x162;" horiz-adv-x="615" 
d="M577 681v-124q0 -19 -19 -19h-161q-8 0 -8 -8v-511q0 -19 -19 -19h-150q-19 0 -19 19v511q0 8 -8 8h-156q-19 0 -19 19v124q0 19 19 19h521q19 0 19 -19zM249 -162l7 58q1 13 12 13q3 0 11 -2q4 -1 11 -1q11 0 18 5.5t7 16.5q0 21 -36 50q-9 7 -9 14q0 8 15 8h75
q14 0 23 -9q53 -45 53 -96q0 -14 -4 -26q-10 -36 -37 -51.5t-63 -15.5q-38 0 -71 13q-14 5 -12 23z" />
    <glyph glyph-name="uni0163" unicode="&#x163;" horiz-adv-x="391" 
d="M354 370h-76q-8 0 -8 -8v-148q0 -50 36 -50h33q19 0 19 -19v-121q0 -16 -13 -19q-6 0 -10 -1q-1 -1 -3 -3.5t0 -6.5q35 -40 35 -79q0 -8 -4 -26q-10 -36 -37 -51.5t-63 -15.5q-38 0 -71 13q-14 5 -12 23l7 58q1 13 12 13q3 0 11 -2q4 -1 11 -1q9 0 15.5 4t8.5 11
q9 24 -43 63q-4 3 -9 4q-52 9 -77 38.5t-26 89.5v226q0 8 -8 8h-47q-19 0 -19 19v112q0 19 19 19h47q8 0 8 8v113q0 19 19 19h142q19 0 19 -19v-113q0 -8 8 -8h76q19 0 19 -19v-112q0 -19 -19 -19z" />
    <glyph glyph-name="Tcaron" unicode="&#x164;" horiz-adv-x="595" 
d="M577 681v-124q0 -19 -19 -19h-161q-8 0 -8 -8v-511q0 -19 -19 -19h-150q-19 0 -19 19v511q0 8 -8 8h-156q-19 0 -19 19v124q0 19 19 19h521q19 0 19 -19zM191 758l-57 93q-4 8 -4 11q0 5 5 8.5t12 3.5h101q15 0 22 -13l22 -39q2 -4 6 -4t6 4l22 39q7 13 22 13h100
q7 0 11.5 -3.5t4.5 -8.5q0 -6 -4 -11l-59 -93q-8 -13 -23 -13h-164q-16 0 -23 13z" />
    <glyph glyph-name="tcaron" unicode="&#x165;" horiz-adv-x="391" 
d="M354 370h-76q-8 0 -8 -8v-148q0 -50 36 -50h33q19 0 19 -19v-121q0 -17 -18 -19q-39 -3 -72 -3q-91 0 -134 28t-44 106v226q0 8 -8 8h-47q-19 0 -19 19v112q0 19 19 19h47q8 0 8 8v113q0 19 19 19h142q19 0 19 -19v-113q0 -8 8 -8h76q19 0 19 -19v-112q0 -19 -19 -19z
M79 718l-57 93q-4 8 -4 11q0 5 5 8.5t12 3.5h101q15 0 22 -13l22 -39q2 -4 6 -4t6 4l22 39q7 13 22 13h100q7 0 11.5 -3.5t4.5 -8.5q0 -6 -4 -11l-59 -93q-8 -13 -23 -13h-164q-16 0 -23 13z" />
    <glyph glyph-name="Tbar" unicode="&#x166;" horiz-adv-x="600" 
d="M558 538h-161q-8 0 -8 -8v-119q0 -8 8 -8h77q19 0 19 -19v-72q0 -19 -19 -19h-77q-8 0 -8 -8v-266q0 -19 -19 -19h-150q-19 0 -19 19v266q0 8 -8 8h-59q-19 0 -19 19v72q0 19 19 19h59q8 0 8 8v119q0 8 -8 8h-156q-19 0 -19 19v124q0 19 19 19h521q19 0 19 -19v-124
q0 -19 -19 -19z" />
    <glyph glyph-name="tbar" unicode="&#x167;" horiz-adv-x="600" 
d="M355 237h-77q-8 0 -8 -8v-15q0 -50 36 -50h33q19 0 19 -19v-121q0 -17 -18 -19q-39 -3 -72 -3q-91 0 -134 28t-44 106v93q0 8 -8 8h-47q-19 0 -19 19v72q0 19 19 19h47q8 0 8 8v7q0 8 -8 8h-47q-19 0 -19 19v112q0 19 19 19h47q8 0 8 8v113q0 19 19 19h142q19 0 19 -19
v-113q0 -8 8 -8h76q19 0 19 -19v-112q0 -19 -19 -19h-76q-8 0 -8 -8v-7q0 -8 8 -8h77q19 0 19 -19v-72q0 -19 -19 -19z" />
    <glyph glyph-name="Umacron" unicode="&#x16a;" horiz-adv-x="617" 
d="M165.5 23q-62.5 31 -96.5 88t-34 132v438q0 19 19 19h150q19 0 19 -19v-438q0 -41 23.5 -65.5t62.5 -24.5q38 0 61.5 25t23.5 65v438q0 19 19 19h150q19 0 19 -19v-438q0 -75 -34 -132t-96 -88t-143 -31t-143.5 31zM154 779v87q0 19 19 19h273q19 0 19 -19v-87
q0 -19 -19 -19h-273q-19 0 -19 19z" />
    <glyph glyph-name="umacron" unicode="&#x16b;" 
d="M350 520h150q19 0 19 -19v-482q0 -19 -19 -19h-150q-19 0 -19 19v24q0 5 -3 6t-6 -3q-40 -54 -125 -54q-76 0 -121 49.5t-45 137.5v322q0 19 19 19h150q19 0 19 -19v-281q0 -30 15.5 -48.5t40.5 -18.5q21 0 35.5 13t19.5 35q1 4 1 10v290q0 19 19 19zM119 586v87
q0 19 19 19h273q19 0 19 -19v-87q0 -19 -19 -19h-273q-19 0 -19 19z" />
    <glyph glyph-name="Uring" unicode="&#x16e;" horiz-adv-x="617" 
d="M165.5 23q-62.5 31 -96.5 88t-34 132v438q0 19 19 19h150q19 0 19 -19v-438q0 -41 23.5 -65.5t62.5 -24.5q38 0 61.5 25t23.5 65v438q0 19 19 19h150q19 0 19 -19v-438q0 -75 -34 -132t-96 -88t-143 -31t-143.5 31zM225.5 781q-33.5 34 -33.5 83t34 82.5t83 33.5
t83 -33.5t34 -82.5t-34 -83t-83 -34q-50 0 -83.5 34zM334.5 838.5q10.5 10.5 10.5 25.5q0 16 -10.5 26.5t-25.5 10.5t-25.5 -10.5t-10.5 -26.5q0 -15 10.5 -25.5t25.5 -10.5t25.5 10.5z" />
    <glyph glyph-name="uring" unicode="&#x16f;" 
d="M350 520h150q19 0 19 -19v-482q0 -19 -19 -19h-150q-19 0 -19 19v24q0 5 -3 6t-6 -3q-40 -54 -125 -54q-76 0 -121 49.5t-45 137.5v322q0 19 19 19h150q19 0 19 -19v-281q0 -30 15.5 -48.5t40.5 -18.5q21 0 35.5 13t19.5 35q1 4 1 10v290q0 19 19 19zM190.5 588
q-33.5 34 -33.5 83t34 82.5t83 33.5t83 -33.5t34 -82.5t-34 -83t-83 -34q-50 0 -83.5 34zM299.5 645.5q10.5 10.5 10.5 25.5q0 16 -10.5 26.5t-25.5 10.5t-25.5 -10.5t-10.5 -26.5q0 -15 10.5 -25.5t25.5 -10.5t25.5 10.5z" />
    <glyph glyph-name="Uhungarumlaut" unicode="&#x170;" horiz-adv-x="617" 
d="M165.5 23q-62.5 31 -96.5 88t-34 132v438q0 19 19 19h150q19 0 19 -19v-438q0 -41 23.5 -65.5t62.5 -24.5q38 0 61.5 25t23.5 65v438q0 19 19 19h150q19 0 19 -19v-438q0 -75 -34 -132t-96 -88t-143 -31t-143.5 31zM148 776l2 8l36 84q6 15 22 15h129q16 0 16 -13
q0 -6 -2 -9l-43 -85q-8 -14 -22 -14h-121q-17 0 -17 14zM342.5 765.5q-4.5 3.5 -4.5 8.5t3 11l43 84q7 14 22 14h121q7 0 11.5 -3.5t4.5 -8.5t-3 -11l-44 -84q-7 -14 -22 -14h-120q-7 0 -11.5 3.5z" />
    <glyph glyph-name="uhungarumlaut" unicode="&#x171;" 
d="M350 520h150q19 0 19 -19v-482q0 -19 -19 -19h-150q-19 0 -19 19v24q0 5 -3 6t-6 -3q-40 -54 -125 -54q-76 0 -121 49.5t-45 137.5v322q0 19 19 19h150q19 0 19 -19v-281q0 -30 15.5 -48.5t40.5 -18.5q21 0 35.5 13t19.5 35q1 4 1 10v290q0 19 19 19zM113 583l2 8l36 84
q6 15 22 15h129q16 0 16 -13q0 -6 -2 -9l-43 -85q-8 -14 -22 -14h-121q-17 0 -17 14zM307.5 572.5q-4.5 3.5 -4.5 8.5t3 11l43 84q7 14 22 14h121q7 0 11.5 -3.5t4.5 -8.5t-3 -11l-44 -84q-7 -14 -22 -14h-120q-7 0 -11.5 3.5z" />
    <glyph glyph-name="Uogonek" unicode="&#x172;" horiz-adv-x="617" 
d="M413 700h150q19 0 19 -19v-438q0 -100 -60 -166.5t-161 -80.5q-5 -1 -9 -5q-31 -26 -31 -45q0 -10 7 -16t18 -6q7 0 11 1q8 2 11 2q11 0 12 -13l7 -58v-4q0 -14 -12 -19q-33 -13 -71 -13q-36 0 -63 15.5t-37 51.5q-4 12 -4 26q0 39 33 77q4 4 3 6.5t-6 3.5
q-90 20 -142.5 85t-52.5 158v438q0 19 19 19h150q19 0 19 -19v-438q0 -41 23.5 -65.5t62.5 -24.5q38 0 61.5 25t23.5 65v438q0 19 19 19z" />
    <glyph glyph-name="uogonek" unicode="&#x173;" 
d="M459 -88.5q7 -5.5 18 -5.5q7 0 11 1q8 2 11 2q11 0 12 -13l7 -58v-4q0 -14 -12 -19q-33 -13 -71 -13q-36 0 -63 15.5t-37 51.5q-4 12 -4 27q0 49 51 94q4 4 3 7t-6 3h-29q-19 0 -19 19v24q0 5 -3 6t-6 -3q-40 -54 -125 -54q-76 0 -121 49.5t-45 137.5v322q0 19 19 19h150
q19 0 19 -19v-281q0 -30 15.5 -48.5t40.5 -18.5q21 0 35.5 13t19.5 35q1 4 1 10v290q0 19 19 19h150q19 0 19 -19v-501q-2 -1 -9 -5.5t-19 -14.5q-39 -30 -39 -52q0 -11 7 -16.5z" />
    <glyph glyph-name="Wcircumflex" unicode="&#x174;" horiz-adv-x="857" 
d="M180 16l-196 663q-1 3 -1 7q0 14 17 14h162q17 0 21 -16l82 -316q2 -5 5.5 -5t4.5 5l76 315q5 17 21 17h117q17 0 21 -16l80 -316q2 -5 5.5 -5t4.5 5l74 315q4 17 21 17h162q10 0 14 -5.5t2 -15.5l-175 -663q-4 -16 -21 -16h-153q-18 0 -21 17l-69 331q-2 5 -5 5.5
t-4 -5.5l-61 -331q-3 -17 -20 -17h-142q-17 0 -22 16zM263.5 754.5q-4.5 3.5 -4.5 8.5q0 6 4 11l67 94q8 12 23 12h149q16 0 24 -12l68 -94q4 -5 4 -11q0 -5 -4.5 -8.5t-11.5 -3.5h-103q-15 0 -22 13l-22 39q-2 4 -6 4t-6 -4l-22 -39q-7 -13 -22 -13h-104q-7 0 -11.5 3.5z
" />
    <glyph glyph-name="wcircumflex" unicode="&#x175;" horiz-adv-x="825" 
d="M160 16l-142 483q-1 3 -1 7q0 14 17 14h155q17 0 20 -17l47 -230q2 -5 5.5 -5t4.5 5l51 229q3 17 21 17h136q17 0 21 -17l55 -231q2 -5 5.5 -5t4.5 5l55 232q4 17 21 17l155 -2q10 0 14.5 -5.5t1.5 -15.5l-145 -481q-5 -16 -22 -16h-156q-16 0 -21 16l-53 188
q-1 5 -4 4.5t-5 -5.5l-42 -186q-3 -17 -21 -17h-156q-17 0 -22 16zM233.5 574.5q-4.5 3.5 -4.5 8.5q0 6 4 11l67 94q8 12 23 12h149q16 0 24 -12l68 -94q4 -5 4 -11q0 -5 -4.5 -8.5t-11.5 -3.5h-103q-15 0 -22 13l-22 39q-2 4 -6 4t-6 -4l-22 -39q-7 -13 -22 -13h-104
q-7 0 -11.5 3.5z" />
    <glyph glyph-name="Ycircumflex" unicode="&#x176;" horiz-adv-x="651" 
d="M231 21v215q0 4 -2 10l-201 432q-2 6 -2 9q0 13 17 13h163q17 0 22 -15l92 -231q2 -4 5 -4t5 4l92 231q5 15 22 15h164q17 0 17 -13q0 -3 -2 -9l-203 -432q-2 -6 -2 -10v-215q0 -19 -19 -19h-149q-19 0 -19 19zM159.5 754.5q-4.5 3.5 -4.5 8.5q0 6 4 11l67 94q8 12 23 12
h149q16 0 24 -12l68 -94q4 -5 4 -11q0 -5 -4.5 -8.5t-11.5 -3.5h-103q-15 0 -22 13l-22 39q-2 4 -6 4t-6 -4l-22 -39q-7 -13 -22 -13h-104q-7 0 -11.5 3.5z" />
    <glyph glyph-name="ycircumflex" unicode="&#x177;" horiz-adv-x="534" 
d="M37 -180v116q0 9 2 14t4 5h5q65 0 92.5 7.5t31.5 32.5q1 4 -1 10l-155 493q-1 3 -1 7q0 15 17 15h160q18 0 21 -17l50 -229q1 -5 4.5 -4.5t5.5 5.5l47 228q3 17 21 17h161q10 0 14.5 -6t1.5 -16l-162 -500q-26 -77 -55 -117t-86.5 -60t-163.5 -20h-7q-7 0 -7 19z
M100.5 587.5q-4.5 3.5 -4.5 8.5q0 6 4 11l67 94q8 12 23 12h149q16 0 24 -12l68 -94q4 -5 4 -11q0 -5 -4.5 -8.5t-11.5 -3.5h-103q-15 0 -22 13l-22 39q-2 4 -6 4t-6 -4l-22 -39q-7 -13 -22 -13h-104q-7 0 -11.5 3.5z" />
    <glyph glyph-name="Ydieresis" unicode="&#x178;" horiz-adv-x="651" 
d="M231 21v215q0 4 -2 10l-201 432q-2 6 -2 9q0 13 17 13h163q17 0 22 -15l92 -231q2 -4 5 -4t5 4l92 231q5 15 22 15h164q17 0 17 -13q0 -3 -2 -9l-203 -432q-2 -6 -2 -10v-215q0 -19 -19 -19h-149q-19 0 -19 19zM159.5 755q-24.5 24 -24.5 63t24.5 63t62.5 24t61.5 -24
t23.5 -63t-23.5 -63t-61.5 -24t-62.5 24zM366.5 755q-23.5 24 -23.5 63t23.5 63t62.5 24t62.5 -24t23.5 -63t-23.5 -63t-62.5 -24t-62.5 24z" />
    <glyph glyph-name="Zacute" unicode="&#x179;" horiz-adv-x="562" 
d="M24 19v138q0 12 8 23l287 349q2 4 2 5q0 5 -7 5h-271q-19 0 -19 19v123q0 19 19 19h473q19 0 19 -19v-138q0 -12 -8 -23l-289 -349q-2 -4 -2 -5q0 -5 7 -5h273q19 0 19 -19v-123q0 -19 -19 -19h-473q-19 0 -19 19zM208.5 767.5q-4.5 3.5 -4.5 8.5t3 11l45 84q7 14 22 14
h142q16 0 16 -12q0 -6 -4 -11l-65 -86q-9 -12 -23 -12h-119q-8 0 -12.5 3.5z" />
    <glyph glyph-name="zacute" unicode="&#x17a;" horiz-adv-x="470" 
d="M18 19v137q0 13 10 23l179 161q3 3 3 5q0 5 -7 5h-159q-19 0 -19 19v132q0 19 19 19h378q19 0 19 -19v-137q0 -13 -11 -23l-187 -161q-3 -3 -3 -5q0 -5 7 -5h183q19 0 19 -19v-132q0 -19 -19 -19h-393q-19 0 -19 19zM156.5 587.5q-4.5 3.5 -4.5 8.5t3 11l45 84
q7 14 22 14h142q16 0 16 -12q0 -6 -4 -11l-65 -86q-9 -12 -23 -12h-119q-8 0 -12.5 3.5z" />
    <glyph glyph-name="Zdotaccent" unicode="&#x17b;" horiz-adv-x="562" 
d="M24 19v138q0 12 8 23l287 349q2 4 2 5q0 5 -7 5h-271q-19 0 -19 19v123q0 19 19 19h473q19 0 19 -19v-138q0 -12 -8 -23l-289 -349q-2 -4 -2 -5q0 -5 7 -5h273q19 0 19 -19v-123q0 -19 -19 -19h-473q-19 0 -19 19zM227.5 766q-21.5 22 -21.5 57q0 36 21.5 57.5t56.5 21.5
t56 -21.5t21 -57.5q0 -35 -21 -57t-56 -22t-56.5 22z" />
    <glyph glyph-name="zdotaccent" unicode="&#x17c;" horiz-adv-x="470" 
d="M18 19v137q0 13 10 23l179 161q3 3 3 5q0 5 -7 5h-159q-19 0 -19 19v132q0 19 19 19h378q19 0 19 -19v-137q0 -13 -11 -23l-187 -161q-3 -3 -3 -5q0 -5 7 -5h183q19 0 19 -19v-132q0 -19 -19 -19h-393q-19 0 -19 19zM175.5 586q-21.5 22 -21.5 57q0 36 21.5 57.5
t56.5 21.5t56 -21.5t21 -57.5q0 -35 -21 -57t-56 -22t-56.5 22z" />
    <glyph glyph-name="Zcaron" unicode="&#x17d;" horiz-adv-x="562" 
d="M24 19v138q0 12 8 23l287 349q2 4 2 5q0 5 -7 5h-271q-19 0 -19 19v123q0 19 19 19h473q19 0 19 -19v-138q0 -12 -8 -23l-289 -349q-2 -4 -2 -5q0 -5 7 -5h273q19 0 19 -19v-123q0 -19 -19 -19h-473q-19 0 -19 19zM177 771l-57 93q-4 8 -4 11q0 5 5 8.5t12 3.5h101
q15 0 22 -13l22 -39q2 -4 6 -4t6 4l22 39q7 13 22 13h100q7 0 11.5 -3.5t4.5 -8.5q0 -6 -4 -11l-59 -93q-8 -13 -23 -13h-164q-16 0 -23 13z" />
    <glyph glyph-name="zcaron" unicode="&#x17e;" horiz-adv-x="470" 
d="M18 19v137q0 13 10 23l179 161q3 3 3 5q0 5 -7 5h-159q-19 0 -19 19v132q0 19 19 19h378q19 0 19 -19v-137q0 -13 -11 -23l-187 -161q-3 -3 -3 -5q0 -5 7 -5h183q19 0 19 -19v-132q0 -19 -19 -19h-393q-19 0 -19 19zM125 591l-57 93q-4 8 -4 11q0 5 5 8.5t12 3.5h101
q15 0 22 -13l22 -39q2 -4 6 -4t6 4l22 39q7 13 22 13h100q7 0 11.5 -3.5t4.5 -8.5q0 -6 -4 -11l-59 -93q-8 -13 -23 -13h-164q-16 0 -23 13z" />
    <glyph glyph-name="florin" unicode="&#x192;" horiz-adv-x="559" 
d="M419 529l-15 -90v-2q0 -7 8 -7h52q19 0 19 -19v-112q0 -19 -19 -19h-78q-6 0 -8 -7l-53 -329q-12 -80 -60 -114t-152 -34q-34 0 -74 3q-19 0 -19 19v88q0 19 19 19h54q13 0 28 11.5t19 34.5l49 300v2q0 7 -8 7h-46q-19 0 -19 19v112q0 19 19 19h72q6 0 8 7l19 119
q9 57 31.5 89t64 46t110.5 14q35 0 80 -3q19 -1 19 -20v-88q0 -19 -19 -19h-58q-36 -4 -43 -46z" />
    <glyph glyph-name="uni01CD" unicode="&#x1cd;" horiz-adv-x="714" 
d="M490 16l-20 72q-2 7 -9 7h-208q-7 0 -9 -7l-20 -72q-4 -16 -21 -16h-162q-10 0 -14.5 6t-1.5 16l208 662q5 16 21 16h206q16 0 21 -16l208 -662q1 -3 1 -7q0 -15 -17 -15h-162q-17 0 -21 16zM288 246q0 -7 7 -7h124q4 0 6 2.5t1 6.5l-64 231q-1 5 -4.5 5t-5.5 -5
l-64 -231v-2zM248 758l-57 93q-4 8 -4 11q0 5 5 8.5t12 3.5h101q15 0 22 -13l22 -39q2 -4 6 -4t6 4l22 39q7 13 22 13h100q7 0 11.5 -3.5t4.5 -8.5q0 -6 -4 -11l-59 -93q-8 -13 -23 -13h-164q-16 0 -23 13z" />
    <glyph glyph-name="uni01CE" unicode="&#x1ce;" horiz-adv-x="540" 
d="M384 505q57 -23 90 -63t33 -87v-336q0 -19 -19 -19h-150q-19 0 -19 19v18q0 5 -2.5 6t-6.5 -3q-17 -25 -47 -36.5t-75 -11.5q-82 0 -129 37.5t-47 109.5q0 76 53.5 117t155.5 41h90q8 0 8 8v15q0 21 -15.5 34t-41.5 13q-17 0 -30.5 -5.5t-19.5 -14.5q-6 -8 -10 -11
t-12 -2l-154 20q-18 2 -17 15q4 45 36.5 81t85.5 57t118 21q68 0 125 -23zM298.5 139q20.5 17 20.5 46v10q0 8 -8 8h-47q-63 0 -63 -41q0 -18 11.5 -29t33.5 -11q32 0 52.5 17zM156 586l-57 93q-4 8 -4 11q0 5 5 8.5t12 3.5h101q15 0 22 -13l22 -39q2 -4 6 -4t6 4l22 39
q7 13 22 13h100q7 0 11.5 -3.5t4.5 -8.5q0 -6 -4 -11l-59 -93q-8 -13 -23 -13h-164q-16 0 -23 13z" />
    <glyph glyph-name="uni0218" unicode="&#x218;" horiz-adv-x="597" 
d="M156 19.5q-62 27.5 -96 78.5t-34 118v10q0 19 19 19h147q19 0 19 -10v-11q0 -27 29 -49t73 -22q37 0 53 15.5t16 34.5q0 22 -20 33t-73 27l-29 8q-99 30 -166 80t-67 145q0 63 34 111.5t93.5 74.5t133.5 26q78 0 141.5 -29t100 -82t36.5 -121v-5q0 -19 -19 -19h-147
q-19 0 -19 8v8q0 30 -27 54.5t-73 24.5q-32 0 -50.5 -13t-18.5 -36q0 -18 13.5 -30.5t41.5 -24t86 -29.5q8 -3 70.5 -21.5t104.5 -67t42 -117.5q0 -65 -34 -114t-95.5 -75.5t-141.5 -26.5q-81 0 -143 27.5zM172.5 -175.5q-4.5 3.5 -4.5 8.5t3 11l45 84q7 14 22 14h142
q16 0 16 -12q0 -6 -4 -11l-65 -86q-9 -12 -23 -12h-119q-8 0 -12.5 3.5z" />
    <glyph glyph-name="uni0219" unicode="&#x219;" horiz-adv-x="518" 
d="M87.5 36q-65.5 44 -65.5 117v5q0 19 19 19h142q19 0 19 -5v-6q0 -16 17.5 -26t45.5 -10q22 0 35.5 6.5t13.5 18.5q0 14 -16 19.5t-57 12.5q-38 5 -68 12t-58 21q-86 42 -86 132q0 81 63 128.5t166 47.5q70 0 122.5 -22.5t81.5 -63.5t29 -95q0 -11 -19 -11h-137
q-9 0 -14 2t-5 4v5q0 17 -15 26.5t-40 9.5q-23 0 -37.5 -7.5t-14.5 -20.5q0 -16 19 -22t61 -12q5 -1 38.5 -6t64.5 -16q54 -19 82.5 -52.5t28.5 -87.5q0 -82 -64 -124.5t-173 -42.5q-113 0 -178.5 44zM139.5 -175.5q-4.5 3.5 -4.5 8.5t3 11l45 84q7 14 22 14h142
q16 0 16 -12q0 -6 -4 -11l-65 -86q-9 -12 -23 -12h-119q-8 0 -12.5 3.5z" />
    <glyph glyph-name="uni021A" unicode="&#x21a;" horiz-adv-x="615" 
d="M577 681v-124q0 -19 -19 -19h-161q-8 0 -8 -8v-511q0 -19 -19 -19h-150q-19 0 -19 19v511q0 8 -8 8h-156q-19 0 -19 19v124q0 19 19 19h521q19 0 19 -19zM158.5 -167.5q-4.5 3.5 -4.5 8.5t3 11l45 84q7 14 22 14h142q16 0 16 -12q0 -6 -4 -11l-65 -86q-9 -12 -23 -12
h-119q-8 0 -12.5 3.5z" />
    <glyph glyph-name="uni021B" unicode="&#x21b;" horiz-adv-x="391" 
d="M354 370h-76q-8 0 -8 -8v-148q0 -50 36 -50h33q19 0 19 -19v-121q0 -17 -18 -19q-39 -3 -72 -3q-91 0 -134 28t-44 106v226q0 8 -8 8h-47q-19 0 -19 19v112q0 19 19 19h47q8 0 8 8v113q0 19 19 19h142q19 0 19 -19v-113q0 -8 8 -8h76q19 0 19 -19v-112q0 -19 -19 -19z
M129.5 -267.5q-4.5 3.5 -4.5 8.5t3 11l45 84q7 14 22 14h142q16 0 16 -12q0 -6 -4 -11l-65 -86q-9 -12 -23 -12h-119q-8 0 -12.5 3.5z" />
    <glyph glyph-name="uni0228" unicode="&#x228;" horiz-adv-x="570" 
d="M527 539h-292q-8 0 -8 -8v-88q0 -8 8 -8h178q19 0 19 -19v-122q0 -19 -19 -19h-178q-8 0 -8 -8v-98q0 -8 8 -8h292q19 0 19 -19v-123q0 -19 -19 -19h-143q-11 0 -4 -10q32 -37 32 -74q0 -15 -4 -27q-10 -36 -37 -51.5t-63 -15.5q-38 0 -71 13q-14 5 -12 23l7 58
q1 13 12 13q3 0 11 -2q4 -1 11 -1q11 0 18 5.5t7 16.5q0 20 -34 48q-5 4 -11 4h-188q-19 0 -19 19v662q0 19 19 19h469q19 0 19 -19v-123q0 -19 -19 -19z" />
    <glyph glyph-name="uni0229" unicode="&#x229;" horiz-adv-x="556" 
d="M363 158.5q26 7.5 43 20.5q8 6 13 6q7 0 13 -8l68 -94q5 -8 5 -12q0 -7 -7 -14q-46 -43 -125 -58q-4 -1 -5 -3.5t2 -6.5q39 -41 39 -84q0 -14 -4 -26q-10 -36 -37 -51.5t-63 -15.5q-38 0 -71 13q-14 5 -12 23l7 58q1 13 12 13q3 0 11 -2q4 -1 11 -1q9 0 15.5 4t8.5 11
q9 24 -43 63q-4 3 -9 4q-106 20 -161 96q-50 70 -50 170q0 43 11 84q23 81 90.5 130.5t156.5 49.5q103 0 167 -66.5t84 -181.5q5 -24 6 -48q0 -19 -19 -19h-297q-8 0 -7 -9l5 -13q19 -40 86 -40q30 0 56 7.5zM221 327l-3 -8l-1 -3q0 -6 8 -6h108q8 0 8 6q0 3 -1.5 6l-2.5 5
q-17 40 -59 40q-41 0 -57 -40z" />
    <glyph glyph-name="circumflex" unicode="&#x2c6;" horiz-adv-x="364" 
d="M16.5 574.5q-4.5 3.5 -4.5 8.5q0 6 4 11l67 94q8 12 23 12h149q16 0 24 -12l68 -94q4 -5 4 -11q0 -5 -4.5 -8.5t-11.5 -3.5h-103q-15 0 -22 13l-22 39q-2 4 -6 4t-6 -4l-22 -39q-7 -13 -22 -13h-104q-7 0 -11.5 3.5z" />
    <glyph glyph-name="caron" unicode="&#x2c7;" horiz-adv-x="379" 
d="M83 578l-57 93q-4 8 -4 11q0 5 5 8.5t12 3.5h101q15 0 22 -13l22 -39q2 -4 6 -4t6 4l22 39q7 13 22 13h100q7 0 11.5 -3.5t4.5 -8.5q0 -6 -4 -11l-59 -93q-8 -13 -23 -13h-164q-16 0 -23 13z" />
    <glyph glyph-name="uni02C9" unicode="&#x2c9;" horiz-adv-x="311" 
d="M0 586v87q0 19 19 19h273q19 0 19 -19v-87q0 -19 -19 -19h-273q-19 0 -19 19z" />
    <glyph glyph-name="breve" unicode="&#x2d8;" horiz-adv-x="296" 
d="M58.5 573.5q-37.5 30.5 -44.5 77.5v4q0 7 5 11.5t13 4.5h57q15 0 21 -17q4 -14 14 -22.5t24 -8.5t24 8.5t14 22.5q6 17 21 17h57q9 0 14.5 -5t4.5 -14q-8 -47 -46 -78t-89 -31q-52 0 -89.5 30.5z" />
    <glyph glyph-name="dotaccent" unicode="&#x2d9;" horiz-adv-x="179" 
d="M33.5 573q-21.5 22 -21.5 57q0 36 21.5 57.5t56.5 21.5t56 -21.5t21 -57.5q0 -35 -21 -57t-56 -22t-56.5 22z" />
    <glyph glyph-name="ring" unicode="&#x2da;" horiz-adv-x="258" 
d="M45.5 588q-33.5 34 -33.5 83t34 82.5t83 33.5t83 -33.5t34 -82.5t-34 -83t-83 -34q-50 0 -83.5 34zM154.5 645.5q10.5 10.5 10.5 25.5q0 16 -10.5 26.5t-25.5 10.5t-25.5 -10.5t-10.5 -26.5q0 -15 10.5 -25.5t25.5 -10.5t25.5 10.5z" />
    <glyph glyph-name="ogonek" unicode="&#x2db;" horiz-adv-x="189" 
d="M187 -166q0 -14 -12 -19q-33 -13 -71 -13q-36 0 -63 15.5t-37 51.5q-4 12 -4 26q0 51 53 96q9 9 23 9h75q15 0 15 -8q0 -7 -9 -14q-36 -29 -36 -50q0 -10 7 -16t18 -6q7 0 11 1q8 2 11 2q11 0 12 -13l7 -58v-4z" />
    <glyph glyph-name="tilde" unicode="&#x2dc;" horiz-adv-x="360" 
d="M199.5 568.5q-15.5 6.5 -33.5 18.5q-22 14 -36 14q-18 0 -30 -13q-8 -10 -15 -10q-6 0 -11 4l-49 35q-10 7 -10 17q0 3 2 9q14 37 41 57t59 20q18 0 32.5 -6t35.5 -18q26 -15 46 -15q16 0 27 12q8 10 16 10q5 0 10 -4l50 -35q8 -6 8 -16q0 -7 -6 -18q-19 -34 -46 -51
t-55 -17q-20 0 -35.5 6.5z" />
    <glyph glyph-name="hungarumlaut" unicode="&#x2dd;" horiz-adv-x="467" 
d="M25.5 582.5q-4.5 3.5 -4.5 8.5t3 11l44 84q7 14 22 14h138q16 0 16 -11q0 -7 -4 -12l-63 -86q-8 -12 -23 -12h-117q-7 0 -11.5 3.5zM223.5 582.5q-4.5 3.5 -4.5 8.5t3 11l44 84q7 14 22 14h138q16 0 16 -11q0 -7 -4 -12l-63 -86q-8 -12 -23 -12h-117q-7 0 -11.5 3.5z" />
    <glyph glyph-name="gravecomb" unicode="&#x300;" horiz-adv-x="0" 
d="M-9 583q0 -5 -4.5 -8.5t-12.5 -3.5h-119q-14 0 -23 12l-65 86q-4 5 -4 11q0 12 16 12h142q15 0 22 -14l45 -84q3 -6 3 -11z" />
    <glyph glyph-name="acutecomb" unicode="&#x301;" horiz-adv-x="0" 
d="M-236.5 574.5q-4.5 3.5 -4.5 8.5t3 11l45 84q7 14 22 14h142q16 0 16 -12q0 -6 -4 -11l-65 -86q-9 -12 -23 -12h-119q-8 0 -12.5 3.5z" />
    <glyph glyph-name="uni0302" unicode="&#x302;" horiz-adv-x="0" 
d="M-347.5 574.5q-4.5 3.5 -4.5 8.5q0 6 4 11l67 94q8 12 23 12h149q16 0 24 -12l68 -94q4 -5 4 -11q0 -5 -4.5 -8.5t-11.5 -3.5h-103q-15 0 -22 13l-22 39q-2 4 -6 4t-6 -4l-22 -39q-7 -13 -22 -13h-104q-7 0 -11.5 3.5z" />
    <glyph glyph-name="tildecomb" unicode="&#x303;" horiz-adv-x="0" 
d="M-167.5 568.5q-15.5 6.5 -33.5 18.5q-22 14 -36 14q-18 0 -30 -13q-8 -10 -15 -10q-6 0 -11 4l-49 35q-10 7 -10 17q0 3 2 9q14 37 41 57t59 20q18 0 32.5 -6t35.5 -18q26 -15 46 -15q16 0 27 12q8 10 16 10q5 0 10 -4l50 -35q8 -6 8 -16q0 -7 -6 -18q-19 -34 -46 -51
t-55 -17q-20 0 -35.5 6.5z" />
    <glyph glyph-name="uni0304" unicode="&#x304;" horiz-adv-x="0" 
d="M-311 586v87q0 19 19 19h273q19 0 19 -19v-87q0 -19 -19 -19h-273q-19 0 -19 19z" />
    <glyph glyph-name="uni0306" unicode="&#x306;" horiz-adv-x="0" 
d="M-237.5 573.5q-37.5 30.5 -44.5 77.5v4q0 7 5 11.5t13 4.5h57q15 0 21 -17q4 -14 14 -22.5t24 -8.5t24 8.5t14 22.5q6 17 21 17h57q9 0 14.5 -5t4.5 -14q-8 -47 -46 -78t-89 -31q-52 0 -89.5 30.5z" />
    <glyph glyph-name="uni0307" unicode="&#x307;" horiz-adv-x="0" 
d="M-133.5 573q-21.5 22 -21.5 57q0 36 21.5 57.5t56.5 21.5t56 -21.5t21 -57.5q0 -35 -21 -57t-56 -22t-56.5 22z" />
    <glyph glyph-name="uni0308" unicode="&#x308;" horiz-adv-x="0" 
d="M-355.5 575q-24.5 24 -24.5 63t24.5 63t62.5 24t61.5 -24t23.5 -63t-23.5 -63t-61.5 -24t-62.5 24zM-148.5 575q-23.5 24 -23.5 63t23.5 63t62.5 24t62.5 -24t23.5 -63t-23.5 -63t-62.5 -24t-62.5 24z" />
    <glyph glyph-name="uni030A" unicode="&#x30a;" horiz-adv-x="0" 
d="M-194.5 588q-33.5 34 -33.5 83t34 82.5t83 33.5t83 -33.5t34 -82.5t-34 -83t-83 -34q-50 0 -83.5 34zM-85.5 645.5q10.5 10.5 10.5 25.5q0 16 -10.5 26.5t-25.5 10.5t-25.5 -10.5t-10.5 -26.5q0 -15 10.5 -25.5t25.5 -10.5t25.5 10.5z" />
    <glyph glyph-name="uni030B" unicode="&#x30b;" horiz-adv-x="0" 
d="M-416 583l2 8l36 84q6 15 22 15h129q16 0 16 -13q0 -6 -2 -9l-43 -85q-8 -14 -22 -14h-121q-17 0 -17 14zM-221.5 572.5q-4.5 3.5 -4.5 8.5t3 11l43 84q7 14 22 14h121q7 0 11.5 -3.5t4.5 -8.5t-3 -11l-44 -84q-7 -14 -22 -14h-120q-7 0 -11.5 3.5z" />
    <glyph glyph-name="uni030C" unicode="&#x30c;" horiz-adv-x="0" 
d="M-296 578l-57 93q-4 8 -4 11q0 5 5 8.5t12 3.5h101q15 0 22 -13l22 -39q2 -4 6 -4t6 4l22 39q7 13 22 13h100q7 0 11.5 -3.5t4.5 -8.5q0 -6 -4 -11l-59 -93q-8 -13 -23 -13h-164q-16 0 -23 13z" />
    <glyph glyph-name="uni0312" unicode="&#x312;" horiz-adv-x="0" 
d="M-25.5 688.5q4.5 -3.5 4.5 -8.5t-3 -11l-45 -84q-7 -14 -22 -14h-142q-16 0 -16 12q0 6 4 11l65 86q9 12 23 12h119q8 0 12.5 -3.5z" />
    <glyph glyph-name="uni0313" unicode="&#x313;" horiz-adv-x="0" 
d="M-236.5 574.5q-4.5 3.5 -4.5 8.5t3 11l45 84q7 14 22 14h142q16 0 16 -12q0 -6 -4 -11l-65 -86q-9 -12 -23 -12h-119q-8 0 -12.5 3.5z" />
    <glyph glyph-name="uni0326" unicode="&#x326;" horiz-adv-x="0" 
d="M-248.5 -167.5q-4.5 3.5 -4.5 8.5t3 11l45 84q7 14 22 14h142q16 0 16 -12q0 -6 -4 -11l-65 -86q-9 -12 -23 -12h-119q-8 0 -12.5 3.5z" />
    <glyph glyph-name="uni0327" unicode="&#x327;" horiz-adv-x="0" 
d="M-187 -162l7 58q1 13 12 13q3 0 11 -2q4 -1 11 -1q11 0 18 5.5t7 16.5q0 21 -36 50q-9 7 -9 14q0 8 15 8h75q14 0 23 -9q53 -45 53 -96q0 -14 -4 -26q-10 -36 -37 -51.5t-63 -15.5q-38 0 -71 13q-14 5 -12 23z" />
    <glyph glyph-name="uni0328" unicode="&#x328;" horiz-adv-x="0" 
d="M-2 -166q0 -14 -12 -19q-33 -13 -71 -13q-36 0 -63 15.5t-37 51.5q-4 12 -4 26q0 51 53 96q9 9 23 9h75q15 0 15 -8q0 -7 -9 -14q-36 -29 -36 -50q0 -10 7 -16t18 -6q7 0 11 1q8 2 11 2q11 0 12 -13l7 -58v-4z" />
    <glyph glyph-name="uni0335" unicode="&#x335;" horiz-adv-x="0" 
d="M-359 658h340q19 0 19 -19v-72q0 -19 -19 -19h-340q-19 0 -19 19v72q0 19 19 19z" />
    <glyph glyph-name="uni0336" unicode="&#x336;" horiz-adv-x="0" 
d="M-654 524v87q0 19 19 19h616q19 0 19 -19v-87q0 -19 -19 -19h-616q-19 0 -19 19z" />
    <glyph glyph-name="uni0337" unicode="&#x337;" horiz-adv-x="0" 
d="M-447 -82q-7 0 -13 7l-67 78q-5 6 -5 13t7 13l497 438q6 6 14 6q7 0 13 -7l67 -78q5 -6 5 -13t-7 -13l-497 -438q-8 -6 -14 -6z" />
    <glyph glyph-name="uni0338" unicode="&#x338;" horiz-adv-x="0" 
d="M-463.5 -26.5q-4.5 3.5 -4.5 9.5q0 4 3 10l369 723q7 14 22 14h49q8 0 12.5 -3.5t4.5 -9.5q0 -4 -3 -10l-369 -723q-7 -14 -22 -14h-49q-8 0 -12.5 3.5z" />
    <glyph glyph-name="uni0394" unicode="&#x394;" horiz-adv-x="676" 
d="M18 19v129q0 13 5 23l241 515q6 14 23 14h101q17 0 23 -14l242 -516q5 -10 5 -23v-128q0 -19 -19 -19h-602q-19 0 -19 19zM204 167q0 -5 7 -5h254q4 0 6 2.5t0 6.5l-128 277q-2 5 -5 5t-5 -5l-128 -277z" />
    <glyph glyph-name="uni03A9" unicode="&#x3a9;" horiz-adv-x="630" 
d="M30 19v123q0 19 19 19h8q5 0 6.5 2.5t-0.5 6.5q-28 56 -28 126v148q0 78 35 138t98.5 93t146.5 33q84 0 147.5 -33t98.5 -93t35 -138v-148q0 -70 -28 -126q-2 -4 -1 -6.5t5 -2.5h9q19 0 19 -19v-123q0 -19 -19 -19h-229q-19 0 -19 19v128q0 15 16 21q28 10 43.5 35
t15.5 60v185q0 46 -25.5 73.5t-67.5 27.5q-41 0 -66.5 -27.5t-25.5 -73.5v-185q0 -35 15.5 -60t43.5 -36q16 -6 16 -21v-127q0 -19 -19 -19h-230q-19 0 -19 19z" />
    <glyph glyph-name="uni03BC" unicode="&#x3bc;" horiz-adv-x="555" 
d="M353 520h150q19 0 19 -19v-482q0 -19 -19 -19h-150q-19 0 -19 19v24q0 5 -3 6t-6 -3q-36 -45 -96 -52q-8 -2 -8 -9v-166q0 -19 -19 -19h-150q-19 0 -19 19v682q0 19 19 19h151q19 0 19 -19v-281q0 -30 15.5 -48.5t40.5 -18.5q21 0 35.5 13t19.5 35q1 4 1 10v290
q0 19 19 19z" />
    <glyph glyph-name="pi" unicode="&#x3c0;" horiz-adv-x="673" 
d="M632 360h-43q-8 0 -8 -8v-129q0 -43 10.5 -55.5t29.5 -10.5h2q18 0 18 -18v-120q0 -18 -18 -20l-20 -1q-36 -2 -58 -2q-70 0 -111.5 24.5t-40.5 95.5v236q0 8 -8 8h-97q-8 0 -8 -8v-333q0 -19 -19 -19h-150q-19 0 -19 19v333q0 8 -8 8h-43q-19 0 -19 19v122q0 19 19 19
h591q19 0 19 -19v-122q0 -19 -19 -19z" />
    <glyph glyph-name="Wgrave" unicode="&#x1e80;" horiz-adv-x="857" 
d="M180 16l-196 663q-1 3 -1 7q0 14 17 14h162q17 0 21 -16l82 -316q2 -5 5.5 -5t4.5 5l76 315q5 17 21 17h117q17 0 21 -16l80 -316q2 -5 5.5 -5t4.5 5l74 315q4 17 21 17h162q10 0 14 -5.5t2 -15.5l-175 -663q-4 -16 -21 -16h-153q-18 0 -21 17l-69 331q-2 5 -5 5.5
t-4 -5.5l-61 -331q-3 -17 -20 -17h-142q-17 0 -22 16zM507 763q0 -5 -4.5 -8.5t-12.5 -3.5h-119q-14 0 -23 12l-65 86q-4 5 -4 11q0 12 16 12h142q15 0 22 -14l45 -84q3 -6 3 -11z" />
    <glyph glyph-name="wgrave" unicode="&#x1e81;" horiz-adv-x="825" 
d="M160 16l-142 483q-1 3 -1 7q0 14 17 14h155q17 0 20 -17l47 -230q2 -5 5.5 -5t4.5 5l51 229q3 17 21 17h136q17 0 21 -17l55 -231q2 -5 5.5 -5t4.5 5l55 232q4 17 21 17l155 -2q10 0 14.5 -5.5t1.5 -15.5l-145 -481q-5 -16 -22 -16h-156q-16 0 -21 16l-53 188
q-1 5 -4 4.5t-5 -5.5l-42 -186q-3 -17 -21 -17h-156q-17 0 -22 16zM477 583q0 -5 -4.5 -8.5t-12.5 -3.5h-119q-14 0 -23 12l-65 86q-4 5 -4 11q0 12 16 12h142q15 0 22 -14l45 -84q3 -6 3 -11z" />
    <glyph glyph-name="Wacute" unicode="&#x1e82;" horiz-adv-x="857" 
d="M180 16l-196 663q-1 3 -1 7q0 14 17 14h162q17 0 21 -16l82 -316q2 -5 5.5 -5t4.5 5l76 315q5 17 21 17h117q17 0 21 -16l80 -316q2 -5 5.5 -5t4.5 5l74 315q4 17 21 17h162q10 0 14 -5.5t2 -15.5l-175 -663q-4 -16 -21 -16h-153q-18 0 -21 17l-69 331q-2 5 -5 5.5
t-4 -5.5l-61 -331q-3 -17 -20 -17h-142q-17 0 -22 16zM353.5 754.5q-4.5 3.5 -4.5 8.5t3 11l45 84q7 14 22 14h142q16 0 16 -12q0 -6 -4 -11l-65 -86q-9 -12 -23 -12h-119q-8 0 -12.5 3.5z" />
    <glyph glyph-name="wacute" unicode="&#x1e83;" horiz-adv-x="825" 
d="M160 16l-142 483q-1 3 -1 7q0 14 17 14h155q17 0 20 -17l47 -230q2 -5 5.5 -5t4.5 5l51 229q3 17 21 17h136q17 0 21 -17l55 -231q2 -5 5.5 -5t4.5 5l55 232q4 17 21 17l155 -2q10 0 14.5 -5.5t1.5 -15.5l-145 -481q-5 -16 -22 -16h-156q-16 0 -21 16l-53 188
q-1 5 -4 4.5t-5 -5.5l-42 -186q-3 -17 -21 -17h-156q-17 0 -22 16zM323.5 574.5q-4.5 3.5 -4.5 8.5t3 11l45 84q7 14 22 14h142q16 0 16 -12q0 -6 -4 -11l-65 -86q-9 -12 -23 -12h-119q-8 0 -12.5 3.5z" />
    <glyph glyph-name="Wdieresis" unicode="&#x1e84;" horiz-adv-x="857" 
d="M180 16l-196 663q-1 3 -1 7q0 14 17 14h162q17 0 21 -16l82 -316q2 -5 5.5 -5t4.5 5l76 315q5 17 21 17h117q17 0 21 -16l80 -316q2 -5 5.5 -5t4.5 5l74 315q4 17 21 17h162q10 0 14 -5.5t2 -15.5l-175 -663q-4 -16 -21 -16h-153q-18 0 -21 17l-69 331q-2 5 -5 5.5
t-4 -5.5l-61 -331q-3 -17 -20 -17h-142q-17 0 -22 16zM263.5 755q-24.5 24 -24.5 63t24.5 63t62.5 24t61.5 -24t23.5 -63t-23.5 -63t-61.5 -24t-62.5 24zM470.5 755q-23.5 24 -23.5 63t23.5 63t62.5 24t62.5 -24t23.5 -63t-23.5 -63t-62.5 -24t-62.5 24z" />
    <glyph glyph-name="wdieresis" unicode="&#x1e85;" horiz-adv-x="825" 
d="M160 16l-142 483q-1 3 -1 7q0 14 17 14h155q17 0 20 -17l47 -230q2 -5 5.5 -5t4.5 5l51 229q3 17 21 17h136q17 0 21 -17l55 -231q2 -5 5.5 -5t4.5 5l55 232q4 17 21 17l155 -2q10 0 14.5 -5.5t1.5 -15.5l-145 -481q-5 -16 -22 -16h-156q-16 0 -21 16l-53 188
q-1 5 -4 4.5t-5 -5.5l-42 -186q-3 -17 -21 -17h-156q-17 0 -22 16zM233.5 575q-24.5 24 -24.5 63t24.5 63t62.5 24t61.5 -24t23.5 -63t-23.5 -63t-61.5 -24t-62.5 24zM440.5 575q-23.5 24 -23.5 63t23.5 63t62.5 24t62.5 -24t23.5 -63t-23.5 -63t-62.5 -24t-62.5 24z" />
    <glyph glyph-name="Ygrave" unicode="&#x1ef2;" horiz-adv-x="651" 
d="M231 21v215q0 4 -2 10l-201 432q-2 6 -2 9q0 13 17 13h163q17 0 22 -15l92 -231q2 -4 5 -4t5 4l92 231q5 15 22 15h164q17 0 17 -13q0 -3 -2 -9l-203 -432q-2 -6 -2 -10v-215q0 -19 -19 -19h-149q-19 0 -19 19zM403 763q0 -5 -4.5 -8.5t-12.5 -3.5h-119q-14 0 -23 12
l-65 86q-4 5 -4 11q0 12 16 12h142q15 0 22 -14l45 -84q3 -6 3 -11z" />
    <glyph glyph-name="ygrave" unicode="&#x1ef3;" horiz-adv-x="534" 
d="M37 -180v116q0 9 2 14t4 5h5q65 0 92.5 7.5t31.5 32.5q1 4 -1 10l-155 493q-1 3 -1 7q0 15 17 15h160q18 0 21 -17l50 -229q1 -5 4.5 -4.5t5.5 5.5l47 228q3 17 21 17h161q10 0 14.5 -6t1.5 -16l-162 -500q-26 -77 -55 -117t-86.5 -60t-163.5 -20h-7q-7 0 -7 19zM344 596
q0 -5 -4.5 -8.5t-12.5 -3.5h-119q-14 0 -23 12l-65 86q-4 5 -4 11q0 12 16 12h142q15 0 22 -14l45 -84q3 -6 3 -11z" />
    <glyph glyph-name="endash" unicode="&#x2013;" horiz-adv-x="494" 
d="M22 223v123q0 19 19 19h412q19 0 19 -19v-123q0 -19 -19 -19h-412q-19 0 -19 19z" />
    <glyph glyph-name="emdash" unicode="&#x2014;" horiz-adv-x="641" 
d="M22 224v122q0 19 19 19h559q19 0 19 -19v-122q0 -19 -19 -19h-559q-19 0 -19 19z" />
    <glyph glyph-name="quoteleft" unicode="&#x2018;" horiz-adv-x="246" 
d="M7 474l2 8l83 203q6 15 22 15h110q10 0 14.5 -5.5t2.5 -15.5l-48 -202q-4 -17 -21 -17h-148q-17 0 -17 14z" />
    <glyph glyph-name="quoteright" unicode="&#x2019;" horiz-adv-x="246" 
d="M239 686l-2 -8l-83 -203q-6 -15 -22 -15h-110q-10 0 -14.5 5.5t-2.5 15.5l48 202q4 17 21 17h148q17 0 17 -14z" />
    <glyph glyph-name="quotesinglbase" unicode="&#x201a;" horiz-adv-x="600" 
d="M28 -105.5q-5 5.5 -4 14.5l25 233q2 18 20 18h128q10 0 14 -5.5t2 -15.5l-63 -234q-4 -16 -21 -16h-87q-9 0 -14 5.5z" />
    <glyph glyph-name="quotedblleft" unicode="&#x201c;" horiz-adv-x="428" 
d="M8.5 466q-4.5 6 -1.5 16l70 203q5 15 21 15h105q10 0 14.5 -5.5t2.5 -15.5l-36 -202q-3 -17 -20 -17h-141q-10 0 -14.5 6zM214.5 466q-4.5 6 -1.5 16l68 202q5 16 21 16h105q10 0 14.5 -5.5t2.5 -15.5l-34 -202q-3 -17 -21 -17h-140q-10 0 -14.5 6z" />
    <glyph glyph-name="quotedblright" unicode="&#x201d;" horiz-adv-x="428" 
d="M213.5 694q4.5 -6 1.5 -16l-68 -202q-5 -16 -21 -16h-105q-10 0 -14.5 5.5t-2.5 15.5l34 202q3 17 21 17h140q10 0 14.5 -6zM419.5 694q4.5 -6 1.5 -16l-70 -203q-4 -15 -21 -15h-105q-10 0 -14.5 5.5t-2.5 15.5l36 202q3 17 20 17h141q10 0 14.5 -6z" />
    <glyph glyph-name="quotedblbase" unicode="&#x201e;" horiz-adv-x="455" 
d="M213.5 123q4.5 -6 1.5 -16l-68 -202q-5 -16 -21 -16h-105q-10 0 -14.5 5.5t-2.5 15.5l34 202q3 17 21 17h140q10 0 14.5 -6zM419.5 123q4.5 -6 1.5 -16l-70 -203q-4 -15 -21 -15h-105q-10 0 -14.5 5.5t-2.5 15.5l36 202q3 17 20 17h141q10 0 14.5 -6z" />
    <glyph glyph-name="dagger" unicode="&#x2020;" horiz-adv-x="464" 
d="M442 441v-102q0 -19 -19 -19h-89q-8 0 -8 -8v-493q0 -19 -19 -19h-150q-19 0 -19 19v493q0 8 -8 8h-89q-19 0 -19 19v102q0 19 19 19h89q8 0 8 8v213q0 19 19 19h150q19 0 19 -19v-213q0 -8 8 -8h89q19 0 19 -19z" />
    <glyph glyph-name="daggerdbl" unicode="&#x2021;" horiz-adv-x="464" 
d="M423 320h-89q-8 0 -8 -8v-124q0 -8 8 -8h89q19 0 19 -19v-102q0 -19 -19 -19h-89q-8 0 -8 -8v-213q0 -19 -19 -19h-150q-19 0 -19 19v213q0 8 -8 8h-89q-19 0 -19 19v102q0 19 19 19h89q8 0 8 8v124q0 8 -8 8h-89q-19 0 -19 19v102q0 19 19 19h89q8 0 8 8v213q0 19 19 19
h150q19 0 19 -19v-213q0 -8 8 -8h89q19 0 19 -19v-102q0 -19 -19 -19z" />
    <glyph glyph-name="bullet" unicode="&#x2022;" horiz-adv-x="322" 
d="M91.5 162q-32.5 19 -51 51t-18.5 70t18.5 70t51 50.5t70.5 18.5q37 0 69 -18.5t50.5 -50.5t18.5 -70t-18.5 -70t-50.5 -51t-69 -19q-38 0 -70.5 19z" />
    <glyph glyph-name="ellipsis" unicode="&#x2026;" horiz-adv-x="888" 
d="M51.5 22.5q-31.5 30.5 -31.5 74.5q0 28 16 52t41.5 38t53.5 14t54 -14t42 -38t16 -52q0 -44 -32 -74.5t-80 -30.5t-79.5 30.5zM363.5 22.5q-31.5 30.5 -31.5 74.5q0 28 16 52t41.5 38t53.5 14t54 -14t42 -38t16 -52q0 -44 -32 -74.5t-80 -30.5t-79.5 30.5zM676.5 22.5
q-31.5 30.5 -31.5 74.5q0 28 16 52t41.5 38t53.5 14t54 -14t42 -38t16 -52q0 -44 -32 -74.5t-80 -30.5t-79.5 30.5z" />
    <glyph glyph-name="perthousand" unicode="&#x2030;" horiz-adv-x="1198" 
d="M53.5 316.5q-41.5 40.5 -41.5 110.5v132q0 69 41.5 109t114.5 40q72 0 114 -40t42 -109v-132q0 -70 -42 -110.5t-114 -40.5q-73 0 -114.5 40.5zM196 388.5q10 11.5 10 31.5v143q0 20 -10 32t-28 12t-28 -12t-10 -32v-143q0 -20 10 -31.5t28 -11.5t28 11.5zM180 12
q0 5 3 11l370 664q7 13 22 13h91q16 0 16 -12q0 -5 -3 -11l-369 -664q-7 -13 -22 -13h-92q-16 0 -16 12zM577.5 32.5q-41.5 40.5 -41.5 110.5v132q0 69 41.5 109t114.5 40q72 0 114 -40t42 -109v-132q0 -70 -42 -110.5t-114 -40.5q-73 0 -114.5 40.5zM720 104.5
q10 11.5 10 31.5v143q0 20 -10 32t-28 12t-28 -12t-10 -32v-143q0 -20 10 -31.5t28 -11.5t28 11.5zM914.5 32.5q-41.5 40.5 -41.5 110.5v132q0 69 41.5 109t114.5 40q72 0 114 -40t42 -109v-132q0 -70 -42 -110.5t-114 -40.5q-73 0 -114.5 40.5zM1057 104.5q10 11.5 10 31.5
v143q0 20 -10 32t-28 12t-28 -12t-10 -32v-143q0 -20 10 -31.5t28 -11.5t28 11.5z" />
    <glyph glyph-name="guilsinglleft" unicode="&#x2039;" horiz-adv-x="316" 
d="M268 120q0 -13 -16 -13h-113q-17 0 -23 14l-71 147q-3 8 -3 13q0 7 3 13l71 147q6 14 23 14h113q16 0 16 -13q0 -6 -2 -9l-73 -147q-3 -5 0 -10l73 -147q2 -3 2 -9z" />
    <glyph glyph-name="guilsinglright" unicode="&#x203a;" horiz-adv-x="307" 
d="M48 120q0 6 2 9l73 147q3 5 0 10l-73 147q-2 3 -2 9q0 13 16 13h113q17 0 23 -14l71 -147q3 -6 3 -13q0 -5 -3 -13l-71 -147q-6 -14 -23 -14h-113q-16 0 -16 13z" />
    <glyph glyph-name="fraction" unicode="&#x2044;" horiz-adv-x="212" 
d="M-132 12q0 5 3 11l370 664q7 13 22 13h91q16 0 16 -12q0 -5 -3 -11l-369 -664q-7 -13 -22 -13h-92q-16 0 -16 12z" />
    <glyph glyph-name="uni2074" unicode="&#x2074;" horiz-adv-x="389" 
d="M362 601q5 -5 5 -14v-69q0 -9 -5 -14t-13 -5h-10q-8 0 -8 -8v-72q0 -19 -19 -19h-80q-19 0 -19 19v72q0 8 -8 8h-174q-19 0 -19 19v54q0 10 5 23l91 210q6 15 22 15h84q17 0 17 -14l-2 -8l-77 -183l-1 -4q0 -5 7 -5h47q8 0 8 8v42q0 19 19 19h80q19 0 19 -19v-42
q0 -8 8 -8h10q8 0 13 -5z" />
    <glyph glyph-name="uni2075" unicode="&#x2075;" horiz-adv-x="323" 
d="M314 535q0 -30 -13 -60q-17 -38 -54.5 -60.5t-87.5 -22.5q-48 0 -86 22t-56 61q-6 14 -9 27l-1 6q0 14 18 14h85q15 0 18 -8l4 -7q9 -14 27 -14q14 0 25 13q9 11 9 26q0 16 -7 27q-9 14 -27 14q-10 0 -21 -6q-2 -1 -8 -6t-15 -5h-90q-19 0 -19 19v222q0 19 19 19h257
q19 0 19 -19v-63q0 -19 -19 -19h-150q-8 0 -8 -8v-34q0 -4 2.5 -6t6.5 0q21 7 44 7q39 0 72.5 -20.5t51.5 -59.5q13 -28 13 -59z" />
    <glyph glyph-name="uni2076" unicode="&#x2076;" horiz-adv-x="332" 
d="M321 535q0 -35 -11 -60q-17 -37 -55.5 -60t-87.5 -23q-48 0 -85 22t-55 61q-13 27 -13 60v175q0 50 41 80.5t108 30.5q65 0 106 -31t41 -80v-12q0 -19 -19 -19h-80q-19 0 -19 7v6q0 12 -8.5 20t-21.5 8t-21.5 -8.5t-8.5 -19.5v-28q0 -4 2.5 -5.5t6.5 0.5q21 12 47 12
q37 0 71 -20.5t51 -56.5q11 -23 11 -59zM203 530q0 15 -7 25q-10 15 -28 15q-12 0 -22 -8q-13 -11 -13 -31q0 -16 9 -27t26 -11q15 0 24 9q11 11 11 28z" />
    <glyph glyph-name="uni2077" unicode="&#x2077;" horiz-adv-x="309" 
d="M61 413q0 3 2 9l113 288q1 1 1 4q0 5 -7 5h-62q-8 0 -8 -8v-33q0 -19 -19 -19h-57q-19 0 -19 19l1 123q0 19 19 19h260q19 0 19 -19v-70q0 -11 -4 -23l-117 -293q-5 -15 -22 -15h-83q-17 0 -17 13z" />
    <glyph glyph-name="uni2078" unicode="&#x2078;" horiz-adv-x="335" 
d="M322 524q0 -31 -12 -57q-16 -34 -54.5 -54.5t-88.5 -20.5q-47 0 -84.5 19t-56.5 55q-14 27 -14 59q0 16 4.5 34t11.5 30q8 15 19 23q6 6 0 12q-8 7 -16 19q-15 23 -15 57q0 35 15 60q17 32 53 49t84 17t84.5 -18t53.5 -50q14 -26 14 -56q0 -35 -16 -59l-15 -19
q-5 -5 0 -11q11 -9 19 -23q14 -25 14 -66zM133 692q0 -11 7 -22q10 -12 29 -12t28 12q7 9 7 21q0 14 -7 21q-10 13 -29 13q-20 0 -29 -14q-6 -7 -6 -19zM202 534q0 12 -5 22q-10 16 -29 16t-29 -16q-5 -10 -5 -22q0 -17 8 -28q9 -14 26 -14q16 0 26 13q8 13 8 29z" />
    <glyph glyph-name="uni2079" unicode="&#x2079;" horiz-adv-x="332" 
d="M318 678v-175q0 -50 -41 -80.5t-108 -30.5q-65 0 -106 31t-41 80v12q0 19 19 19h80q19 0 19 -6v-7q0 -12 8.5 -20t21.5 -8t21.5 8.5t8.5 19.5v28q0 4 -2.5 5.5t-6.5 -0.5q-21 -12 -47 -12q-37 0 -71 20.5t-51 56.5q-11 23 -11 59q0 35 11 60q17 37 55.5 60t87.5 23
q48 0 85 -22t55 -61q13 -27 13 -60zM199 682q0 17 -9 27q-9 11 -26 11q-15 0 -24 -9q-11 -11 -11 -28q0 -15 7 -25q10 -15 28 -15q12 0 22 8q13 11 13 31z" />
    <glyph glyph-name="franc" unicode="&#x20a3;" horiz-adv-x="614" 
d="M586 539h-291q-8 0 -8 -8v-88q0 -8 8 -8h178q19 0 19 -19v-122q0 -19 -19 -19h-178q-8 0 -8 -8v-51q0 -8 8 -8h103q19 0 19 -19v-72q0 -19 -19 -19h-103q-8 0 -8 -8v-71q0 -19 -19 -19h-150q-19 0 -19 19v71q0 8 -8 8h-33q-19 0 -19 19v72q0 19 19 19h33q8 0 8 8v465
q0 19 19 19h468q19 0 19 -19v-123q0 -19 -19 -19z" />
    <glyph glyph-name="Euro" unicode="&#x20ac;" horiz-adv-x="633" 
d="M394.5 164.5q15.5 11.5 21.5 31.5q5 19 22 16l148 -27q19 -3 16 -22q-17 -80 -81.5 -125.5t-162.5 -45.5q-74 0 -130.5 29.5t-87.5 83t-31 125.5v9q0 8 -8 8h-52q-19 0 -19 19v56q0 19 19 19h52q8 0 8 8v5q0 8 -8 8h-52q-19 0 -19 19v56q0 19 19 19h52q8 0 8 8v8
q0 72 31 125t87 82t131 29q99 0 164.5 -46t80.5 -128v-4q0 -15 -16 -17l-151 -18h-3q-13 0 -19 15q-7 17 -21.5 27t-34.5 10q-27 0 -44 -19.5t-17 -50.5v-13q0 -8 8 -8h162q10 0 14.5 -5.5t1.5 -15.5l-16 -57q-5 -16 -22 -16h-140q-8 0 -8 -8v-5q0 -8 8 -8h128
q10 0 14.5 -5.5t1.5 -15.5l-16 -57q-5 -16 -22 -16h-106q-8 0 -8 -8v-17q0 -31 17 -50t44 -19q21 0 36.5 11.5z" />
    <glyph glyph-name="uni20BA" unicode="&#x20ba;" horiz-adv-x="655" 
d="M459 291h150q9 0 14 -5t4 -14q-4 -72 -41 -134t-108.5 -100t-173.5 -38h-149q-19 0 -19 19v209q0 4 -2.5 6t-6.5 1l-49 -14q-2 -1 -6 -1q-6 0 -11 3.5t-6 10.5l-19 64q-1 3 -1 8q0 12 13 15l81 23q7 2 7 9v25q0 4 -2.5 6t-6.5 1l-49 -14q-2 -1 -6 -1q-6 0 -11 3.5
t-6 10.5l-19 64q-1 3 -1 8q0 12 13 15l81 23q7 2 7 9v178q0 19 19 19h150q19 0 19 -19v-123q0 -8 9 -6l137 38q2 1 6 1q6 0 11 -3.5t6 -10.5l19 -64l2 -8q0 -10 -14 -15l-169 -48q-7 -2 -7 -9v-25q0 -8 9 -6l137 38q2 1 6 1q6 0 11 -3.5t6 -10.5l19 -64l2 -8q0 -10 -14 -15
l-169 -48q-7 -2 -7 -9v-114q0 -9 11 -7q97 12 104 110q1 19 20 19z" />
    <glyph glyph-name="uni20BD" unicode="&#x20bd;" horiz-adv-x="702" 
d="M334 255q-8 0 -8 -8v-19q0 -8 8 -8h148q19 0 19 -19v-68q0 -19 -19 -19h-148q-8 0 -8 -8v-87q0 -19 -19 -19h-150q-19 0 -19 19v87q0 8 -8 8h-72q-19 0 -19 19v68q0 19 19 19h72q8 0 8 8v19q0 8 -8 8h-72q-19 0 -19 19v112q0 19 19 19h72q8 0 8 8v268q0 19 19 19h289
q70 0 124 -28.5t84 -79.5t30 -117q0 -65 -33 -115t-89.5 -77.5t-124.5 -27.5h-103zM326 531v-118q0 -8 8 -8h81q82 0 82 66q0 68 -82 68h-81q-8 0 -8 -8z" />
    <glyph glyph-name="uni2113" unicode="&#x2113;" horiz-adv-x="500" 
d="M367 161q6 0 12 -6l72 -74q7 -9 7 -14q0 -7 -6 -13q-29 -33 -66.5 -47.5t-95.5 -14.5q-79 0 -127 43t-54 118q-1 5 -3.5 7t-5.5 0l-8 -5q-6 -3 -10 -3q-10 0 -15 13l-26 86q-1 3 -1 8q0 11 12 17l49 27q6 3 6 9l-1 191q0 44 20.5 91.5t63.5 80t106 32.5q73 0 117 -44
t44 -114q0 -85 -50.5 -155t-141.5 -134q-5 -5 -5 -10v-45q0 -39 13 -56t33 -17q26 0 47 21q8 8 14 8zM258 429q0 -5 3 -6.5t7 2.5q52 57 52 107q0 22 -6 33t-22 12q-18 -1 -26.5 -21t-7.5 -83v-44z" />
    <glyph glyph-name="trademark" unicode="&#x2122;" horiz-adv-x="678" 
d="M9 635v46q0 19 19 19h254q19 0 19 -19v-46q0 -19 -19 -19h-71q-8 0 -8 -8v-240q0 -19 -19 -19h-60q-19 0 -19 19v240q0 8 -8 8h-69q-19 0 -19 19zM577 700h62q19 0 19 -19v-313q0 -19 -19 -19h-60q-19 0 -19 19v169q0 5 -3.5 6t-6.5 -3l-23 -31q-8 -11 -23 -11h-14
q-15 0 -23 11l-23 31q-4 4 -5 4q-5 0 -5 -7v-169q0 -19 -19 -19h-60q-19 0 -19 19v313q0 19 19 19h63q15 0 23 -11l50 -67q2 -4 6 -3.5t6 3.5l51 67q8 11 23 11z" />
    <glyph glyph-name="uni2126" unicode="&#x2126;" horiz-adv-x="630" 
d="M30 19v123q0 19 19 19h8q5 0 6.5 2.5t-0.5 6.5q-28 56 -28 126v148q0 78 35 138t98.5 93t146.5 33q84 0 147.5 -33t98.5 -93t35 -138v-148q0 -70 -28 -126q-2 -4 -1 -6.5t5 -2.5h9q19 0 19 -19v-123q0 -19 -19 -19h-229q-19 0 -19 19v128q0 15 16 21q28 10 43.5 35
t15.5 60v185q0 46 -25.5 73.5t-67.5 27.5q-41 0 -66.5 -27.5t-25.5 -73.5v-185q0 -35 15.5 -60t43.5 -36q16 -6 16 -21v-127q0 -19 -19 -19h-230q-19 0 -19 19z" />
    <glyph glyph-name="estimated" unicode="&#x212e;" horiz-adv-x="805" 
d="M594 661.5q85 -46.5 133 -129t48 -185.5q0 -4 -19 -4h-586q-8 0 -8 -8v-204q0 -6 4 -10q45 -42 105 -65t131 -23q87 0 167.5 45.5t121.5 117.5q7 13 22 13h8q8 0 12.5 -3.5t4.5 -9.5q0 -4 -3 -9q-45 -86 -137.5 -140.5t-195.5 -54.5q-107 0 -191.5 45.5t-132.5 126.5
t-48 183q0 103 48 185.5t132.5 129t191.5 46.5t192 -46.5zM163 568v-176q0 -8 8 -8h463q8 0 8 8v175q0 6 -4 10q-45 43 -105.5 66.5t-130.5 23.5q-71 0 -130.5 -23t-104.5 -66q-4 -4 -4 -10z" />
    <glyph glyph-name="oneeighth" unicode="&#x215b;" horiz-adv-x="811" 
d="M73 700h87q19 0 19 -19v-382q0 -19 -19 -19h-80q-19 0 -19 19v292q0 8 -8 8l-12 1q-19 0 -19 19v49q0 16 15 22l13 5q11 5 23 5zM107 12q0 5 3 11l370 664q7 13 22 13h91q16 0 16 -12q0 -5 -3 -11l-369 -664q-7 -13 -22 -13h-92q-16 0 -16 12zM798 124q0 -31 -12 -57
q-16 -34 -54.5 -54.5t-88.5 -20.5q-47 0 -84.5 19t-56.5 55q-14 27 -14 59q0 16 4.5 34t11.5 30q8 15 19 23q6 6 0 12q-8 7 -16 19q-15 23 -15 57q0 35 15 60q17 32 53 49t84 17t84.5 -18t53.5 -50q14 -26 14 -56q0 -35 -16 -59l-15 -19q-5 -5 0 -11q11 -9 19 -23
q14 -25 14 -66zM609 292q0 -11 7 -22q10 -12 29 -12t28 12q7 9 7 21q0 14 -7 21q-10 13 -29 13q-20 0 -29 -14q-6 -7 -6 -19zM678 134q0 12 -5 22q-10 16 -29 16t-29 -16q-5 -10 -5 -22q0 -17 8 -28q9 -14 26 -14q16 0 26 13q8 13 8 29z" />
    <glyph glyph-name="threeeighths" unicode="&#x215c;" horiz-adv-x="897" 
d="M316 423q0 -33 -12 -62q-17 -39 -54.5 -62.5t-86.5 -23.5t-87 23.5t-56 64.5q-8 16 -11 42v2q0 9 5 13.5t14 4.5h81q16 0 20 -18q4 -12 7 -17q9 -14 27 -14q17 0 26 14q9 15 9 36q0 23 -9 38t-27 15q-13 0 -26 -8q-8 -4 -12 -4q-9 0 -15 8l-37 46q-5 7 -5 13q0 8 9 14
l69 41q4 3 4 6q0 4 -7 4h-102q-19 0 -19 19v63q0 19 19 19h251q19 0 19 -19v-67q0 -14 -12 -23l-55 -39q-3 -3 -3 -5q0 -3 6 -6q39 -14 59 -58q11 -25 11 -60zM193 12q0 5 3 11l370 664q7 13 22 13h91q16 0 16 -12q0 -5 -3 -11l-369 -664q-7 -13 -22 -13h-92q-16 0 -16 12z
M884 124q0 -31 -12 -57q-16 -34 -54.5 -54.5t-88.5 -20.5q-47 0 -84.5 19t-56.5 55q-14 27 -14 59q0 16 4.5 34t11.5 30q8 15 19 23q6 6 0 12q-8 7 -16 19q-15 23 -15 57q0 35 15 60q17 32 53 49t84 17t84.5 -18t53.5 -50q14 -26 14 -56q0 -35 -16 -59l-15 -19q-5 -5 0 -11
q11 -9 19 -23q14 -25 14 -66zM695 292q0 -11 7 -22q10 -12 29 -12t28 12q7 9 7 21q0 14 -7 21q-10 13 -29 13q-20 0 -29 -14q-6 -7 -6 -19zM764 134q0 12 -5 22q-10 16 -29 16t-29 -16q-5 -10 -5 -22q0 -17 8 -28q9 -14 26 -14q16 0 26 13q8 13 8 29z" />
    <glyph glyph-name="fiveeighths" unicode="&#x215d;" horiz-adv-x="895" 
d="M314 415q0 -30 -13 -60q-17 -38 -54.5 -60.5t-87.5 -22.5q-48 0 -86 22t-56 61q-6 14 -9 27l-1 6q0 14 18 14h85q15 0 18 -8l4 -7q9 -14 27 -14q14 0 25 13q9 11 9 26q0 16 -7 27q-9 14 -27 14q-10 0 -21 -6q-2 -1 -8 -6t-15 -5h-90q-19 0 -19 19v222q0 19 19 19h257
q19 0 19 -19v-63q0 -19 -19 -19h-150q-8 0 -8 -8v-34q0 -4 2.5 -6t6.5 0q21 7 44 7q39 0 72.5 -20.5t51.5 -59.5q13 -28 13 -59zM191 12q0 5 3 11l370 664q7 13 22 13h91q16 0 16 -12q0 -5 -3 -11l-369 -664q-7 -13 -22 -13h-92q-16 0 -16 12zM882 124q0 -31 -12 -57
q-16 -34 -54.5 -54.5t-88.5 -20.5q-47 0 -84.5 19t-56.5 55q-14 27 -14 59q0 16 4.5 34t11.5 30q8 15 19 23q6 6 0 12q-8 7 -16 19q-15 23 -15 57q0 35 15 60q17 32 53 49t84 17t84.5 -18t53.5 -50q14 -26 14 -56q0 -35 -16 -59l-15 -19q-5 -5 0 -11q11 -9 19 -23
q14 -25 14 -66zM693 292q0 -11 7 -22q10 -12 29 -12t28 12q7 9 7 21q0 14 -7 21q-10 13 -29 13q-20 0 -29 -14q-6 -7 -6 -19zM762 134q0 12 -5 22q-10 16 -29 16t-29 -16q-5 -10 -5 -22q0 -17 8 -28q9 -14 26 -14q16 0 26 13q8 13 8 29z" />
    <glyph glyph-name="seveneighths" unicode="&#x215e;" horiz-adv-x="848" 
d="M61 293q0 3 2 9l113 288q1 1 1 4q0 5 -7 5h-62q-8 0 -8 -8v-33q0 -19 -19 -19h-57q-19 0 -19 19l1 123q0 19 19 19h260q19 0 19 -19v-70q0 -11 -4 -23l-117 -293q-5 -15 -22 -15h-83q-17 0 -17 13zM144 12q0 5 3 11l370 664q7 13 22 13h91q16 0 16 -12q0 -5 -3 -11
l-369 -664q-7 -13 -22 -13h-92q-16 0 -16 12zM835 124q0 -31 -12 -57q-16 -34 -54.5 -54.5t-88.5 -20.5q-47 0 -84.5 19t-56.5 55q-14 27 -14 59q0 16 4.5 34t11.5 30q8 15 19 23q6 6 0 12q-8 7 -16 19q-15 23 -15 57q0 35 15 60q17 32 53 49t84 17t84.5 -18t53.5 -50
q14 -26 14 -56q0 -35 -16 -59l-15 -19q-5 -5 0 -11q11 -9 19 -23q14 -25 14 -66zM646 292q0 -11 7 -22q10 -12 29 -12t28 12q7 9 7 21q0 14 -7 21q-10 13 -29 13q-20 0 -29 -14q-6 -7 -6 -19zM715 134q0 12 -5 22q-10 16 -29 16t-29 -16q-5 -10 -5 -22q0 -17 8 -28
q9 -14 26 -14q16 0 26 13q8 13 8 29z" />
    <glyph glyph-name="partialdiff" unicode="&#x2202;" horiz-adv-x="601" 
d="M540 479.5q25 -80.5 25 -162.5q0 -14 -2 -42q-11 -129 -87.5 -206t-209.5 -77q-117 0 -186.5 60.5t-69.5 172.5q0 78 34.5 130.5t90 77.5t121.5 25q43 0 85 -11h2q10 0 5 8q-11 24 -21 35q-30 35 -82 35q-47 0 -109 -29q-6 -3 -10 -3q-10 0 -15 13l-50 132q-2 6 -2 9
q0 11 12 15q98 42 184 42q132 0 210 -88q50 -56 75 -136.5zM335.5 182q23.5 29 31.5 84q1 6 -3 10q-14 16 -34.5 24.5t-41.5 8.5q-36 0 -63 -21.5t-27 -56.5q0 -32 22.5 -55t55.5 -23q36 0 59.5 29z" />
    <glyph glyph-name="uni2206" unicode="&#x2206;" horiz-adv-x="676" 
d="M18 19v128q0 13 5 23l241 516q6 14 23 14h101q17 0 23 -14l242 -517q5 -10 5 -23v-127q0 -19 -19 -19h-602q-19 0 -19 19zM204 166q0 -5 7 -5h254q4 0 6 2.5t0 6.5l-128 278q-2 5 -5 5t-5 -5l-128 -278z" />
    <glyph glyph-name="product" unicode="&#x220f;" horiz-adv-x="614" 
d="M584 781v-962q0 -19 -19 -19h-150q-19 0 -19 19v812q0 8 -8 8h-153q-8 0 -8 -8v-812q0 -19 -19 -19h-150q-19 0 -19 19v962q0 19 19 19h507q19 0 19 -19z" />
    <glyph glyph-name="summation" unicode="&#x2211;" horiz-adv-x="584" 
d="M39 -181v129q0 13 7 24l216 352q3 6 0 11l-215 293q-8 11 -8 24v129q0 19 19 19h483q19 0 19 -19v-123q0 -19 -19 -19h-303q-5 0 -6 -3t2 -7l220 -286q5 -5 5 -13q0 -7 -4 -14l-223 -345q-1 -1 -1 -4q0 -2 2 -4t5 -2h303q19 0 19 -19v-123q0 -19 -19 -19h-483
q-19 0 -19 19z" />
    <glyph glyph-name="minus" unicode="&#x2212;" horiz-adv-x="476" 
d="M22 231v122q0 19 19 19h394q19 0 19 -19v-122q0 -19 -19 -19h-394q-19 0 -19 19z" />
    <glyph glyph-name="uni2215" unicode="&#x2215;" horiz-adv-x="556" 
d="M25.5 3.5q-4.5 3.5 -4.5 8.5t3 11l341 663q7 14 22 14h132q7 0 11.5 -3.5t4.5 -8.5t-3 -11l-340 -663q-7 -14 -22 -14h-133q-7 0 -11.5 3.5z" />
    <glyph glyph-name="uni2219" unicode="&#x2219;" horiz-adv-x="322" 
d="M91.5 167q-32.5 19 -51 51t-18.5 70t18.5 70t51 50.5t70.5 18.5q37 0 69 -18.5t50.5 -50.5t18.5 -70t-18.5 -70t-50.5 -51t-69 -19q-38 0 -70.5 19z" />
    <glyph glyph-name="radical" unicode="&#x221a;" horiz-adv-x="858" 
d="M170 -185l-151 400q-2 6 -2 9q0 11 13 15l140 46q3 1 7 1q12 0 17 -13l55 -156q1 -5 4.5 -4.5t5.5 5.5l174 664q4 16 21 16h352q19 0 19 -19v-123q0 -19 -19 -19h-218q-7 0 -9 -7l-215 -814q-4 -16 -21 -16h-151q-17 0 -22 15z" />
    <glyph glyph-name="infinity" unicode="&#x221e;" horiz-adv-x="788" 
d="M667.5 495.5q46.5 -26.5 72.5 -73t26 -103.5q0 -58 -26.5 -104t-74 -72t-107.5 -26q-50 0 -89 19t-75 59q-6 6 -12 0q-34 -36 -73.5 -57t-88.5 -21q-55 0 -100 27t-71.5 74t-26.5 103t26.5 102t72.5 72.5t102 26.5q93 0 162 -78q6 -6 11 0q36 38 76.5 58t90.5 20
q58 0 104.5 -26.5zM255.5 272.5q14.5 11.5 39.5 42.5q6 6 1 12q-22 30 -36 40.5t-34 10.5q-28 0 -44 -15.5t-16 -41.5t16 -43t40 -17q19 0 33.5 11.5zM606 276.5q16 15.5 16 42.5t-15.5 43t-41.5 16q-21 0 -40 -12t-43 -41q-2 -2 -2 -5q0 -6 5 -11q21 -28 37.5 -38t37.5 -10
q30 0 46 15.5z" />
    <glyph glyph-name="integral" unicode="&#x222b;" horiz-adv-x="422" 
d="M20 -181v87q0 19 19 19h40q19 2 28.5 14.5t9.5 31.5v585q0 57 21.5 88.5t70 44.5t134.5 13l39 -1q20 -2 20 -20v-87q0 -19 -19 -19h-40q-20 -2 -29 -14.5t-9 -31.5v-585q0 -57 -21.5 -88.5t-70 -44.5t-134.5 -13l-39 1q-20 2 -20 20z" />
    <glyph glyph-name="approxequal" unicode="&#x2248;" horiz-adv-x="557" 
d="M285 310q-29 16 -47 24.5t-39 8.5q-32 0 -55 -29q-8 -8 -15 -8t-12 4l-81 56q-11 8 -11 16q0 3 2 9q19 49 65.5 81t99.5 32q24 0 43 -6.5t40 -18.5q7 -4 22.5 -13t28 -13.5t23.5 -4.5q28 0 50 28q7 10 15 10q6 0 11 -4l96 -61q10 -7 10 -17q0 -3 -2 -9q-20 -48 -67 -78
t-98 -30q-39 0 -79 23zM285 100q-29 16 -47 24.5t-39 8.5q-32 0 -55 -29q-8 -8 -15 -8t-12 4l-81 56q-11 8 -11 16q0 3 2 9q19 49 65.5 81t99.5 32q24 0 43 -6.5t40 -18.5q7 -4 22.5 -13t28 -13.5t23.5 -4.5q28 0 50 28q7 10 15 10q6 0 11 -4l96 -61q10 -7 10 -17
q0 -3 -2 -9q-20 -48 -67 -78t-98 -30q-39 0 -79 23z" />
    <glyph glyph-name="notequal" unicode="&#x2260;" horiz-adv-x="476" 
d="M435 317h-119q-8 0 -10 -6l-2 -6l-1 -4q0 -5 7 -5h125q19 0 19 -19v-122q0 -19 -19 -19h-196q-8 0 -10 -6l-32 -76q-6 -15 -22 -15h-70q-17 0 -17 14l2 8l28 66l1 4q0 5 -7 5h-71q-19 0 -19 19v122q0 19 19 19h142q8 0 10 6l2 6q1 1 1 4q0 5 -7 5h-148q-19 0 -19 19v122
q0 19 19 19h219q8 0 10 6l27 65q6 15 22 15h70q17 0 17 -14l-2 -8l-23 -55l-1 -4q0 -5 7 -5h48q19 0 19 -19v-122q0 -19 -19 -19z" />
    <glyph glyph-name="lessequal" unicode="&#x2264;" horiz-adv-x="476" 
d="M441 189q-3 0 -9 2l-395 170q-15 6 -15 22v128q0 16 15 22l395 169q3 2 9 2q13 0 13 -16v-138q0 -16 -15 -22l-210 -76q-5 -1 -5 -4.5t5 -5.5l210 -76q15 -6 15 -22v-138q0 -17 -13 -17zM435 0h-394q-19 0 -19 19v122q0 19 19 19h394q19 0 19 -19v-122q0 -19 -19 -19z
" />
    <glyph glyph-name="greaterequal" unicode="&#x2265;" horiz-adv-x="476" 
d="M22 19v122q0 19 19 19h394q19 0 19 -19v-122q0 -19 -19 -19h-394q-19 0 -19 19zM35 189q-13 0 -13 17v138q0 16 15 22l210 76q5 2 5 5.5t-5 4.5l-210 76q-15 6 -15 22v138q0 17 13 17q3 0 9 -2l395 -170q15 -6 15 -22v-128q0 -16 -15 -22l-395 -170q-6 -2 -9 -2z" />
    <glyph glyph-name="lozenge" unicode="&#x25ca;" horiz-adv-x="580" 
d="M221 -46l-193 383q-3 6 -3 11t4 15l193 383q8 14 22 14h92q14 0 22 -14l193 -383q4 -10 4 -15t-3 -11l-193 -383q-8 -14 -22 -14h-94q-14 0 -22 14zM290 145q3 0 5 5l90 195q4 6 1 10l-91 195q-2 5 -5 5t-5 -5l-90 -195q-3 -5 0 -10l90 -195q2 -5 5 -5z" />
    <glyph glyph-name="NULL" horiz-adv-x="0" 
 />
    <glyph glyph-name="i.loclTRK" horiz-adv-x="255" 
d="M32 19v482q0 19 19 19h150q19 0 19 -19v-482q0 -19 -19 -19h-150q-19 0 -19 19zM65.5 585q-21.5 22 -21.5 57q0 36 21.5 57.5t56.5 21.5t56 -21.5t21 -57.5q0 -35 -21 -57t-56 -22t-56.5 22z" />
    <glyph glyph-name="a.alt" horiz-adv-x="564" 
d="M362 520h150q19 0 19 -19v-482q0 -19 -19 -19h-150q-19 0 -19 19v21q0 5 -3 6t-6 -4q-39 -50 -113 -50q-67 0 -120.5 42.5t-75.5 115.5q-15 50 -15 112q0 72 22 128q24 61 75 99.5t122 38.5t105 -42q4 -4 6.5 -2.5t2.5 6.5v11q0 19 19 19zM343 259q0 48 -16 77
q-18 31 -52 31q-36 0 -53 -33q-15 -28 -15 -75q0 -44 15 -73q18 -33 53 -33t53 34q15 29 15 72z" />
    <glyph glyph-name="a.sc" horiz-adv-x="605" 
d="M402 16l-11 43q-2 7 -9 7h-159q-7 0 -9 -7l-11 -43q-4 -16 -21 -16h-148q-10 0 -14.5 6t-1.5 16l174 540q4 16 21 16h179q17 0 21 -16l174 -540q1 -3 1 -7q0 -15 -17 -15h-148q-17 0 -21 16zM256 217q0 -7 7 -7h79q9 0 7 9l-41 158q-1 5 -4.5 5t-5.5 -5l-42 -158v-2z" />
    <glyph glyph-name="aacute.sc" horiz-adv-x="605" 
d="M402 16l-11 43q-2 7 -9 7h-159q-7 0 -9 -7l-11 -43q-4 -16 -21 -16h-148q-10 0 -14.5 6t-1.5 16l174 540q4 16 21 16h179q17 0 21 -16l174 -540q1 -3 1 -7q0 -15 -17 -15h-148q-17 0 -21 16zM256 217q0 -7 7 -7h79q9 0 7 9l-41 158q-1 5 -4.5 5t-5.5 -5l-42 -158v-2z
M225.5 632.5q-4.5 3.5 -4.5 8.5t3 11l45 84q7 14 22 14h142q16 0 16 -12q0 -6 -4 -11l-65 -86q-9 -12 -23 -12h-119q-8 0 -12.5 3.5z" />
    <glyph glyph-name="abreve.sc" horiz-adv-x="605" 
d="M402 16l-11 43q-2 7 -9 7h-159q-7 0 -9 -7l-11 -43q-4 -16 -21 -16h-148q-10 0 -14.5 6t-1.5 16l174 540q4 16 21 16h179q17 0 21 -16l174 -540q1 -3 1 -7q0 -15 -17 -15h-148q-17 0 -21 16zM256 217q0 -7 7 -7h79q9 0 7 9l-41 158q-1 5 -4.5 5t-5.5 -5l-42 -158v-2z
M211.5 631.5q-37.5 30.5 -44.5 77.5v4q0 7 5 11.5t13 4.5h57q15 0 21 -17q4 -14 14 -22.5t24 -8.5t24 8.5t14 22.5q6 17 21 17h57q9 0 14.5 -5t4.5 -14q-8 -47 -46 -78t-89 -31q-52 0 -89.5 30.5z" />
    <glyph glyph-name="uni01CE.sc" horiz-adv-x="605" 
d="M402 16l-11 43q-2 7 -9 7h-159q-7 0 -9 -7l-11 -43q-4 -16 -21 -16h-148q-10 0 -14.5 6t-1.5 16l174 540q4 16 21 16h179q17 0 21 -16l174 -540q1 -3 1 -7q0 -15 -17 -15h-148q-17 0 -21 16zM256 217q0 -7 7 -7h79q9 0 7 9l-41 158q-1 5 -4.5 5t-5.5 -5l-42 -158v-2z
M194 636l-57 93q-4 8 -4 11q0 5 5 8.5t12 3.5h101q15 0 22 -13l22 -39q2 -4 6 -4t6 4l22 39q7 13 22 13h100q7 0 11.5 -3.5t4.5 -8.5q0 -6 -4 -11l-59 -93q-8 -13 -23 -13h-164q-16 0 -23 13z" />
    <glyph glyph-name="acircumflex.sc" horiz-adv-x="605" 
d="M402 16l-11 43q-2 7 -9 7h-159q-7 0 -9 -7l-11 -43q-4 -16 -21 -16h-148q-10 0 -14.5 6t-1.5 16l174 540q4 16 21 16h179q17 0 21 -16l174 -540q1 -3 1 -7q0 -15 -17 -15h-148q-17 0 -21 16zM256 217q0 -7 7 -7h79q9 0 7 9l-41 158q-1 5 -4.5 5t-5.5 -5l-42 -158v-2z
M135.5 632.5q-4.5 3.5 -4.5 8.5q0 6 4 11l67 94q8 12 23 12h149q16 0 24 -12l68 -94q4 -5 4 -11q0 -5 -4.5 -8.5t-11.5 -3.5h-103q-15 0 -22 13l-22 39q-2 4 -6 4t-6 -4l-22 -39q-7 -13 -22 -13h-104q-7 0 -11.5 3.5z" />
    <glyph glyph-name="adieresis.sc" horiz-adv-x="605" 
d="M402 16l-11 43q-2 7 -9 7h-159q-7 0 -9 -7l-11 -43q-4 -16 -21 -16h-148q-10 0 -14.5 6t-1.5 16l174 540q4 16 21 16h179q17 0 21 -16l174 -540q1 -3 1 -7q0 -15 -17 -15h-148q-17 0 -21 16zM256 217q0 -7 7 -7h79q9 0 7 9l-41 158q-1 5 -4.5 5t-5.5 -5l-42 -158v-2z
M135.5 633q-24.5 24 -24.5 63t24.5 63t62.5 24t61.5 -24t23.5 -63t-23.5 -63t-61.5 -24t-62.5 24zM342.5 633q-23.5 24 -23.5 63t23.5 63t62.5 24t62.5 -24t23.5 -63t-23.5 -63t-62.5 -24t-62.5 24z" />
    <glyph glyph-name="agrave.sc" horiz-adv-x="605" 
d="M402 16l-11 43q-2 7 -9 7h-159q-7 0 -9 -7l-11 -43q-4 -16 -21 -16h-148q-10 0 -14.5 6t-1.5 16l174 540q4 16 21 16h179q17 0 21 -16l174 -540q1 -3 1 -7q0 -15 -17 -15h-148q-17 0 -21 16zM256 217q0 -7 7 -7h79q9 0 7 9l-41 158q-1 5 -4.5 5t-5.5 -5l-42 -158v-2z
M379 641q0 -5 -4.5 -8.5t-12.5 -3.5h-119q-14 0 -23 12l-65 86q-4 5 -4 11q0 12 16 12h142q15 0 22 -14l45 -84q3 -6 3 -11z" />
    <glyph glyph-name="amacron.sc" horiz-adv-x="605" 
d="M402 16l-11 43q-2 7 -9 7h-159q-7 0 -9 -7l-11 -43q-4 -16 -21 -16h-148q-10 0 -14.5 6t-1.5 16l174 540q4 16 21 16h179q17 0 21 -16l174 -540q1 -3 1 -7q0 -15 -17 -15h-148q-17 0 -21 16zM256 217q0 -7 7 -7h79q9 0 7 9l-41 158q-1 5 -4.5 5t-5.5 -5l-42 -158v-2z
M146 644v87q0 19 19 19h273q19 0 19 -19v-87q0 -19 -19 -19h-273q-19 0 -19 19z" />
    <glyph glyph-name="aogonek.sc" horiz-adv-x="605" 
d="M402 16l-11 43q-2 7 -9 7h-159q-7 0 -9 -7l-11 -43q-4 -16 -21 -16h-148q-10 0 -14.5 6t-1.5 16l174 540q4 16 21 16h179q17 0 21 -16l174 -540q1 -3 1 -7q0 -15 -17 -15h-148q-17 0 -21 16zM256 217q0 -7 7 -7h79q9 0 7 9l-41 158q-1 5 -4.5 5t-5.5 -5l-42 -158v-2z
M589 -166q0 -14 -12 -19q-33 -13 -71 -13q-36 0 -63 15.5t-37 51.5q-4 12 -4 26q0 51 53 96q9 9 23 9h75q15 0 15 -8q0 -7 -9 -14q-36 -29 -36 -50q0 -10 7 -16t18 -6q7 0 11 1q8 2 11 2q11 0 12 -13l7 -58v-4z" />
    <glyph glyph-name="aring.sc" horiz-adv-x="605" 
d="M402 16l-11 43q-2 7 -9 7h-159q-7 0 -9 -7l-11 -43q-4 -16 -21 -16h-148q-10 0 -14.5 6t-1.5 16l174 540q4 16 21 16h179q17 0 21 -16l174 -540q1 -3 1 -7q0 -15 -17 -15h-148q-17 0 -21 16zM256 217q0 -7 7 -7h79q9 0 7 9l-41 158q-1 5 -4.5 5t-5.5 -5l-42 -158v-2z
M217.5 646q-33.5 34 -33.5 83t34 82.5t83 33.5t83 -33.5t34 -82.5t-34 -83t-83 -34q-50 0 -83.5 34zM326.5 703.5q10.5 10.5 10.5 25.5q0 16 -10.5 26.5t-25.5 10.5t-25.5 -10.5t-10.5 -26.5q0 -15 10.5 -25.5t25.5 -10.5t25.5 10.5z" />
    <glyph glyph-name="atilde.sc" horiz-adv-x="605" 
d="M402 16l-11 43q-2 7 -9 7h-159q-7 0 -9 -7l-11 -43q-4 -16 -21 -16h-148q-10 0 -14.5 6t-1.5 16l174 540q4 16 21 16h179q17 0 21 -16l174 -540q1 -3 1 -7q0 -15 -17 -15h-148q-17 0 -21 16zM256 217q0 -7 7 -7h79q9 0 7 9l-41 158q-1 5 -4.5 5t-5.5 -5l-42 -158v-2z
M335.5 626.5q-15.5 6.5 -33.5 18.5q-22 14 -36 14q-18 0 -30 -13q-8 -10 -15 -10q-6 0 -11 4l-49 35q-10 7 -10 17q0 3 2 9q14 37 41 57t59 20q18 0 32.5 -6t35.5 -18q26 -15 46 -15q16 0 27 12q8 10 16 10q5 0 10 -4l50 -35q8 -6 8 -16q0 -7 -6 -18q-19 -34 -46 -51
t-55 -17q-20 0 -35.5 6.5z" />
    <glyph glyph-name="ae.sc" horiz-adv-x="858" 
d="M826 417h-241q-8 0 -8 -8v-27q0 -8 8 -8h142q19 0 19 -19v-122q0 -19 -19 -19h-142q-8 0 -8 -8v-37q0 -8 8 -8h241q19 0 19 -19v-123q0 -19 -19 -19h-419q-19 0 -19 19v39q0 8 -8 8h-124q-7 0 -10 -6l-21 -46q-6 -14 -23 -14h-166q-16 0 -16 13q0 6 2 9l271 542
q8 14 22 14h511q19 0 19 -19v-123q0 -19 -19 -19zM320 215q0 -5 7 -5h53q8 0 8 8v119q0 6 -3.5 6.5t-5.5 -4.5l-58 -120z" />
    <glyph glyph-name="b.sc" horiz-adv-x="527" 
d="M442 297q0 -3 4 -5q62 -39 62 -124q0 -89 -64 -128.5t-169 -39.5h-235q-19 0 -19 19v540q0 19 19 19h227q117 0 174 -37t57 -131q0 -73 -52 -108q-4 -2 -4 -5zM209 409v-36q0 -8 8 -8h65q14 0 23 7.5t9 19.5q0 11 -9 18t-23 7h-65q-8 0 -8 -8zM312 168.5q8 7.5 8 20.5
q0 11 -7.5 17.5t-20.5 6.5h-75q-8 0 -8 -8v-36q0 -8 8 -8h73q14 0 22 7.5z" />
    <glyph glyph-name="c.sc" horiz-adv-x="521" 
d="M133 23.5q-56 30.5 -86.5 85.5t-30.5 127v108q0 72 30.5 126.5t86.5 84.5t129 30t128.5 -28t86 -79.5t30.5 -118.5q0 -8 -18 -10l-150 -10h-5q-15 0 -15 5v5q0 34 -15.5 54.5t-41.5 20.5t-42 -20.5t-16 -54.5v-121q0 -33 16 -53.5t42 -20.5q25 0 41 20.5t16 53.5
q0 5 5.5 8t14.5 2l150 -8q18 -1 18 -5v-4q0 -68 -30.5 -119.5t-86 -80t-128.5 -28.5t-129 30.5z" />
    <glyph glyph-name="cacute.sc" horiz-adv-x="521" 
d="M133 23.5q-56 30.5 -86.5 85.5t-30.5 127v108q0 72 30.5 126.5t86.5 84.5t129 30t128.5 -28t86 -79.5t30.5 -118.5q0 -8 -18 -10l-150 -10h-5q-15 0 -15 5v5q0 34 -15.5 54.5t-41.5 20.5t-42 -20.5t-16 -54.5v-121q0 -33 16 -53.5t42 -20.5q25 0 41 20.5t16 53.5
q0 5 5.5 8t14.5 2l150 -8q18 -1 18 -5v-4q0 -68 -30.5 -119.5t-86 -80t-128.5 -28.5t-129 30.5zM186.5 639.5q-4.5 3.5 -4.5 8.5t3 11l45 84q7 14 22 14h142q16 0 16 -12q0 -6 -4 -11l-65 -86q-9 -12 -23 -12h-119q-8 0 -12.5 3.5z" />
    <glyph glyph-name="ccaron.sc" horiz-adv-x="521" 
d="M133 23.5q-56 30.5 -86.5 85.5t-30.5 127v108q0 72 30.5 126.5t86.5 84.5t129 30t128.5 -28t86 -79.5t30.5 -118.5q0 -8 -18 -10l-150 -10h-5q-15 0 -15 5v5q0 34 -15.5 54.5t-41.5 20.5t-42 -20.5t-16 -54.5v-121q0 -33 16 -53.5t42 -20.5q25 0 41 20.5t16 53.5
q0 5 5.5 8t14.5 2l150 -8q18 -1 18 -5v-4q0 -68 -30.5 -119.5t-86 -80t-128.5 -28.5t-129 30.5zM155 643l-57 93q-4 8 -4 11q0 5 5 8.5t12 3.5h101q15 0 22 -13l22 -39q2 -4 6 -4t6 4l22 39q7 13 22 13h100q7 0 11.5 -3.5t4.5 -8.5q0 -6 -4 -11l-59 -93q-8 -13 -23 -13h-164
q-16 0 -23 13z" />
    <glyph glyph-name="ccedilla.sc" horiz-adv-x="521" 
d="M489 349l-150 -10h-5q-15 0 -15 5v5q0 34 -15.5 54.5t-41.5 20.5t-42 -20.5t-16 -54.5v-121q0 -33 16 -53.5t42 -20.5q25 0 41 20.5t16 53.5q0 5 5.5 8t14.5 2l150 -8q18 -1 18 -5v-4q0 -86 -48.5 -145.5t-132.5 -76.5q-4 -1 -5 -3.5t2 -6.5q37 -38 37 -81q0 -8 -4 -26
q-10 -36 -37 -51.5t-63 -15.5q-38 0 -71 13q-14 5 -12 23l7 58q1 13 12 13q3 0 11 -2q4 -1 11 -1q11 0 18 5.5t7 16.5q0 22 -47 58q-4 3 -9 4q-78 22 -122.5 83.5t-44.5 149.5v108q0 72 30.5 126.5t86.5 84.5t129 30t128.5 -28t86 -79.5t30.5 -118.5v-4q0 -4 -18 -6z" />
    <glyph glyph-name="cdotaccent.sc" horiz-adv-x="521" 
d="M133 23.5q-56 30.5 -86.5 85.5t-30.5 127v108q0 72 30.5 126.5t86.5 84.5t129 30t128.5 -28t86 -79.5t30.5 -118.5q0 -8 -18 -10l-150 -10h-5q-15 0 -15 5v5q0 34 -15.5 54.5t-41.5 20.5t-42 -20.5t-16 -54.5v-121q0 -33 16 -53.5t42 -20.5q25 0 41 20.5t16 53.5
q0 5 5.5 8t14.5 2l150 -8q18 -1 18 -5v-4q0 -68 -30.5 -119.5t-86 -80t-128.5 -28.5t-129 30.5zM205.5 638q-21.5 22 -21.5 57q0 36 21.5 57.5t56.5 21.5t56 -21.5t21 -57.5q0 -35 -21 -57t-56 -22t-56.5 22z" />
    <glyph glyph-name="d.sc" horiz-adv-x="529" 
d="M21 19v540q0 19 19 19h220q73 0 129 -24.5t87.5 -69t31.5 -101.5v-188q0 -57 -31.5 -101.5t-87.5 -69t-129 -24.5h-220q-19 0 -19 19zM217 161h50q21 0 36.5 18.5t16.5 47.5v124q0 29 -15.5 47.5t-38.5 18.5h-49q-8 0 -8 -8v-240q0 -8 8 -8z" />
    <glyph glyph-name="eth.sc" horiz-adv-x="560" 
d="M420 553.5q56 -24.5 87.5 -69t31.5 -101.5v-188q0 -57 -31.5 -101.5t-87.5 -69t-129 -24.5h-220q-19 0 -19 19v206q0 8 -6 8h-6q-19 0 -19 19v85q0 19 16 19h7q8 0 8 8v195q0 19 19 19h220q73 0 129 -24.5zM351 351q0 29 -15.5 47.5t-38.5 18.5h-49q-8 0 -8 -8v-45
q0 -8 8 -8h20q19 0 19 -19v-85q0 -19 -19 -19h-20q-8 0 -8 -8v-56q0 -8 8 -8h50q21 0 36.5 18.5t16.5 47.5v124z" />
    <glyph glyph-name="dcaron.sc" horiz-adv-x="529" 
d="M21 19v540q0 19 19 19h220q73 0 129 -24.5t87.5 -69t31.5 -101.5v-188q0 -57 -31.5 -101.5t-87.5 -69t-129 -24.5h-220q-19 0 -19 19zM217 161h50q21 0 36.5 18.5t16.5 47.5v124q0 29 -15.5 47.5t-38.5 18.5h-49q-8 0 -8 -8v-240q0 -8 8 -8zM140 640l-57 93q-4 8 -4 11
q0 5 5 8.5t12 3.5h101q15 0 22 -13l22 -39q2 -4 6 -4t6 4l22 39q7 13 22 13h100q7 0 11.5 -3.5t4.5 -8.5q0 -6 -4 -11l-59 -93q-8 -13 -23 -13h-164q-16 0 -23 13z" />
    <glyph glyph-name="dcroat.sc" horiz-adv-x="560" 
d="M420 553.5q56 -24.5 87.5 -69t31.5 -101.5v-188q0 -57 -31.5 -101.5t-87.5 -69t-129 -24.5h-220q-19 0 -19 19v206q0 8 -6 8h-6q-19 0 -19 19v85q0 19 16 19h7q8 0 8 8v195q0 19 19 19h220q73 0 129 -24.5zM351 351q0 29 -15.5 47.5t-38.5 18.5h-49q-8 0 -8 -8v-45
q0 -8 8 -8h20q19 0 19 -19v-85q0 -19 -19 -19h-20q-8 0 -8 -8v-56q0 -8 8 -8h50q21 0 36.5 18.5t16.5 47.5v124z" />
    <glyph glyph-name="e.sc" horiz-adv-x="480" 
d="M448 417h-231q-8 0 -8 -8v-27q0 -8 8 -8h133q19 0 19 -19v-122q0 -19 -19 -19h-133q-8 0 -8 -8v-37q0 -8 8 -8h231q19 0 19 -19v-123q0 -19 -19 -19h-408q-19 0 -19 19v540q0 19 19 19h408q19 0 19 -19v-123q0 -19 -19 -19z" />
    <glyph glyph-name="eacute.sc" horiz-adv-x="480" 
d="M448 417h-231q-8 0 -8 -8v-27q0 -8 8 -8h133q19 0 19 -19v-122q0 -19 -19 -19h-133q-8 0 -8 -8v-37q0 -8 8 -8h231q19 0 19 -19v-123q0 -19 -19 -19h-408q-19 0 -19 19v540q0 19 19 19h408q19 0 19 -19v-123q0 -19 -19 -19zM183.5 644.5q-4.5 3.5 -4.5 8.5t3 11l45 84
q7 14 22 14h142q16 0 16 -12q0 -6 -4 -11l-65 -86q-9 -12 -23 -12h-119q-8 0 -12.5 3.5z" />
    <glyph glyph-name="ecaron.sc" horiz-adv-x="480" 
d="M448 417h-231q-8 0 -8 -8v-27q0 -8 8 -8h133q19 0 19 -19v-122q0 -19 -19 -19h-133q-8 0 -8 -8v-37q0 -8 8 -8h231q19 0 19 -19v-123q0 -19 -19 -19h-408q-19 0 -19 19v540q0 19 19 19h408q19 0 19 -19v-123q0 -19 -19 -19zM152 648l-57 93q-4 8 -4 11q0 5 5 8.5t12 3.5
h101q15 0 22 -13l22 -39q2 -4 6 -4t6 4l22 39q7 13 22 13h100q7 0 11.5 -3.5t4.5 -8.5q0 -6 -4 -11l-59 -93q-8 -13 -23 -13h-164q-16 0 -23 13z" />
    <glyph glyph-name="uni0229.sc" horiz-adv-x="480" 
d="M448 417h-231q-8 0 -8 -8v-27q0 -8 8 -8h133q19 0 19 -19v-122q0 -19 -19 -19h-133q-8 0 -8 -8v-37q0 -8 8 -8h231q19 0 19 -19v-123q0 -19 -19 -19h-120q-11 0 -4 -10q32 -37 32 -74q0 -15 -4 -27q-10 -36 -37 -51.5t-63 -15.5q-38 0 -71 13q-14 5 -12 23l7 58
q1 13 12 13q3 0 11 -2q4 -1 11 -1q11 0 18 5.5t7 16.5q0 20 -34 48q-5 4 -11 4h-150q-19 0 -19 19v540q0 19 19 19h408q19 0 19 -19v-123q0 -19 -19 -19z" />
    <glyph glyph-name="ecircumflex.sc" horiz-adv-x="480" 
d="M448 417h-231q-8 0 -8 -8v-27q0 -8 8 -8h133q19 0 19 -19v-122q0 -19 -19 -19h-133q-8 0 -8 -8v-37q0 -8 8 -8h231q19 0 19 -19v-123q0 -19 -19 -19h-408q-19 0 -19 19v540q0 19 19 19h408q19 0 19 -19v-123q0 -19 -19 -19zM93.5 644.5q-4.5 3.5 -4.5 8.5q0 6 4 11l67 94
q8 12 23 12h149q16 0 24 -12l68 -94q4 -5 4 -11q0 -5 -4.5 -8.5t-11.5 -3.5h-103q-15 0 -22 13l-22 39q-2 4 -6 4t-6 -4l-22 -39q-7 -13 -22 -13h-104q-7 0 -11.5 3.5z" />
    <glyph glyph-name="edieresis.sc" horiz-adv-x="480" 
d="M448 417h-231q-8 0 -8 -8v-27q0 -8 8 -8h133q19 0 19 -19v-122q0 -19 -19 -19h-133q-8 0 -8 -8v-37q0 -8 8 -8h231q19 0 19 -19v-123q0 -19 -19 -19h-408q-19 0 -19 19v540q0 19 19 19h408q19 0 19 -19v-123q0 -19 -19 -19zM93.5 645q-24.5 24 -24.5 63t24.5 63t62.5 24
t61.5 -24t23.5 -63t-23.5 -63t-61.5 -24t-62.5 24zM300.5 645q-23.5 24 -23.5 63t23.5 63t62.5 24t62.5 -24t23.5 -63t-23.5 -63t-62.5 -24t-62.5 24z" />
    <glyph glyph-name="edotaccent.sc" horiz-adv-x="480" 
d="M448 417h-231q-8 0 -8 -8v-27q0 -8 8 -8h133q19 0 19 -19v-122q0 -19 -19 -19h-133q-8 0 -8 -8v-37q0 -8 8 -8h231q19 0 19 -19v-123q0 -19 -19 -19h-408q-19 0 -19 19v540q0 19 19 19h408q19 0 19 -19v-123q0 -19 -19 -19zM202.5 643q-21.5 22 -21.5 57q0 36 21.5 57.5
t56.5 21.5t56 -21.5t21 -57.5q0 -35 -21 -57t-56 -22t-56.5 22z" />
    <glyph glyph-name="egrave.sc" horiz-adv-x="480" 
d="M448 417h-231q-8 0 -8 -8v-27q0 -8 8 -8h133q19 0 19 -19v-122q0 -19 -19 -19h-133q-8 0 -8 -8v-37q0 -8 8 -8h231q19 0 19 -19v-123q0 -19 -19 -19h-408q-19 0 -19 19v540q0 19 19 19h408q19 0 19 -19v-123q0 -19 -19 -19zM337 653q0 -5 -4.5 -8.5t-12.5 -3.5h-119
q-14 0 -23 12l-65 86q-4 5 -4 11q0 12 16 12h142q15 0 22 -14l45 -84q3 -6 3 -11z" />
    <glyph glyph-name="emacron.sc" horiz-adv-x="480" 
d="M448 417h-231q-8 0 -8 -8v-27q0 -8 8 -8h133q19 0 19 -19v-122q0 -19 -19 -19h-133q-8 0 -8 -8v-37q0 -8 8 -8h231q19 0 19 -19v-123q0 -19 -19 -19h-408q-19 0 -19 19v540q0 19 19 19h408q19 0 19 -19v-123q0 -19 -19 -19zM104 656v87q0 19 19 19h273q19 0 19 -19v-87
q0 -19 -19 -19h-273q-19 0 -19 19z" />
    <glyph glyph-name="eogonek.sc" horiz-adv-x="480" 
d="M448 417h-231q-8 0 -8 -8v-27q0 -8 8 -8h133q19 0 19 -19v-122q0 -19 -19 -19h-133q-8 0 -8 -8v-37q0 -8 8 -8h231q19 0 19 -19v-123q0 -19 -19 -19h-146q-6 0 -11 -4q-44 -36 -35 -57q2 -7 8.5 -11t15.5 -4q7 0 11 1q8 2 11 2q11 0 12 -13l7 -58v-4q0 -14 -12 -19
q-33 -13 -71 -13q-36 0 -63 15.5t-37 51.5q-4 18 -4 26q0 38 34 77q7 10 -4 10h-124q-19 0 -19 19v540q0 19 19 19h408q19 0 19 -19v-123q0 -19 -19 -19z" />
    <glyph glyph-name="f.sc" horiz-adv-x="470" 
d="M447 417h-230q-8 0 -8 -8v-27q0 -8 8 -8h133q19 0 19 -19v-122q0 -19 -19 -19h-133q-8 0 -8 -8v-187q0 -19 -19 -19h-150q-19 0 -19 19v540q0 19 19 19h407q19 0 19 -19v-123q0 -19 -19 -19z" />
    <glyph glyph-name="g.sc" horiz-adv-x="520" 
d="M501 354q-5 -2 -14 -2h-149q-19 0 -19 4v4q0 29 -15.5 46.5t-41.5 17.5q-27 0 -42.5 -21t-15.5 -63v-112q0 -35 15.5 -54.5t42.5 -19.5q22 0 36.5 12.5t18.5 36.5v2q0 7 -8 7h-26q-19 0 -19 19v70q0 19 19 19h204q19 0 19 -19v-68q0 -73 -30.5 -127t-85.5 -83.5
t-128 -29.5q-74 0 -129.5 29.5t-86 83.5t-30.5 127v113q0 73 30.5 127t86 83t129.5 29q72 0 127.5 -28.5t86 -79t30.5 -114.5v-5q0 -2 -5 -4z" />
    <glyph glyph-name="gbreve.sc" horiz-adv-x="520" 
d="M501 354q-5 -2 -14 -2h-149q-19 0 -19 4v4q0 29 -15.5 46.5t-41.5 17.5q-27 0 -42.5 -21t-15.5 -63v-112q0 -35 15.5 -54.5t42.5 -19.5q22 0 36.5 12.5t18.5 36.5v2q0 7 -8 7h-26q-19 0 -19 19v70q0 19 19 19h204q19 0 19 -19v-68q0 -73 -30.5 -127t-85.5 -83.5
t-128 -29.5q-74 0 -129.5 29.5t-86 83.5t-30.5 127v113q0 73 30.5 127t86 83t129.5 29q72 0 127.5 -28.5t86 -79t30.5 -114.5v-5q0 -2 -5 -4zM172.5 638.5q-37.5 30.5 -44.5 77.5v4q0 7 5 11.5t13 4.5h57q15 0 21 -17q4 -14 14 -22.5t24 -8.5t24 8.5t14 22.5q6 17 21 17h57
q9 0 14.5 -5t4.5 -14q-8 -47 -46 -78t-89 -31q-52 0 -89.5 30.5z" />
    <glyph glyph-name="uni0123.sc" horiz-adv-x="520" 
d="M501 354q-5 -2 -14 -2h-149q-19 0 -19 4v4q0 29 -15.5 46.5t-41.5 17.5q-27 0 -42.5 -21t-15.5 -63v-112q0 -35 15.5 -54.5t42.5 -19.5q22 0 36.5 12.5t18.5 36.5v2q0 7 -8 7h-26q-19 0 -19 19v70q0 19 19 19h204q19 0 19 -19v-68q0 -73 -30.5 -127t-85.5 -83.5
t-128 -29.5q-74 0 -129.5 29.5t-86 83.5t-30.5 127v113q0 73 30.5 127t86 83t129.5 29q72 0 127.5 -28.5t86 -79t30.5 -114.5v-5q0 -2 -5 -4zM136.5 -174.5q-4.5 3.5 -4.5 8.5t3 11l45 84q7 14 22 14h142q16 0 16 -12q0 -6 -4 -11l-65 -86q-9 -12 -23 -12h-119
q-8 0 -12.5 3.5z" />
    <glyph glyph-name="gdotaccent.sc" horiz-adv-x="520" 
d="M501 354q-5 -2 -14 -2h-149q-19 0 -19 4v4q0 29 -15.5 46.5t-41.5 17.5q-27 0 -42.5 -21t-15.5 -63v-112q0 -35 15.5 -54.5t42.5 -19.5q22 0 36.5 12.5t18.5 36.5v2q0 7 -8 7h-26q-19 0 -19 19v70q0 19 19 19h204q19 0 19 -19v-68q0 -73 -30.5 -127t-85.5 -83.5
t-128 -29.5q-74 0 -129.5 29.5t-86 83.5t-30.5 127v113q0 73 30.5 127t86 83t129.5 29q72 0 127.5 -28.5t86 -79t30.5 -114.5v-5q0 -2 -5 -4zM205.5 638q-21.5 22 -21.5 57q0 36 21.5 57.5t56.5 21.5t56 -21.5t21 -57.5q0 -35 -21 -57t-56 -22t-56.5 22z" />
    <glyph glyph-name="h.sc" horiz-adv-x="513" 
d="M333 578h150q19 0 19 -19v-540q0 -19 -19 -19h-150q-19 0 -19 19v186q0 8 -8 8h-89q-8 0 -8 -8v-186q0 -19 -19 -19h-150q-19 0 -19 19v540q0 19 19 19h150q19 0 19 -19v-177q0 -8 8 -8h89q8 0 8 8v177q0 19 19 19z" />
    <glyph glyph-name="hbar.sc" horiz-adv-x="513" 
d="M589 524v-87q0 -19 -19 -19h-60q-8 0 -8 -8v-391q0 -19 -19 -19h-150q-19 0 -19 19v186q0 8 -8 8h-89q-8 0 -8 -8v-186q0 -19 -19 -19h-150q-19 0 -19 19v391q0 8 -8 8h-59q-19 0 -19 19v87q0 19 19 19h59q8 0 8 8v8q0 19 19 19h150q19 0 19 -17v-10q0 -8 8 -8h89
q8 0 8 8v8q0 19 19 19h150q19 0 19 -17v-10q0 -8 8 -8h60q19 0 19 -19zM314 382v28q0 8 -8 8h-89q-8 0 -8 -8v-28q0 -8 8 -8h89q8 0 8 8z" />
    <glyph glyph-name="i.sc" horiz-adv-x="230" 
d="M21 19v540q0 19 19 19h150q19 0 19 -19v-540q0 -19 -19 -19h-150q-19 0 -19 19z" />
    <glyph glyph-name="iacute.sc" horiz-adv-x="230" 
d="M21 19v540q0 19 19 19h150q19 0 19 -19v-540q0 -19 -19 -19h-150q-19 0 -19 19zM39.5 644.5q-4.5 3.5 -4.5 8.5t3 11l45 84q7 14 22 14h142q16 0 16 -12q0 -6 -4 -11l-65 -86q-9 -12 -23 -12h-119q-8 0 -12.5 3.5z" />
    <glyph glyph-name="icircumflex.sc" horiz-adv-x="230" 
d="M21 19v540q0 19 19 19h150q19 0 19 -19v-540q0 -19 -19 -19h-150q-19 0 -19 19zM-50.5 644.5q-4.5 3.5 -4.5 8.5q0 6 4 11l67 94q8 12 23 12h149q16 0 24 -12l68 -94q4 -5 4 -11q0 -5 -4.5 -8.5t-11.5 -3.5h-103q-15 0 -22 13l-22 39q-2 4 -6 4t-6 -4l-22 -39
q-7 -13 -22 -13h-104q-7 0 -11.5 3.5z" />
    <glyph glyph-name="idieresis.sc" horiz-adv-x="230" 
d="M21 19v540q0 19 19 19h150q19 0 19 -19v-540q0 -19 -19 -19h-150q-19 0 -19 19zM-50.5 645q-24.5 24 -24.5 63t24.5 63t62.5 24t61.5 -24t23.5 -63t-23.5 -63t-61.5 -24t-62.5 24zM156.5 645q-23.5 24 -23.5 63t23.5 63t62.5 24t62.5 -24t23.5 -63t-23.5 -63t-62.5 -24
t-62.5 24z" />
    <glyph glyph-name="i.sc.loclTRK" horiz-adv-x="230" 
d="M21 19v540q0 19 19 19h150q19 0 19 -19v-540q0 -19 -19 -19h-150q-19 0 -19 19zM58.5 643q-21.5 22 -21.5 57q0 36 21.5 57.5t56.5 21.5t56 -21.5t21 -57.5q0 -35 -21 -57t-56 -22t-56.5 22z" />
    <glyph glyph-name="igrave.sc" horiz-adv-x="230" 
d="M21 19v540q0 19 19 19h150q19 0 19 -19v-540q0 -19 -19 -19h-150q-19 0 -19 19zM193 653q0 -5 -4.5 -8.5t-12.5 -3.5h-119q-14 0 -23 12l-65 86q-4 5 -4 11q0 12 16 12h142q15 0 22 -14l45 -84q3 -6 3 -11z" />
    <glyph glyph-name="ij.sc" horiz-adv-x="745" 
d="M21 19v540q0 19 19 19h150q19 0 19 -19v-540q0 -19 -19 -19h-150q-19 0 -19 19zM352 24q-55 31 -85.5 87t-30.5 129v8q0 19 19 19h150q19 0 19 -13v-13q0 -39 15 -63t40 -24q26 0 42 24t16 63v318q0 19 19 19h149q19 0 19 -19v-319q0 -73 -30.5 -129t-86.5 -87t-128 -31
t-127 31z" />
    <glyph glyph-name="imacron.sc" horiz-adv-x="230" 
d="M21 19v540q0 19 19 19h150q19 0 19 -19v-540q0 -19 -19 -19h-150q-19 0 -19 19zM-40 656v87q0 19 19 19h273q19 0 19 -19v-87q0 -19 -19 -19h-273q-19 0 -19 19z" />
    <glyph glyph-name="iogonek.sc" horiz-adv-x="236" 
d="M21 19v540q0 19 19 19h150q19 0 19 -19v-540q0 -19 -19 -19h-150q-19 0 -19 19zM207 -166q0 -14 -12 -19q-33 -13 -71 -13q-36 0 -63 15.5t-37 51.5q-4 12 -4 26q0 51 53 96q9 9 23 9h75q15 0 15 -8q0 -7 -9 -14q-36 -29 -36 -50q0 -10 7 -16t18 -6q7 0 11 1q8 2 11 2
q11 0 12 -13l7 -58v-4z" />
    <glyph glyph-name="j.sc" horiz-adv-x="515" 
d="M122 24q-55 31 -85.5 87t-30.5 129v8q0 19 19 19h150q19 0 19 -13v-13q0 -39 15 -63t40 -24q26 0 42 24t16 63v318q0 19 19 19h149q19 0 19 -19v-319q0 -73 -30.5 -129t-86.5 -87t-128 -31t-127 31z" />
    <glyph glyph-name="k.sc" horiz-adv-x="550" 
d="M21 19v540q0 19 19 19h150q19 0 19 -19v-168q0 -5 3.5 -6t6.5 3l111 177q8 13 23 13h163q7 0 11.5 -3.5t4.5 -8.5q0 -6 -4 -11l-157 -227q-4 -6 -1 -11l163 -294q3 -6 3 -11q0 -12 -16 -12h-165q-15 0 -22 14l-89 171q-2 5 -5.5 5t-5.5 -5l-22 -42q-2 -4 -2 -10v-114
q0 -19 -19 -19h-150q-19 0 -19 19z" />
    <glyph glyph-name="uni0137.sc" horiz-adv-x="550" 
d="M21 19v540q0 19 19 19h150q19 0 19 -19v-168q0 -5 3.5 -6t6.5 3l111 177q8 13 23 13h163q7 0 11.5 -3.5t4.5 -8.5q0 -6 -4 -11l-157 -227q-4 -6 -1 -11l163 -294q3 -6 3 -11q0 -12 -16 -12h-165q-15 0 -22 14l-89 171q-2 5 -5.5 5t-5.5 -5l-22 -42q-2 -4 -2 -10v-114
q0 -19 -19 -19h-150q-19 0 -19 19zM133.5 -167.5q-4.5 3.5 -4.5 8.5t3 11l45 84q7 14 22 14h142q16 0 16 -12q0 -6 -4 -11l-65 -86q-9 -12 -23 -12h-119q-8 0 -12.5 3.5z" />
    <glyph glyph-name="l.sc" horiz-adv-x="492" 
d="M21 19v540q0 19 19 19h150q19 0 19 -19v-390q0 -8 8 -8h245q19 0 19 -19v-123q0 -19 -19 -19h-422q-19 0 -19 19z" />
    <glyph glyph-name="lacute.sc" horiz-adv-x="492" 
d="M21 19v540q0 19 19 19h150q19 0 19 -19v-390q0 -8 8 -8h245q19 0 19 -19v-123q0 -19 -19 -19h-422q-19 0 -19 19zM38.5 632.5q-4.5 3.5 -4.5 8.5t3 11l45 84q7 14 22 14h142q16 0 16 -12q0 -6 -4 -11l-65 -86q-9 -12 -23 -12h-119q-8 0 -12.5 3.5z" />
    <glyph glyph-name="lcaron.sc" horiz-adv-x="492" 
d="M21 19v540q0 19 19 19h150q19 0 19 -19v-390q0 -8 8 -8h245q19 0 19 -19v-123q0 -19 -19 -19h-422q-19 0 -19 19zM7 636l-57 93q-4 8 -4 11q0 5 5 8.5t12 3.5h101q15 0 22 -13l22 -39q2 -4 6 -4t6 4l22 39q7 13 22 13h100q7 0 11.5 -3.5t4.5 -8.5q0 -6 -4 -11l-59 -93
q-8 -13 -23 -13h-164q-16 0 -23 13z" />
    <glyph glyph-name="uni013C.sc" horiz-adv-x="492" 
d="M21 19v540q0 19 19 19h150q19 0 19 -19v-390q0 -8 8 -8h245q19 0 19 -19v-123q0 -19 -19 -19h-422q-19 0 -19 19zM106.5 -167.5q-4.5 3.5 -4.5 8.5t3 11l45 84q7 14 22 14h142q16 0 16 -12q0 -6 -4 -11l-65 -86q-9 -12 -23 -12h-119q-8 0 -12.5 3.5z" />
    <glyph glyph-name="lslash.sc" horiz-adv-x="529" 
d="M217 161h245q19 0 19 -19v-123q0 -19 -19 -19h-422q-19 0 -19 19v111q0 5 -2.5 7t-6.5 -1l-9 -8q-7 -6 -13 -6q-7 0 -13 7l-50 57q-5 6 -5 13q0 8 7 14l88 76q4 3 4 10v260q0 19 19 19h150q19 0 19 -19v-87q0 -5 3 -6.5t7 2.5l102 89q8 6 14 6q7 0 13 -7l49 -57
q5 -6 5 -13t-7 -13l-182 -160q-4 -3 -4 -10v-134q0 -8 8 -8z" />
    <glyph glyph-name="m.sc" horiz-adv-x="611" 
d="M21 19v540q0 19 19 19h149q16 0 23 -13l88 -153q2 -4 6 -4t6 4l87 153q7 13 23 13h149q19 0 19 -19v-540q0 -19 -19 -19h-150q-19 0 -19 19v287q0 6 -3.5 6.5t-6.5 -4.5l-46 -86q-6 -13 -22 -13h-38q-15 0 -22 14l-45 85q-3 5 -6.5 4.5t-3.5 -6.5v-287q0 -19 -19 -19
h-150q-19 0 -19 19z" />
    <glyph glyph-name="n.sc" horiz-adv-x="560" 
d="M21 19v540q0 19 19 19h154q15 0 22 -14l126 -246q1 -2 2.5 -3.5t2.5 -1.5q5 0 5 7l-1 239q0 19 19 19h150q19 0 19 -19v-540q0 -19 -19 -19h-154q-14 0 -22 14l-127 253q-1 2 -2.5 3.5t-2.5 1.5q-5 0 -5 -7l2 -246q0 -19 -19 -19h-150q-19 0 -19 19z" />
    <glyph glyph-name="nacute.sc" horiz-adv-x="560" 
d="M21 19v540q0 19 19 19h154q15 0 22 -14l126 -246q1 -2 2.5 -3.5t2.5 -1.5q5 0 5 7l-1 239q0 19 19 19h150q19 0 19 -19v-540q0 -19 -19 -19h-154q-14 0 -22 14l-127 253q-1 2 -2.5 3.5t-2.5 1.5q-5 0 -5 -7l2 -246q0 -19 -19 -19h-150q-19 0 -19 19zM192.5 644.5
q-4.5 3.5 -4.5 8.5t3 11l45 84q7 14 22 14h142q16 0 16 -12q0 -6 -4 -11l-65 -86q-9 -12 -23 -12h-119q-8 0 -12.5 3.5z" />
    <glyph glyph-name="ncaron.sc" horiz-adv-x="560" 
d="M21 19v540q0 19 19 19h154q15 0 22 -14l126 -246q1 -2 2.5 -3.5t2.5 -1.5q5 0 5 7l-1 239q0 19 19 19h150q19 0 19 -19v-540q0 -19 -19 -19h-154q-14 0 -22 14l-127 253q-1 2 -2.5 3.5t-2.5 1.5q-5 0 -5 -7l2 -246q0 -19 -19 -19h-150q-19 0 -19 19zM161 648l-57 93
q-4 8 -4 11q0 5 5 8.5t12 3.5h101q15 0 22 -13l22 -39q2 -4 6 -4t6 4l22 39q7 13 22 13h100q7 0 11.5 -3.5t4.5 -8.5q0 -6 -4 -11l-59 -93q-8 -13 -23 -13h-164q-16 0 -23 13z" />
    <glyph glyph-name="uni0146.sc" horiz-adv-x="560" 
d="M21 19v540q0 19 19 19h154q15 0 22 -14l126 -246q1 -2 2.5 -3.5t2.5 -1.5q5 0 5 7l-1 239q0 19 19 19h150q19 0 19 -19v-540q0 -19 -19 -19h-154q-14 0 -22 14l-127 253q-1 2 -2.5 3.5t-2.5 1.5q-5 0 -5 -7l2 -246q0 -19 -19 -19h-150q-19 0 -19 19zM152.5 -167.5
q-4.5 3.5 -4.5 8.5t3 11l45 84q7 14 22 14h142q16 0 16 -12q0 -6 -4 -11l-65 -86q-9 -12 -23 -12h-119q-8 0 -12.5 3.5z" />
    <glyph glyph-name="eng.sc" horiz-adv-x="560" 
d="M539 559v-540q0 -8 -0.5 -13t-0.5 -6h-1q-3 -72 -25 -110t-72 -54t-142 -16h-34q-19 2 -19 20v118q0 19 21 18q11 -1 29 -1q24 0 36 5.5t16 20.5q2 6 -1 10l-129 256q-1 2 -2.5 3.5t-2.5 1.5q-5 0 -5 -7l2 -246q0 -19 -19 -19h-150q-19 0 -19 19v540q0 19 19 19h154
q15 0 22 -14l124 -242q1 -2 2.5 -3.5t2.5 -1.5q5 0 5 7v76q0 8 0.5 13t0.5 6h1l-1 140q0 19 19 19h150q19 0 19 -19z" />
    <glyph glyph-name="ntilde.sc" horiz-adv-x="560" 
d="M21 19v540q0 19 19 19h154q15 0 22 -14l126 -246q1 -2 2.5 -3.5t2.5 -1.5q5 0 5 7l-1 239q0 19 19 19h150q19 0 19 -19v-540q0 -19 -19 -19h-154q-14 0 -22 14l-127 253q-1 2 -2.5 3.5t-2.5 1.5q-5 0 -5 -7l2 -246q0 -19 -19 -19h-150q-19 0 -19 19zM302.5 638.5
q-15.5 6.5 -33.5 18.5q-22 14 -36 14q-18 0 -30 -13q-8 -10 -15 -10q-6 0 -11 4l-49 35q-10 7 -10 17q0 3 2 9q14 37 41 57t59 20q18 0 32.5 -6t35.5 -18q26 -15 46 -15q16 0 27 12q8 10 16 10q5 0 10 -4l50 -35q8 -6 8 -16q0 -7 -6 -18q-19 -34 -46 -51t-55 -17
q-20 0 -35.5 6.5z" />
    <glyph glyph-name="o.sc" 
d="M140 21.5q-59 32.5 -91.5 91.5t-32.5 137v78q0 76 32.5 134.5t91.5 90.5t136 32t136 -32t91.5 -90.5t32.5 -134.5v-78q0 -78 -32.5 -137t-91.5 -91.5t-136 -32.5t-136 32.5zM328 176q20 26 20 69v85q0 42 -20 68t-52 26t-52 -26t-20 -68v-85q0 -43 20 -69t52 -26t52 26z
" />
    <glyph glyph-name="oacute.sc" 
d="M140 21.5q-59 32.5 -91.5 91.5t-32.5 137v78q0 76 32.5 134.5t91.5 90.5t136 32t136 -32t91.5 -90.5t32.5 -134.5v-78q0 -78 -32.5 -137t-91.5 -91.5t-136 -32.5t-136 32.5zM328 176q20 26 20 69v85q0 42 -20 68t-52 26t-52 -26t-20 -68v-85q0 -43 20 -69t52 -26t52 26z
M200.5 639.5q-4.5 3.5 -4.5 8.5t3 11l45 84q7 14 22 14h142q16 0 16 -12q0 -6 -4 -11l-65 -86q-9 -12 -23 -12h-119q-8 0 -12.5 3.5z" />
    <glyph glyph-name="ocircumflex.sc" 
d="M140 21.5q-59 32.5 -91.5 91.5t-32.5 137v78q0 76 32.5 134.5t91.5 90.5t136 32t136 -32t91.5 -90.5t32.5 -134.5v-78q0 -78 -32.5 -137t-91.5 -91.5t-136 -32.5t-136 32.5zM328 176q20 26 20 69v85q0 42 -20 68t-52 26t-52 -26t-20 -68v-85q0 -43 20 -69t52 -26t52 26z
M110.5 639.5q-4.5 3.5 -4.5 8.5q0 6 4 11l67 94q8 12 23 12h149q16 0 24 -12l68 -94q4 -5 4 -11q0 -5 -4.5 -8.5t-11.5 -3.5h-103q-15 0 -22 13l-22 39q-2 4 -6 4t-6 -4l-22 -39q-7 -13 -22 -13h-104q-7 0 -11.5 3.5z" />
    <glyph glyph-name="odieresis.sc" 
d="M140 21.5q-59 32.5 -91.5 91.5t-32.5 137v78q0 76 32.5 134.5t91.5 90.5t136 32t136 -32t91.5 -90.5t32.5 -134.5v-78q0 -78 -32.5 -137t-91.5 -91.5t-136 -32.5t-136 32.5zM328 176q20 26 20 69v85q0 42 -20 68t-52 26t-52 -26t-20 -68v-85q0 -43 20 -69t52 -26t52 26z
M110.5 640q-24.5 24 -24.5 63t24.5 63t62.5 24t61.5 -24t23.5 -63t-23.5 -63t-61.5 -24t-62.5 24zM317.5 640q-23.5 24 -23.5 63t23.5 63t62.5 24t62.5 -24t23.5 -63t-23.5 -63t-62.5 -24t-62.5 24z" />
    <glyph glyph-name="ograve.sc" 
d="M140 21.5q-59 32.5 -91.5 91.5t-32.5 137v78q0 76 32.5 134.5t91.5 90.5t136 32t136 -32t91.5 -90.5t32.5 -134.5v-78q0 -78 -32.5 -137t-91.5 -91.5t-136 -32.5t-136 32.5zM328 176q20 26 20 69v85q0 42 -20 68t-52 26t-52 -26t-20 -68v-85q0 -43 20 -69t52 -26t52 26z
M354 648q0 -5 -4.5 -8.5t-12.5 -3.5h-119q-14 0 -23 12l-65 86q-4 5 -4 11q0 12 16 12h142q15 0 22 -14l45 -84q3 -6 3 -11z" />
    <glyph glyph-name="ohungarumlaut.sc" 
d="M140 21.5q-59 32.5 -91.5 91.5t-32.5 137v78q0 76 32.5 134.5t91.5 90.5t136 32t136 -32t91.5 -90.5t32.5 -134.5v-78q0 -78 -32.5 -137t-91.5 -91.5t-136 -32.5t-136 32.5zM328 176q20 26 20 69v85q0 42 -20 68t-52 26t-52 -26t-20 -68v-85q0 -43 20 -69t52 -26t52 26z
M115 648l2 8l36 84q6 15 22 15h129q16 0 16 -13q0 -6 -2 -9l-43 -85q-8 -14 -22 -14h-121q-17 0 -17 14zM309.5 637.5q-4.5 3.5 -4.5 8.5t3 11l43 84q7 14 22 14h121q7 0 11.5 -3.5t4.5 -8.5t-3 -11l-44 -84q-7 -14 -22 -14h-120q-7 0 -11.5 3.5z" />
    <glyph glyph-name="omacron.sc" 
d="M140 21.5q-59 32.5 -91.5 91.5t-32.5 137v78q0 76 32.5 134.5t91.5 90.5t136 32t136 -32t91.5 -90.5t32.5 -134.5v-78q0 -78 -32.5 -137t-91.5 -91.5t-136 -32.5t-136 32.5zM328 176q20 26 20 69v85q0 42 -20 68t-52 26t-52 -26t-20 -68v-85q0 -43 20 -69t52 -26t52 26z
M121 651v87q0 19 19 19h273q19 0 19 -19v-87q0 -19 -19 -19h-273q-19 0 -19 19z" />
    <glyph glyph-name="oslash.sc" 
d="M447.5 530.5q0.5 -2.5 3.5 -4.5q41 -34 63 -85t22 -113v-78q0 -78 -32.5 -137t-91.5 -91.5t-136 -32.5q-48 0 -92 14h-3q-4 0 -7 -5l-28 -54q-7 -14 -22 -14h-49q-16 0 -16 13q0 6 2 9l43 85q1 4 0.5 6.5t-3.5 4.5q-40 34 -62.5 86t-22.5 116v78q0 76 32.5 134.5
t91.5 90.5t136 32q48 0 92 -14h3q5 0 7 5l52 100q7 14 22 14h49q8 0 12.5 -3.5t4.5 -9.5q0 -4 -3 -10l-67 -130q-1 -4 -0.5 -6.5zM208 247.5q4 -0.5 6 4.5l81 160l1 4q0 5 -5 7q-5 1 -15 1q-32 0 -52 -26t-20 -68v-76q0 -6 4 -6.5zM348 319q0 6 -4 6.5t-6 -4.5l-81 -159
l-1 -4q0 -5 5 -7q5 -1 15 -1q32 0 52 26t20 69v74z" />
    <glyph glyph-name="otilde.sc" 
d="M140 21.5q-59 32.5 -91.5 91.5t-32.5 137v78q0 76 32.5 134.5t91.5 90.5t136 32t136 -32t91.5 -90.5t32.5 -134.5v-78q0 -78 -32.5 -137t-91.5 -91.5t-136 -32.5t-136 32.5zM328 176q20 26 20 69v85q0 42 -20 68t-52 26t-52 -26t-20 -68v-85q0 -43 20 -69t52 -26t52 26z
M310.5 633.5q-15.5 6.5 -33.5 18.5q-22 14 -36 14q-18 0 -30 -13q-8 -10 -15 -10q-6 0 -11 4l-49 35q-10 7 -10 17q0 3 2 9q14 37 41 57t59 20q18 0 32.5 -6t35.5 -18q26 -15 46 -15q16 0 27 12q8 10 16 10q5 0 10 -4l50 -35q8 -6 8 -16q0 -7 -6 -18q-19 -34 -46 -51
t-55 -17q-20 0 -35.5 6.5z" />
    <glyph glyph-name="oe.sc" horiz-adv-x="806" 
d="M774 417h-243q-8 0 -8 -8v-27q0 -8 8 -8h145q19 0 19 -19v-122q0 -19 -19 -19h-145q-8 0 -8 -8v-37q0 -8 8 -8h243q19 0 19 -19v-123q0 -19 -19 -19h-420q-19 0 -19 10q0 4 -2.5 5.5t-6.5 -0.5q-52 -26 -109 -26q-52 0 -98.5 29.5t-74.5 83t-28 122.5v130q0 67 28.5 120
t74.5 82t98 29q58 0 109 -24q3 -2 5.5 -2.5t3.5 -0.5v1q0 19 19 19h420q19 0 19 -19v-123q0 -19 -19 -19zM316.5 168q18.5 18 18.5 50v138q0 32 -18.5 50t-48.5 18q-28 0 -46 -18t-18 -50v-138q0 -32 18 -50t46 -18q30 0 48.5 18z" />
    <glyph glyph-name="p.sc" horiz-adv-x="515" 
d="M401.5 553q48.5 -25 75.5 -70.5t27 -104.5q0 -57 -28 -101t-78.5 -68.5t-116.5 -24.5h-66q-8 0 -8 -8v-157q0 -19 -19 -19h-150q-19 0 -19 19v540q0 19 19 19h252q63 0 111.5 -25zM304 344q13 11 13 30t-13 31t-35 12h-54q-8 0 -8 -8v-68q0 -8 8 -8h54q22 0 35 11z" />
    <glyph glyph-name="thorn.sc" horiz-adv-x="509" 
d="M396.5 456.5q48.5 -24.5 75 -68.5t26.5 -101q0 -56 -27.5 -99.5t-78 -67t-116.5 -23.5h-61q-8 0 -8 -8v-70q0 -19 -19 -19h-150q-19 0 -19 19v540q0 19 19 19h150q19 0 19 -19v-70q0 -8 8 -8h70q63 0 111.5 -24.5zM301 257q10 10 10 26q0 17 -10 27.5t-27 10.5h-59
q-8 0 -8 -8v-58q0 -8 8 -8h59q17 0 27 10z" />
    <glyph glyph-name="q.sc" horiz-adv-x="526" 
d="M390 553.5q55 -31.5 85.5 -89t30.5 -132.5v-101q0 -79 -37.5 -137t-104.5 -84q-6 -1 -6 -9v-45q0 -19 -19 -19h-150q-19 0 -19 19v45q0 8 -6 9q-68 26 -106 83.5t-38 137.5v101q0 75 30.5 132.5t85.5 89t127 31.5t127 -31.5zM208 236q0 -37 15 -59.5t40 -22.5t40 22.5
t15 59.5v106q0 37 -15 59.5t-40 22.5t-40 -22.5t-15 -59.5v-106z" />
    </font>
</defs>
</svg>
